<?xml version='1.0' encoding='UTF-8'?>
<svg x="0px" y="0px" viewBox="0 0 162 102" version="1.1" xmlns="http://www.w3.org/2000/svg" xmlns:xlink="http://www.w3.org/1999/xlink" xml:space="preserve" id="Layer_1" style="enable-background:new 0 0 162 102" tag="Element2">
  <style type="text/css" tag="Element1">
	.st0{fill:#1E1004;}
</style>
  <path d="M123.7, 14.8C123.5, 14.9 123.3, 15.1 123.1, 15.2C122.7, 15.4 122.2, 15.6 121.7, 15.6C121.5, 15.6 121.2, 15.5 121, 15.5C120.6, 15.4 120.3, 15.3 120.1, 15C119.8, 14.8 119.6, 14.6 119.4, 14.2C119.3, 14.1 119.3, 13.9 119.2, 13.8C119.2, 13.8 119.2, 13.8 119.2, 13.8C119, 13.4 118.8, 12.9 118.8, 12.4C118.8, 12.2 118.9, 11.9 118.9, 11.7C119, 11.3 119.1, 11 119.4, 10.8C119.6, 10.5 119.8, 10.3 120.2, 10.1C120.5, 9.9 120.9, 9.8 121.2, 9.8C121.6, 9.7 121.9, 9.7 122.3, 9.8C122.3, 9.8 122.4, 9.8 122.4, 9.8C122.6, 9.9 122.8, 10 123.1, 10.1C123.1, 10.1 123.1, 10.1 123.1, 10.1C123.1, 10.1 123.1, 10.1 123.1, 10.1C123.1, 10.1 123.1, 10.1 123.1, 10.1C123.3, 10.2 123.5, 10.4 123.7, 10.5C123.7, 10.5 123.7, 10.5 123.7, 10.5C123.7, 10.5 124.1, 11 124.1, 11.1C124.1, 11.1 124.1, 11.1 124.1, 11.1C124.2, 11.3 124.3, 11.6 124.4, 11.8C124.4, 11.8 124.4, 11.8 124.4, 11.8C124.4, 12 124.5, 12.3 124.5, 12.5C124.5, 12.5 124.5, 12.5 124.5, 12.5C124.5, 12.5 124.5, 12.5 124.5, 12.5C124.5, 12.6 124.4, 13.1 124.4, 13.2C124.4, 13.2 124.4, 13.3 124.4, 13.3C124.3, 14 124, 14.4 123.7, 14.8zM95.4, 30.8C95.2, 30.5 94.9, 30.3 94.5, 30.2C94.2, 30 93.8, 30 93.5, 30C93.3, 30 93, 30.1 92.8, 30.1C92.3, 30.2 91.9, 30.5 91.6, 30.8C91.5, 31 91.3, 31.2 91.2, 31.4C91, 31.8 90.8, 32.3 90.8, 32.8L90.8, 33C90.8, 33.4 90.9, 33.7 91, 34.1C91.1, 34.4 91.3, 34.7 91.6, 35C91.8, 35.3 92.1, 35.5 92.5, 35.6C92.8, 35.8 93.2, 35.8 93.6, 35.8C93.8, 35.8 94.1, 35.7 94.3, 35.7C94.8, 35.6 95.2, 35.3 95.5, 35C95.6, 34.8 95.8, 34.6 95.9, 34.4C96.1, 34 96.3, 33.5 96.3, 33L96.3, 32.8C96.3, 32.4 96.2, 32.1 96.1, 31.7C95.9, 31.3 95.7, 31 95.4, 30.8zM86.6, 9.3C86.4, 9.2 86.2, 9 86, 8.9C85.6, 8.7 85.1, 8.5 84.6, 8.5C84.6, 8.5 84.6, 8.5 84.5, 8.5C84.2, 8.5 84, 8.5 83.7, 8.6C83.6, 8.6 83.3, 8.8 83.4, 8.7C83.3, 8.7 83.2, 8.8 83.1, 8.8C83.1, 8.8 83.1, 8.8 83.1, 8.8C82.9, 8.9 82.7, 9.1 82.5, 9.2C82.2, 9.5 81.9, 10 81.8, 10.5C81.7, 10.8 81.7, 11 81.7, 11.3C81.7, 11.3 81.7, 11.3 81.7, 11.4C81.7, 11.8 81.8, 12.1 81.9, 12.5C82, 12.8 82.2, 13.1 82.5, 13.4C82.7, 13.7 83, 13.9 83.4, 14C83.7, 14.2 84.1, 14.2 84.5, 14.2C84.7, 14.2 85, 14.1 85.2, 14.1C85.7, 14 86.1, 13.7 86.4, 13.4C86.4, 13.4 86.4, 13.4 86.4, 13.4C86.5, 13.3 86.5, 13.3 86.6, 13.2C86.9, 13 87.1, 12.7 87.2, 12.3C87.4, 12 87.4, 11.6 87.4, 11.2C87.4, 11 87.3, 10.7 87.3, 10.5C87.1, 10 86.9, 9.6 86.6, 9.3zM144.2, 46.6C144, 46.5 143.8, 46.3 143.6, 46.2C143.2, 46 142.7, 45.8 142.2, 45.8L142, 45.8C141.6, 45.8 141.3, 45.9 140.9, 46C140.6, 46.1 140.3, 46.3 140, 46.6C139.7, 46.8 139.5, 47.1 139.4, 47.5C139.2, 47.8 139.2, 48.2 139.2, 48.6C139.2, 48.8 139.3, 49.1 139.3, 49.3C139.4, 49.8 139.7, 50.2 140, 50.5C140.2, 50.6 140.4, 50.8 140.6, 50.9C141, 51.1 141.5, 51.3 142, 51.3L142.2, 51.3C142.6, 51.3 142.9, 51.2 143.3, 51.1C143.6, 51 143.9, 50.8 144.2, 50.5C144.5, 50.3 144.7, 50 144.8, 49.6C145, 49.3 145, 48.9 145, 48.5C145, 48.3 144.9, 48 144.9, 47.8C144.8, 47.4 144.5, 47 144.2, 46.6zM72.5, 58.8C72.4, 58.5 72.2, 58.2 71.9, 57.9C71.7, 57.8 71.5, 57.6 71.3, 57.5C70.9, 57.3 70.4, 57.1 69.9, 57.1C69.7, 57.1 69.5, 57.1 69.3, 57.1C68.7, 57.1 68.1, 57.3 67.6, 57.7C67.1, 58.1 66.8, 58.5 66.6, 59.1C66.4, 59.7 66.5, 60.4 66.7, 61C66.7, 61.2 66.7, 61.5 66.8, 61.7C67, 62.3 67.5, 63 68.1, 63.3C68.7, 63.6 69.5, 63.8 70.2, 63.6C70.9, 63.4 71.4, 63 71.8, 62.3C72, 61.9 72.2, 61.5 72.4, 61.1C72.5, 60.9 72.5, 60.7 72.5, 60.5C72.5, 60.2 72.6, 60 72.5, 59.8C72.7, 59.4 72.6, 59.1 72.5, 58.8zM39.6, 29.3C39.8, 28.9 40, 28.4 40, 27.9L40, 27.3C40, 26.9 39.9, 26.6 39.8, 26.2C39.7, 25.9 39.5, 25.6 39.2, 25.3C39, 25 38.7, 24.8 38.3, 24.7C38, 24.5 37.6, 24.5 37.2, 24.5C37, 24.5 36.7, 24.6 36.5, 24.6C36, 24.7 35.6, 25 35.3, 25.3C35.2, 25.5 35, 25.7 34.9, 25.9C34.7, 26.3 34.5, 26.8 34.5, 27.3L34.5, 27.9C34.5, 28.3 34.6, 28.6 34.7, 29C34.8, 29.3 35, 29.6 35.3, 29.9C35.5, 30.2 35.8, 30.4 36.2, 30.5C36.5, 30.7 36.9, 30.7 37.3, 30.7C37.5, 30.7 37.8, 30.6 38, 30.6C38.5, 30.5 38.9, 30.2 39.2, 29.9C39.3, 29.6 39.5, 29.5 39.6, 29.3zM20.4, 46.8C19, 46.8 17.6, 48.1 17.7, 49.5C17.8, 51 18.9, 52.2 20.4, 52.2C21.8, 52.2 23.2, 50.9 23.1, 49.5C23.1, 48.1 21.9, 46.8 20.4, 46.8zM127.8, 33.5C127.8, 33.5 127.8, 33.5 127.8, 33.5L127.7, 32.9C127.7, 32.7 127.6, 32.5 127.5, 32.4C127.3, 32.1 127.2, 32 126.9, 31.8C126.6, 31.6 126.6, 31.5 126.2, 31.4C126, 31.3 125.8, 31.3 125.6, 31.3C125.3, 31.3 125.1, 31.3 124.8, 31.4C124.5, 31.5 124.3, 31.6 124.1, 31.8C123.9, 31.9 123.7, 32.1 123.6, 32.4C123.5, 32.6 123.4, 32.9 123.4, 33.1C123.3, 33.4 123.4, 33.6 123.4, 33.9C123.5, 34.1 123.5, 34.2 123.6, 34.4C123.7, 34.6 123.9, 34.8 124.1, 35C124.2, 35.2 124.3, 35.3 124.5, 35.4C124.7, 35.6 124.9, 35.7 125.2, 35.8C125.4, 35.8 125.6, 35.8 125.7, 35.9C126.1, 35.9 126.4, 35.8 126.7, 35.6C126.8, 35.5 127, 35.4 127.1, 35.3C127.3, 35.1 127.5, 34.8 127.6, 34.4C127.6, 34.4 127.6, 34.3 127.6, 34.3C127.7, 34 127.8, 33.8 127.8, 33.5C127.8, 33.6 127.8, 33.5 127.8, 33.5zM149.9, 37.4C149.8, 37.2 149.7, 36.9 149.5, 36.8C149.3, 36.6 149.1, 36.5 148.9, 36.4C148.7, 36.3 148.4, 36.2 148.1, 36.2C147.9, 36.2 147.7, 36.2 147.6, 36.3C147.3, 36.4 147, 36.6 146.7, 36.8C146.6, 36.9 146.5, 37.1 146.4, 37.2C146.2, 37.5 146.1, 37.8 146.1, 38.2L146.1, 38.6C146.1, 38.9 146.1, 39.1 146.3, 39.4C146.4, 39.6 146.5, 39.9 146.7, 40C146.9, 40.2 147.1, 40.3 147.3, 40.4C147.5, 40.5 147.8, 40.6 148.1, 40.6C148.3, 40.6 148.5, 40.6 148.6, 40.5C148.9, 40.4 149.2, 40.2 149.5, 40C149.6, 39.9 149.7, 39.7 149.8, 39.6C150, 39.3 150.1, 39 150.1, 38.6L150.1, 38.2C150.1, 37.9 150, 37.6 149.9, 37.4zM35.2, 14.7C35.2, 14.7 35.3, 14.7 35.3, 14.7C35.4, 14.7 35.5, 14.6 35.5, 14.6C35.6, 14.6 35.7, 14.5 35.7, 14.5C35.7, 14.5 35.7, 14.5 35.7, 14.5C36, 14.3 36.2, 14.1 36.4, 13.8C36.6, 13.5 36.7, 13.1 36.7, 12.8C36.7, 12.4 36.6, 12.1 36.4, 11.8C36.2, 11.5 36, 11.3 35.7, 11.1C35.5, 11 35.3, 10.9 35.2, 10.9C35.2, 10.9 35.1, 10.9 35.1, 10.9C34.8, 10.8 34.6, 10.8 34.3, 10.9C34, 10.9 33.8, 11 33.6, 11.1C33.4, 11.2 33.2, 11.4 33, 11.6C32.8, 11.8 32.7, 12 32.6, 12.3L32.5, 12.8C32.5, 12.8 32.5, 12.9 32.5, 12.9C32.5, 13.1 32.5, 13.3 32.6, 13.5C32.7, 13.7 32.7, 13.8 32.8, 14C33, 14.3 33.2, 14.5 33.5, 14.7C33.7, 14.8 33.8, 14.8 34, 14.9C34.5, 14.8 34.8, 14.8 35.2, 14.7zM16.1, 34.3C16, 34 15.8, 33.7 15.6, 33.4C15.5, 33.3 15.8, 33.4 15.2, 33.1C15.2, 33.1 14.7, 32.9 14.7, 32.9C14.7, 32.9 14.2, 32.8 14.2, 32.8C13.8, 32.8 13.5, 32.9 13.1, 33.1C13.1, 33.1 13, 33.1 13, 33.2C12.8, 33.3 12.6, 33.5 12.4, 33.7C12.2, 33.9 12.1, 34.1 12, 34.4C11.9, 34.7 11.9, 34.9 12, 35.2C12, 35.5 12.1, 35.7 12.2, 35.9C12.3, 36 12.4, 36.2 12.5, 36.3C12.7, 36.5 13, 36.7 13.4, 36.8L13.9, 36.9C13.9, 36.9 14, 36.9 14, 36.9C14, 36.9 14, 36.9 14.1, 36.9C14.5, 36.9 14.8, 36.8 15.1, 36.6C15.2, 36.5 15.4, 36.4 15.5, 36.3C15.7, 36.1 15.9, 35.8 16, 35.4C16.2, 35.1 16.2, 34.7 16.1, 34.3zM48.6, 48.1C48.2, 47.8 47.9, 47.5 47.5, 47.2C46.6, 46.7 45.7, 46.4 44.7, 46.4L44.3, 46.4C43.5, 46.4 42.8, 46.5 42.2, 46.9C41.5, 47.1 40.9, 47.5 40.4, 48C39.9, 48.5 39.5, 49.1 39.3, 49.8C39, 50.5 38.8, 51.2 38.8, 51.9C38.9, 52.4 38.9, 52.9 39, 53.4C39.3, 54.3 39.7, 55.2 40.4, 55.8C40.8, 56.1 41.1, 56.4 41.5, 56.7C42.4, 57.2 43.3, 57.5 44.3, 57.5L44.7, 57.5C45.5, 57.5 46.2, 57.4 46.8, 57C47.5, 56.8 48.1, 56.4 48.6, 55.9C49.1, 55.4 49.5, 54.8 49.7, 54.1C50, 53.4 50.2, 52.7 50.2, 52C50.1, 51.5 50.1, 51 50, 50.5C49.8, 49.6 49.3, 48.7 48.6, 48.1zM80.1, 23.8C79.9, 23.3 79.5, 22.8 79.1, 22.4C78.6, 21.9 78, 21.5 77.3, 21.3C76.6, 21 75.9, 20.8 75.2, 20.8C74.7, 20.9 74.2, 20.9 73.7, 21C72.8, 21.3 71.9, 21.7 71.3, 22.4C71, 22.8 70.7, 23.1 70.4, 23.5C69.9, 24.4 69.6, 25.3 69.6, 26.3C69.6, 27.5 69.9, 28.2 70.4, 29.3C70.6, 29.7 71.6, 30.8 71.3, 30.5C71.3, 30.5 71.4, 30.6 71.4, 30.6C71.9, 31.1 72.5, 31.5 73.2, 31.7C73.9, 32 74.6, 32.2 75.3, 32.2C76.1, 32.2 76.8, 32.1 77.4, 31.7C78.1, 31.5 78.7, 31.1 79.2, 30.6C79.5, 30.2 79.8, 29.9 80.1, 29.5C80.6, 28.6 80.9, 27.7 80.9, 26.7C80.8, 26.2 80.8, 25.7 80.7, 25.2C80.6, 24.7 80.4, 24.2 80.1, 23.8zM25.4, 63C23.8, 63 23.8, 65.4 25.4, 65.4C27, 65.4 27, 63 25.4, 63zM17.2, 85.3C15.6, 85.3 15.6, 87.7 17.2, 87.7C18.8, 87.7 18.8, 85.3 17.2, 85.3zM89.3, 55C87.7, 55 87.7, 57.4 89.3, 57.4C90.8, 57.4 90.8, 55 89.3, 55zM91.3, 8.3C91.4, 8.2 91.5, 8.1 91.6, 7.9C91.7, 7.8 91.7, 7.6 91.7, 7.4C91.7, 7.3 91.7, 7.2 91.7, 7.1C91.6, 6.9 91.5, 6.7 91.4, 6.6C91.3, 6.5 91.2, 6.5 91.2, 6.4C91, 6.3 90.8, 6.2 90.6, 6.2L90.4, 6.2C90.2, 6.2 90.1, 6.2 89.9, 6.3C89.7, 6.3 89.6, 6.4 89.5, 6.6C89.4, 6.7 89.3, 6.8 89.2, 7C89.1, 7.1 89, 7.3 89, 7.4C89, 7.5 89, 7.6 89, 7.7C89.1, 7.9 89.2, 8.1 89.3, 8.2C89.4, 8.3 89.5, 8.3 89.5, 8.4C89.7, 8.5 89.9, 8.6 90.1, 8.6L90.3, 8.6C90.5, 8.6 90.6, 8.6 90.8, 8.5C91.1, 8.5 91.2, 8.4 91.3, 8.3zM130.1, 68.2C130, 68.1 129.9, 68.1 129.9, 68C129.7, 67.9 129.5, 67.8 129.3, 67.8C129.2, 67.8 129.1, 67.8 129, 67.8C128.8, 67.9 128.6, 68 128.5, 68.1L128.3, 68.3C128.2, 68.4 128.1, 68.5 128, 68.7C127.9, 68.8 127.9, 69 127.9, 69.2C127.9, 69.4 127.9, 69.5 128, 69.7C128, 69.9 128.1, 70 128.3, 70.1C128.4, 70.2 128.5, 70.2 128.5, 70.3C128.7, 70.4 128.9, 70.5 129.1, 70.5C129.2, 70.5 129.3, 70.5 129.4, 70.5C129.6, 70.4 129.8, 70.3 129.9, 70.2L130.1, 70C130.2, 69.9 130.3, 69.8 130.4, 69.6C130.5, 69.5 130.5, 69.3 130.5, 69.1C130.5, 68.9 130.5, 68.8 130.4, 68.6C130.3, 68.4 130.2, 68.3 130.1, 68.2z" class="st0" tag="st00" />
</svg>