<?xml version='1.0' encoding='UTF-8'?>
<svg x="0px" y="0px" viewBox="0 0 768 40" version="1.1" xmlns="http://www.w3.org/2000/svg" xmlns:xlink="http://www.w3.org/1999/xlink" xml:space="preserve" id="Layer_1" style="enable-background:new 0 0 768 40" tag="Element4">
  <style type="text/css" tag="Element1">
	.st0{fill:#80B4C1;}
	.st1{fill:#6D3308;}
	.st2{fill:#4D8E6E;}
	.st3{fill:#F98115;}
	.st4{fill:#FFFFFF;}
	.st5{fill:#FFCC4D;}
	.st6{fill:#A4D7E0;}
</style>
  <g tag="Element3">
    <rect x="0" y="0" width="768" height="110" rx="0" ry="0" class="st0" tag="st00" />
    <path d="M595, 105.6C595, 105.6 592, 106.6 592, 105.6C592, 104.6 591, 92.6 591, 92.6L594, 91.6L595, 105.6zM379, 86C379, 86 379, 104 378, 105C377, 106 383, 105 383, 105L382, 85L379, 86zM422, 104L427, 103C427, 103 429, 88 429, 86L425, 86L422, 104zM310, 89L311, 107L315, 107L314, 90L310, 89zM533, 102L537, 101L537, 85L534, 85L533, 102z" class="st1" tag="st10" />
    <path d="M583, 96.6L587, 79.6L582, 80.6L587, 68.6C587, 68.6 583, 69.6 584, 68.6C585, 67.6 592, 57.6 592, 57.6L598, 69.6L593, 68.6L600, 80.6L595, 80.6L604, 95.6L583, 96.6zM391, 73L381, 57L387, 58L381, 44L370, 57L375, 57L367, 72L371, 72L365, 89L394, 88L386, 72L391, 73zM441, 73L434, 57L440, 58L431, 41L437, 41L427, 25L418, 42L423, 41L416, 57L420, 56L413, 72L418, 72L411, 90L444, 90L435, 73L441, 73zM326, 80L317, 63L322, 63L314, 49L320, 50L312, 34L303, 49L308, 49L301, 64L306, 63L301, 79L305, 79L297, 94L329, 95L319, 80L326, 80zM554, 73L543, 58L552, 58L541, 41L548, 41L533, 23L524, 41L529, 41L520, 57L525, 57L516, 74L522, 74L512, 89L556, 90L546, 74L554, 73z" class="st2" tag="st20" />
    <path d="M597.3, 95.2C595.4, 95.2 595.4, 92.2 597.3, 92.2C599.3, 92.2 599.3, 95.2 597.3, 95.2zM544.6, 49.3C542.7, 49.3 542.7, 52.3 544.6, 52.3C546.5, 52.3 546.5, 49.3 544.6, 49.3zM534.5, 63.6C532.6, 63.6 532.6, 66.6 534.5, 66.6C536.4, 66.6 536.4, 63.6 534.5, 63.6zM529.7, 32C529.6, 31.9 529.4, 31.8 529.3, 31.7C529.2, 31.6 529.1, 31.6 528.9, 31.5C528.7, 31.4 528.6, 31.3 528.3, 31.2C528, 31.1 527.8, 31.1 527.5, 31.2C527.2, 31.2 527, 31.3 526.8, 31.4C526.7, 31.5 526.5, 31.6 526.4, 31.7C526.2, 31.9 526, 32.2 525.9, 32.6C525.9, 32.8 525.9, 33 525.8, 33.1C525.8, 33.5 525.9, 33.8 526.1, 34.1C526.2, 34.2 526.3, 34.4 526.4, 34.5L526.4, 34.5L526.4, 34.5L526.4, 34.5L526.4, 34.5C526.5, 34.6 526.7, 34.7 526.8, 34.8L526.8, 34.8C526.8, 34.8 526.8, 34.8 526.9, 34.8C527.1, 34.9 527.2, 35 527.4, 35C527.4, 35 527.4, 35 527.5, 35L527.5, 35C527.6, 35 527.7, 35 527.8, 35C527.9, 35 528, 35 528.1, 35C528.1, 35 528.1, 35 528.2, 35C528.5, 35 528.7, 35 529, 34.8C529.2, 34.7 529.5, 34.6 529.6, 34.4C529.8, 34.2 529.9, 34 530, 33.8C530.1, 33.6 530.2, 33.3 530.2, 33C530.2, 32.8 530.2, 32.6 530.1, 32.5C530.2, 32.6 530, 32.3 529.7, 32zM432.8, 48.4L432.5, 48.2C432.3, 48.1 432, 48 431.7, 48L431.5, 48C431.3, 48 431.1, 48 430.9, 48.1C430.7, 48.2 430.6, 48.3 430.4, 48.4C430.3, 48.5 430.2, 48.7 430.1, 48.9C430, 49.1 430, 49.3 430, 49.5C430, 49.6 430, 49.8 430.1, 49.9C430.2, 50.2 430.3, 50.4 430.5, 50.6L430.8, 50.8C431, 50.9 431.3, 51 431.6, 51L431.8, 51C432, 51 432.2, 51 432.4, 50.9C432.6, 50.8 432.7, 50.7 432.9, 50.6C433, 50.5 433.1, 50.3 433.2, 50.1C433.3, 49.9 433.3, 49.7 433.3, 49.5C433.3, 49.4 433.3, 49.2 433.2, 49.1C433.1, 48.9 432.9, 48.6 432.8, 48.4zM425.7, 58.6C425.6, 58.5 425.4, 58.4 425.2, 58.3C425, 58.2 424.8, 58.2 424.6, 58.2C424.5, 58.2 424.3, 58.2 424.2, 58.3C423.9, 58.4 423.7, 58.5 423.5, 58.7C423.4, 58.8 423.3, 58.9 423.3, 59C423.2, 59.2 423.1, 59.5 423.1, 59.8L423.1, 60C423.1, 60.2 423.1, 60.4 423.2, 60.6C423.3, 60.8 423.4, 60.9 423.5, 61.1C423.6, 61.2 423.8, 61.3 424, 61.4C424.2, 61.5 424.4, 61.5 424.6, 61.5C424.7, 61.5 424.9, 61.5 425, 61.4C425.3, 61.3 425.5, 61.2 425.7, 61C425.8, 60.9 425.9, 60.8 425.9, 60.7C426, 60.5 426.1, 60.2 426.1, 59.9L426.1, 59.7C426.1, 59.5 426.1, 59.3 426, 59.1C426, 58.9 425.9, 58.7 425.7, 58.6zM438.8, 62.4C438.6, 62.2 438.4, 62.1 438.2, 62C438, 61.9 437.7, 61.8 437.4, 61.8C437.2, 61.8 437, 61.8 436.9, 61.9C436.6, 62 436.3, 62.2 436, 62.4C435.9, 62.5 435.8, 62.7 435.7, 62.8C435.5, 63.1 435.4, 63.4 435.4, 63.8L435.4, 64C435.4, 64.3 435.4, 64.5 435.6, 64.8C435.7, 65 435.8, 65.3 436, 65.4C436.2, 65.6 436.4, 65.7 436.6, 65.8C436.8, 65.9 437.1, 66 437.4, 66C437.6, 66 437.8, 66 437.9, 65.9C438.2, 65.8 438.5, 65.6 438.8, 65.4C438.9, 65.3 439, 65.1 439.1, 65C439.3, 64.7 439.4, 64.4 439.4, 64L439.4, 63.8C439.4, 63.5 439.4, 63.3 439.2, 63C439.2, 62.8 439, 62.6 438.8, 62.4zM373.9, 60.1L373.7, 59.9C373.6, 59.8 373.4, 59.7 373.2, 59.6C373, 59.5 372.8, 59.5 372.6, 59.5C372.4, 59.5 372.2, 59.5 372, 59.6C371.8, 59.7 371.7, 59.8 371.5, 59.9C371.4, 60 371.3, 60.1 371.3, 60.2C371.2, 60.4 371.1, 60.7 371.1, 61C371.1, 61.1 371.1, 61.3 371.2, 61.4C371.3, 61.7 371.4, 61.9 371.6, 62.1L371.8, 62.3C371.9, 62.4 372.1, 62.5 372.3, 62.6C372.5, 62.7 372.7, 62.7 372.9, 62.7C373.1, 62.7 373.3, 62.7 373.5, 62.6C373.7, 62.5 373.8, 62.4 374, 62.3C374.1, 62.2 374.2, 62.1 374.2, 62C374.3, 61.8 374.4, 61.5 374.4, 61.2C374.4, 61.1 374.4, 60.9 374.3, 60.8C374.2, 60.5 374.1, 60.3 373.9, 60.1zM392.9, 78.5C392.8, 78.4 392.6, 78.3 392.5, 78.2C392.2, 78 391.9, 77.9 391.5, 77.9C391.3, 77.9 391.1, 77.9 391, 78C390.7, 78.1 390.4, 78.3 390.1, 78.5L389.7, 78.9C389.5, 79.1 389.4, 79.3 389.3, 79.5C389.2, 79.7 389.1, 80 389.1, 80.3C389.1, 80.6 389.1, 80.8 389.3, 81.1C389.4, 81.3 389.5, 81.6 389.7, 81.7C389.8, 81.8 390, 81.9 390.1, 82C390.4, 82.2 390.7, 82.3 391.1, 82.3C391.3, 82.3 391.5, 82.3 391.6, 82.2C391.9, 82.1 392.2, 81.9 392.5, 81.7L392.9, 81.3C393.1, 81.1 393.2, 80.9 393.3, 80.7C393.4, 80.5 393.5, 80.2 393.5, 79.9C393.5, 79.6 393.5, 79.4 393.3, 79.1C393.3, 78.9 393.1, 78.7 392.9, 78.5zM314.1, 51.7L313.8, 51.5C313.6, 51.4 313.3, 51.3 313, 51.3L312.6, 51.3C312.4, 51.3 312.2, 51.3 312, 51.4C311.8, 51.5 311.7, 51.6 311.5, 51.7C311.4, 51.8 311.3, 52 311.2, 52.2C311.1, 52.4 311.1, 52.6 311.1, 52.8C311.1, 52.9 311.1, 53.1 311.2, 53.2C311.3, 53.5 311.4, 53.7 311.6, 53.9C311.7, 54 311.8, 54.1 311.9, 54.1C312.1, 54.2 312.4, 54.3 312.7, 54.3L313.1, 54.3C313.3, 54.3 313.5, 54.3 313.7, 54.2C313.9, 54.1 314, 54 314.2, 53.9C314.3, 53.8 314.4, 53.6 314.5, 53.4C314.6, 53.2 314.6, 53 314.6, 52.8C314.6, 52.7 314.6, 52.5 314.5, 52.4C314.4, 52.2 314.3, 51.9 314.1, 51.7zM316.6, 69.8C314.7, 69.8 314.7, 72.8 316.6, 72.8C318.5, 72.8 318.5, 69.8 316.6, 69.8zM305.9, 55.6C305.8, 55.5 305.6, 55.4 305.5, 55.3C305.2, 55.1 304.9, 55 304.5, 55L304.3, 55C304, 55 303.8, 55 303.5, 55.2C303.3, 55.3 303, 55.4 302.9, 55.6C302.7, 55.8 302.6, 56 302.5, 56.2C302.4, 56.4 302.3, 56.7 302.3, 57C302.3, 57.2 302.3, 57.4 302.4, 57.5C302.5, 57.8 302.7, 58.1 302.9, 58.4C303, 58.5 303.2, 58.6 303.3, 58.7C303.6, 58.9 303.9, 59 304.3, 59L304.5, 59C304.8, 59 305, 59 305.3, 58.8C305.5, 58.7 305.8, 58.6 305.9, 58.4C306.1, 58.2 306.2, 58 306.3, 57.8C306.4, 57.6 306.5, 57.3 306.5, 57C306.5, 56.8 306.5, 56.6 306.4, 56.5C306.3, 56.1 306.1, 55.8 305.9, 55.6z" class="st3" tag="st30" />
    <path d="M587.4, 94.3C585.5, 94.3 585.5, 91.3 587.4, 91.3C589.4, 91.3 589.4, 94.3 587.4, 94.3zM531.6, 46C531.5, 45.9 531.3, 45.8 531.1, 45.7C530.9, 45.6 530.7, 45.6 530.5, 45.6C530.4, 45.6 530.2, 45.6 530.1, 45.7C529.8, 45.8 529.6, 45.9 529.4, 46.1L529.2, 46.4C529.1, 46.6 529, 46.9 529, 47.2L529, 47.4C529, 47.6 529, 47.8 529.1, 48C529.2, 48.2 529.3, 48.3 529.4, 48.5C529.5, 48.6 529.7, 48.7 529.9, 48.8C530.1, 48.9 530.3, 48.9 530.5, 48.9C530.6, 48.9 530.8, 48.9 530.9, 48.8C531.2, 48.7 531.4, 48.6 531.6, 48.4L531.8, 48.1C531.9, 47.9 532, 47.6 532, 47.3L532, 47.1C532, 46.9 532, 46.7 531.9, 46.5C531.8, 46.3 531.7, 46.2 531.6, 46zM544.2, 60.5C541.6, 60.5 541.6, 64.5 544.2, 64.5C546.7, 64.5 546.8, 60.5 544.2, 60.5zM521.6, 77.8C521.5, 77.7 521.3, 77.6 521.2, 77.5C520.9, 77.3 520.6, 77.2 520.2, 77.2L520.2, 77.2L520.2, 77.2L520.2, 77.2L520.2, 77.2L520.2, 77.2C520, 77.2 519.8, 77.2 519.7, 77.3L519.7, 77.3C519.5, 77.4 519.4, 77.4 519.2, 77.5L519.2, 77.5L519.2, 77.5L518.8, 77.8L518.8, 77.8L518.8, 77.8L518.8, 77.8C518.7, 77.9 518.6, 78.1 518.5, 78.2L518.5, 78.2L518.5, 78.2L518.5, 78.2L518.3, 78.7L518.3, 78.7L518.3, 78.7C518.3, 78.9 518.2, 79.1 518.2, 79.3L518.2, 79.3C518.2, 79.3 518.2, 79.3 518.2, 79.4C518.2, 79.7 518.2, 79.9 518.4, 80.2C518.5, 80.4 518.6, 80.7 518.8, 80.8C519, 81 519.2, 81.1 519.4, 81.2C519.6, 81.3 519.9, 81.4 520.2, 81.4C520.4, 81.4 520.6, 81.4 520.7, 81.3C521, 81.2 521.3, 81 521.6, 80.8L521.7, 80.7L521.8, 80.6C522, 80.4 522.1, 80.2 522.2, 80C522.3, 79.8 522.4, 79.5 522.4, 79.2C522.4, 79 522.4, 78.8 522.3, 78.7C522, 78.4 521.8, 78.1 521.6, 77.8zM420.2, 82.7L420.2, 82.7L420.2, 82.7C420.2, 82.6 420.2, 82.4 420.1, 82.3L420.1, 82.3C420.1, 82.2 420, 82 419.9, 81.9L419.9, 81.9L419.9, 81.9L419.7, 81.6L419.7, 81.6L419.7, 81.6L419.7, 81.6C419.6, 81.5 419.5, 81.4 419.4, 81.4L419.4, 81.4L419.4, 81.4L419.4, 81.4C419.3, 81.3 419.2, 81.3 419, 81.2L419, 81.2L419, 81.2C418.9, 81.2 418.7, 81.2 418.6, 81.1L418.6, 81.1C418.6, 81.1 418.6, 81.1 418.5, 81.1C418.3, 81.1 418.1, 81.1 417.9, 81.2C417.7, 81.3 417.6, 81.4 417.4, 81.5C417.3, 81.6 417.2, 81.8 417.1, 82C417, 82.2 417, 82.4 417, 82.6C417, 82.7 417, 82.9 417.1, 83C417.2, 83.3 417.3, 83.5 417.5, 83.7L417.6, 83.8L417.7, 83.9C417.8, 84 418, 84.1 418.2, 84.2C418.4, 84.3 418.6, 84.3 418.8, 84.3C418.9, 84.3 419.1, 84.3 419.2, 84.2C419.5, 84.1 419.7, 84 419.9, 83.8C420, 83.7 420.1, 83.6 420.1, 83.5C420.1, 83.3 420.2, 83 420.2, 82.7L420.2, 82.7L420.2, 82.7L420.2, 82.7zM426.6, 34.6C426.5, 34.5 426.4, 34.4 426.3, 34.4C426.1, 34.3 425.8, 34.2 425.5, 34.2L425.3, 34.2C425.1, 34.2 424.9, 34.2 424.7, 34.3C424.5, 34.4 424.4, 34.5 424.2, 34.6C424.1, 34.7 424, 34.9 423.9, 35.1C423.8, 35.3 423.8, 35.5 423.8, 35.7C423.8, 35.8 423.8, 36 423.9, 36.1C424, 36.4 424.1, 36.6 424.3, 36.8L424.6, 37C424.8, 37.1 425.1, 37.2 425.4, 37.2L425.6, 37.2C425.8, 37.2 426, 37.2 426.2, 37.1C426.4, 37 426.5, 36.9 426.7, 36.8C426.8, 36.7 426.9, 36.5 427, 36.3C427.1, 36.1 427.1, 35.9 427.1, 35.7C427.1, 35.6 427.1, 35.4 427, 35.3C426.9, 35 426.8, 34.8 426.6, 34.6zM383.6, 49.8C383.5, 49.7 383.5, 49.7 383.4, 49.6C383.3, 49.5 383.1, 49.4 382.9, 49.3C382.7, 49.2 382.5, 49.2 382.3, 49.2C382.1, 49.2 381.9, 49.2 381.7, 49.3C381.5, 49.4 381.4, 49.5 381.2, 49.6C381.1, 49.7 381, 49.8 381, 49.9C380.9, 50.1 380.8, 50.4 380.8, 50.7C380.8, 50.8 380.8, 51 380.9, 51.1C381, 51.4 381.1, 51.6 381.3, 51.8C381.4, 51.9 381.4, 51.9 381.5, 52C381.6, 52.1 381.8, 52.2 382, 52.3C382.2, 52.4 382.4, 52.4 382.6, 52.4C382.8, 52.4 383, 52.4 383.2, 52.3C383.4, 52.2 383.5, 52.1 383.7, 52C383.8, 51.9 383.9, 51.8 383.9, 51.7C384, 51.5 384.1, 51.2 384.1, 50.9C384.1, 50.8 384.1, 50.6 384, 50.5C383.9, 50.2 383.8, 50 383.6, 49.8zM368.2, 81.2C365.6, 81.2 365.6, 85.2 368.2, 85.2C370.8, 85.2 370.8, 81.2 368.2, 81.2zM312.2, 75.2C309.6, 75.2 309.6, 79.2 312.2, 79.2C314.7, 79.2 314.8, 75.2 312.2, 75.2zM309, 83.1C308.9, 83 308.7, 82.9 308.6, 82.8C308.3, 82.6 308, 82.5 307.6, 82.5C307.4, 82.5 307.2, 82.5 307.1, 82.6C306.8, 82.7 306.5, 82.9 306.2, 83.1L306, 83.3C305.8, 83.5 305.7, 83.7 305.6, 83.9C305.5, 84.1 305.4, 84.4 305.4, 84.7C305.4, 85 305.4, 85.2 305.6, 85.5C305.7, 85.7 305.8, 86 306, 86.1C306.1, 86.2 306.3, 86.3 306.4, 86.4C306.7, 86.6 307, 86.7 307.4, 86.7C307.6, 86.7 307.8, 86.7 307.9, 86.6C308.2, 86.5 308.5, 86.3 308.8, 86.1L309, 85.9C309.2, 85.7 309.3, 85.5 309.4, 85.3C309.5, 85.1 309.6, 84.8 309.6, 84.5C309.6, 84.2 309.6, 84 309.4, 83.7C309.3, 83.5 309.2, 83.3 309, 83.1z" class="st4" tag="st40" />
    <path d="M592.9, 79.8C592.9, 80 592.9, 80.2 592.8, 80.4C592.7, 80.6 592.6, 80.7 592.5, 80.9C592.4, 81 592.2, 81.1 592, 81.2C591.8, 81.3 591.6, 81.3 591.4, 81.3L591.2, 81.3C590.9, 81.3 590.7, 81.2 590.4, 81.1C590.3, 81 590.2, 80.9 590.1, 80.9C589.9, 80.7 589.8, 80.5 589.7, 80.2C589.7, 80.1 589.7, 79.9 589.6, 79.8C589.6, 79.6 589.6, 79.4 589.7, 79.2C589.8, 79 589.9, 78.9 590, 78.7C590.1, 78.6 590.3, 78.5 590.5, 78.4C590.7, 78.3 590.9, 78.3 591.1, 78.3L591.3, 78.3C591.6, 78.3 591.8, 78.4 592.1, 78.5L592.4, 78.7C592.6, 78.9 592.7, 79.1 592.8, 79.4C592.9, 79.5 592.9, 79.7 592.9, 79.8zM588.5, 72.6C586.6, 72.6 586.6, 75.6 588.5, 75.6C590.5, 75.6 590.5, 72.6 588.5, 72.6zM529.9, 59.9C528, 59.9 528, 62.9 529.9, 62.9C531.8, 62.9 531.8, 59.9 529.9, 59.9zM543.9, 80.8L543.6, 80.6C543.4, 80.5 543.1, 80.4 542.8, 80.4L542.6, 80.4C542.4, 80.4 542.2, 80.4 542, 80.5C541.8, 80.6 541.7, 80.7 541.5, 80.8C541.4, 80.9 541.3, 81.1 541.2, 81.3C541.1, 81.5 541.1, 81.7 541.1, 81.9C541.1, 82 541.1, 82.2 541.2, 82.3C541.3, 82.6 541.4, 82.8 541.6, 83L541.9, 83.2C542.1, 83.3 542.4, 83.4 542.7, 83.4L542.9, 83.4C543.1, 83.4 543.3, 83.4 543.5, 83.3C543.7, 83.2 543.8, 83.1 544, 83C544.1, 82.9 544.2, 82.7 544.3, 82.5C544.4, 82.3 544.4, 82.1 544.4, 81.9C544.4, 81.8 544.4, 81.6 544.3, 81.5C544.2, 81.2 544.1, 81 543.9, 80.8zM528.1, 71.9C525.5, 71.9 525.5, 75.9 528.1, 75.9C530.7, 75.9 530.7, 71.9 528.1, 71.9zM538.2, 44.6C535.6, 44.6 535.6, 48.6 538.2, 48.6C540.8, 48.6 540.8, 44.6 538.2, 44.6zM427.3, 63.4C425.4, 63.4 425.4, 66.4 427.3, 66.4C429.2, 66.4 429.2, 63.4 427.3, 63.4zM422.5, 45.9C422.3, 45.7 422.1, 45.6 421.9, 45.5C421.7, 45.4 421.4, 45.3 421.1, 45.3C420.9, 45.3 420.7, 45.3 420.6, 45.4C420.3, 45.5 420, 45.7 419.7, 45.9C419.6, 46 419.5, 46.2 419.4, 46.3C419.2, 46.6 419.1, 46.9 419.1, 47.3L419.1, 47.5C419.1, 47.8 419.1, 48 419.3, 48.3C419.4, 48.5 419.5, 48.8 419.7, 48.9C419.9, 49.1 420.1, 49.2 420.3, 49.3C420.5, 49.4 420.8, 49.5 421.1, 49.5C421.3, 49.5 421.5, 49.5 421.6, 49.4C421.9, 49.3 422.2, 49.1 422.5, 48.9C422.6, 48.8 422.7, 48.6 422.8, 48.5C423, 48.2 423.1, 47.9 423.1, 47.5L423.1, 47.3C423.1, 47 423.1, 46.8 422.9, 46.5C422.9, 46.3 422.7, 46.1 422.5, 45.9zM430.8, 81.2C428.2, 81.2 428.2, 85.2 430.8, 85.2C433.4, 85.2 433.4, 81.2 430.8, 81.2zM415.8, 65.3C413.2, 65.3 413.2, 69.3 415.8, 69.3C418.4, 69.3 418.4, 65.3 415.8, 65.3zM374.8, 78.6C372.9, 78.6 372.9, 81.6 374.8, 81.6C376.7, 81.6 376.7, 78.6 374.8, 78.6zM371.4, 65.9C371.2, 65.7 370.9, 65.5 370.5, 65.4L370.4, 65.4C370.3, 65.4 370.2, 65.4 370.1, 65.4C370, 65.4 369.9, 65.4 369.8, 65.4L369.8, 65.4L369.8, 65.4L369.3, 65.5L369.3, 65.5C369.1, 65.5 369, 65.6 368.8, 65.7L368.8, 65.7L368.4, 66L368.4, 66L368.4, 66C368.3, 66.1 368.2, 66.2 368.2, 66.2C368.2, 66.2 368.1, 66.3 368, 66.4L368, 66.4C368, 66.4 367.8, 66.8 367.8, 66.9L367.8, 66.9L367.8, 66.9L367.8, 66.9C367.8, 67 367.8, 67.1 367.8, 67.2C367.8, 67.3 367.8, 67.4 367.8, 67.5L367.8, 67.5L367.8, 67.6L367.8, 67.6C367.8, 67.8 367.8, 68 367.9, 68.2C367.9, 68.2 367.9, 68.2 367.9, 68.3L367.9, 68.4C368, 68.7 368.1, 68.9 368.3, 69.1C368.4, 69.3 368.6, 69.5 368.9, 69.6C369.1, 69.7 369.4, 69.8 369.6, 69.8C369.9, 69.9 370.1, 69.8 370.4, 69.8C370.6, 69.7 370.7, 69.7 370.9, 69.6C371.2, 69.4 371.4, 69.2 371.6, 68.9C371.7, 68.8 371.7, 68.7 371.8, 68.5C371.9, 68.3 372, 68.2 372.1, 67.9C372.1, 67.7 372.1, 67.5 372.2, 67.4C372.2, 67 372.1, 66.7 371.9, 66.4C371.6, 66.2 371.5, 66.1 371.4, 65.9zM381.6, 67.5C379, 67.5 379, 71.5 381.6, 71.5C384.2, 71.5 384.2, 67.5 381.6, 67.5zM304.2, 72.2L304.1, 72.1L304, 72C303.9, 71.9 303.7, 71.8 303.5, 71.7C303.3, 71.6 303.1, 71.6 302.9, 71.6C302.8, 71.6 302.6, 71.6 302.5, 71.7C302.2, 71.8 302, 71.9 301.8, 72.1L301.6, 72.4C301.5, 72.6 301.4, 72.9 301.4, 73.2L301.4, 73.2L301.4, 73.2L301.4, 73.2L301.4, 73.2L301.4, 73.2C301.4, 73.3 301.4, 73.5 301.5, 73.6L301.5, 73.6C301.5, 73.7 301.6, 73.9 301.7, 74L301.7, 74L301.7, 74L301.9, 74.3L301.9, 74.3L301.9, 74.3L301.9, 74.3C302, 74.4 302.1, 74.5 302.2, 74.5L302.2, 74.5L302.2, 74.5L302.2, 74.5C302.3, 74.6 302.4, 74.6 302.6, 74.7L302.6, 74.7L302.6, 74.7C302.7, 74.7 302.9, 74.7 303, 74.8L303, 74.8C303, 74.8 303, 74.8 303.1, 74.8C303.3, 74.8 303.5, 74.8 303.7, 74.7C303.9, 74.6 304, 74.5 304.2, 74.4C304.3, 74.3 304.4, 74.1 304.5, 73.9C304.6, 73.7 304.6, 73.5 304.6, 73.3C304.6, 73.2 304.6, 73 304.5, 72.9C304.5, 72.6 304.4, 72.4 304.2, 72.2zM319.3, 55.8C319.1, 55.6 318.9, 55.5 318.7, 55.4C318.5, 55.3 318.2, 55.2 317.9, 55.2C317.7, 55.2 317.5, 55.2 317.4, 55.3C317.1, 55.4 316.8, 55.6 316.5, 55.8C316.4, 55.9 316.3, 56.1 316.2, 56.2C316, 56.5 315.9, 56.8 315.9, 57.2L315.9, 57.4C315.9, 57.7 315.9, 57.9 316.1, 58.2C316.2, 58.4 316.3, 58.7 316.5, 58.8C316.7, 59 316.9, 59.1 317.1, 59.2C317.3, 59.3 317.6, 59.4 317.9, 59.4C318.1, 59.4 318.3, 59.4 318.4, 59.3C318.7, 59.2 319, 59 319.3, 58.8C319.4, 58.7 319.5, 58.5 319.6, 58.4C319.8, 58.1 319.9, 57.8 319.9, 57.4L319.9, 57.2C319.9, 56.9 319.9, 56.7 319.7, 56.4C319.6, 56.2 319.5, 56 319.3, 55.8zM325.3, 86.8C325.3, 86.8 325.3, 86.7 325.3, 86.8C325.3, 86.7 325.3, 86.7 325.3, 86.8L325.1, 86.3L325.1, 86.3L325.1, 86.3L324.8, 85.9L324.8, 85.9C324.7, 85.8 324.5, 85.7 324.4, 85.6L324.4, 85.6L324.4, 85.6L323.9, 85.4L323.9, 85.4L323.9, 85.4L323.4, 85.3C323.2, 85.3 323, 85.3 322.8, 85.4C322.6, 85.5 322.5, 85.5 322.3, 85.6L322.3, 85.6L322.3, 85.6C322.2, 85.7 322.2, 85.7 322.1, 85.8C322, 85.9 322, 85.9 321.9, 86L321.9, 86L321.9, 86L321.9, 86L321.9, 86C321.8, 86.1 321.7, 86.3 321.6, 86.4L321.6, 86.4C321.5, 86.6 321.4, 86.9 321.4, 87.1C321.3, 87.4 321.4, 87.6 321.4, 87.9C321.5, 88.2 321.6, 88.4 321.8, 88.6C321.9, 88.8 322.1, 89 322.4, 89.1L322.9, 89.3C323.1, 89.4 323.3, 89.4 323.5, 89.4L323.6, 89.4C323.8, 89.4 324, 89.4 324.1, 89.3C324.4, 89.2 324.7, 89 325, 88.8C325.1, 88.7 325.2, 88.5 325.3, 88.4C325.5, 88.1 325.6, 87.8 325.6, 87.4C325.4, 87.2 325.4, 87 325.3, 86.8L325.3, 86.8z" class="st5" tag="st50" />
    <path d="M456.9, 28.9C456.9, 29.1 456.8, 29.3 456.6, 29.4C456.5, 29.6 456.4, 29.7 456.2, 29.8C456.2, 29.8 456.1, 29.8 456.1, 29.9C456.1, 29.9 456.1, 29.9 456, 29.9C455.9, 30 455.7, 30 455.6, 30.1L455.5, 30.1C455.4, 30.1 455.3, 30.1 455.3, 30.1C455.2, 30.1 455.1, 30.1 455.1, 30.1C454.8, 30.1 454.5, 30 454.2, 29.9C454.1, 29.8 453.9, 29.7 453.8, 29.6L453.8, 29.6L453.6, 29.3L453.6, 29.3L453.6, 29.3C453.5, 29.1 453.4, 28.8 453.4, 28.5C453.4, 28.4 453.4, 28.2 453.5, 28.1C453.6, 27.8 453.7, 27.6 453.9, 27.4C454, 27.3 454.1, 27.2 454.2, 27.2C454.4, 27.1 454.6, 27 454.8, 27C455, 27 455.2, 27 455.3, 27C455.4, 27 455.5, 27 455.6, 27C455.7, 27 455.9, 27 456, 27.1C456.3, 27.2 456.5, 27.3 456.7, 27.5C456.8, 27.6 456.9, 27.7 456.9, 27.8C457, 28 457.1, 28.2 457.1, 28.4C457, 28.5 457, 28.7 456.9, 28.9zM491.9, 44.1C491.8, 43.8 491.7, 43.6 491.5, 43.4L491.2, 43.2C491, 43.1 490.7, 43 490.4, 43L490.1, 43C489.9, 43 489.7, 43 489.5, 43.1C489.3, 43.2 489.2, 43.3 489, 43.4C488.9, 43.5 488.8, 43.7 488.7, 43.9C488.6, 44.1 488.6, 44.3 488.6, 44.5C488.6, 44.6 488.6, 44.8 488.7, 44.9C488.8, 45.2 488.9, 45.4 489.1, 45.6L489.4, 45.8C489.6, 45.9 489.9, 46 490.2, 46L490.5, 46C490.7, 46 490.9, 46 491.1, 45.9C491.3, 45.8 491.4, 45.7 491.6, 45.6C491.7, 45.5 491.8, 45.3 491.9, 45.1C492, 44.9 492, 44.7 492, 44.5C492, 44.4 492, 44.2 491.9, 44.1zM512.6, 29C510.7, 29 510.7, 32 512.6, 32C514.5, 32 514.5, 29 512.6, 29zM453.3, 51.1C453.2, 50.8 453.1, 50.6 452.9, 50.4L452.6, 50.2C452.4, 50.1 452.1, 50 451.8, 50L451.5, 50C451.3, 50 451.1, 50 450.9, 50.1C450.7, 50.2 450.6, 50.3 450.4, 50.4C450.3, 50.5 450.2, 50.7 450.1, 50.9C450, 51.1 450, 51.3 450, 51.5C450, 51.6 450, 51.8 450.1, 51.9C450.2, 52.2 450.3, 52.4 450.5, 52.6L450.8, 52.8C451, 52.9 451.3, 53 451.6, 53L451.9, 53C452.1, 53 452.3, 53 452.5, 52.9C452.7, 52.8 452.8, 52.7 453, 52.6C453.1, 52.5 453.2, 52.3 453.3, 52.1C453.4, 51.9 453.4, 51.7 453.4, 51.5C453.3, 51.4 453.3, 51.2 453.3, 51.1zM386.1, 20.4C386, 20.1 385.9, 19.9 385.7, 19.7C385.6, 19.6 385.5, 19.5 385.4, 19.4C385.3, 19.3 385.1, 19.2 384.9, 19.1C384.7, 19 384.5, 19 384.3, 19C384.1, 19 383.9, 19 383.7, 19.1C383.5, 19.2 383.4, 19.3 383.2, 19.4C383.1, 19.5 383, 19.6 383, 19.7C382.9, 19.9 382.8, 20.2 382.8, 20.5C382.8, 20.6 382.8, 20.8 382.9, 20.9C383, 21.2 383.1, 21.4 383.3, 21.6C383.4, 21.7 383.5, 21.8 383.6, 21.9C383.7, 22 383.9, 22.1 384.1, 22.2C384.3, 22.3 384.5, 22.3 384.7, 22.3C384.9, 22.3 385.1, 22.3 385.3, 22.2C385.5, 22.1 385.6, 22 385.8, 21.9C385.9, 21.8 386, 21.7 386, 21.6C386.1, 21.4 386.2, 21.1 386.2, 20.8C386.1, 20.7 386.1, 20.5 386.1, 20.4zM348.9, 47.6C348.8, 47.4 348.7, 47.3 348.6, 47.1C348.5, 47 348.3, 46.9 348.1, 46.8C347.9, 46.7 347.7, 46.7 347.5, 46.7C347.4, 46.7 347.2, 46.7 347.1, 46.8C346.8, 46.9 346.6, 47 346.4, 47.2L346.2, 47.5C346.1, 47.7 346, 48 346, 48.3L346, 48.6C346, 48.8 346, 49 346.1, 49.2C346.2, 49.4 346.3, 49.5 346.4, 49.7C346.5, 49.8 346.7, 49.9 346.9, 50C347.1, 50.1 347.3, 50.1 347.5, 50.1C347.6, 50.1 347.8, 50.1 347.9, 50C348.2, 49.9 348.4, 49.8 348.6, 49.6L348.8, 49.3C348.9, 49.1 349, 48.8 349, 48.5L349, 48.2C349, 48 349, 47.8 348.9, 47.6zM271.6, 78C271.5, 77.8 271.4, 77.7 271.3, 77.5C271.2, 77.4 271, 77.3 270.8, 77.2C270.6, 77.1 270.4, 77.1 270.2, 77.1C270.1, 77.1 269.9, 77.1 269.8, 77.2C269.5, 77.3 269.3, 77.4 269.1, 77.6L268.9, 77.9C268.8, 78.1 268.7, 78.4 268.7, 78.7L268.7, 79C268.7, 79.2 268.7, 79.4 268.8, 79.6C268.9, 79.8 269, 79.9 269.1, 80.1C269.2, 80.2 269.4, 80.3 269.6, 80.4C269.8, 80.5 270, 80.5 270.2, 80.5C270.3, 80.5 270.5, 80.5 270.6, 80.4C270.9, 80.3 271.1, 80.2 271.3, 80C271.4, 79.9 271.5, 79.8 271.5, 79.7C271.6, 79.5 271.7, 79.2 271.7, 78.9L271.7, 78.6C271.8, 78.4 271.7, 78.2 271.6, 78zM255.9, 57.1C255.8, 56.8 255.7, 56.6 255.5, 56.4C255.4, 56.3 255.3, 56.2 255.2, 56.1C255.1, 56 254.9, 55.9 254.7, 55.8C254.5, 55.7 254.3, 55.7 254.1, 55.7C253.9, 55.7 253.7, 55.7 253.5, 55.8C253.3, 55.9 253.2, 56 253, 56.1L252.8, 56.4C252.7, 56.6 252.6, 56.9 252.6, 57.2C252.6, 57.3 252.6, 57.5 252.7, 57.6C252.8, 57.9 252.9, 58.1 253.1, 58.3C253.2, 58.4 253.3, 58.5 253.4, 58.6C253.5, 58.7 253.7, 58.8 253.9, 58.9C254.1, 59 254.3, 59 254.5, 59C254.7, 59 254.9, 59 255.1, 58.9C255.3, 58.8 255.4, 58.7 255.6, 58.6L255.8, 58.3C255.9, 58.1 256, 57.8 256, 57.5C256, 57.4 256, 57.2 255.9, 57.1zM574.1, 47.3C574, 47.1 573.9, 47 573.8, 46.8C573.7, 46.7 573.5, 46.6 573.3, 46.5C573.1, 46.4 572.9, 46.4 572.7, 46.4C572.6, 46.4 572.4, 46.4 572.3, 46.5C572, 46.6 571.8, 46.7 571.6, 46.9C571.5, 47 571.4, 47.1 571.4, 47.2C571.3, 47.4 571.2, 47.7 571.2, 48L571.2, 48.3C571.2, 48.5 571.2, 48.7 571.3, 48.9C571.4, 49.1 571.5, 49.2 571.6, 49.4C571.7, 49.5 571.9, 49.6 572.1, 49.7C572.3, 49.8 572.5, 49.8 572.7, 49.8C572.8, 49.8 573, 49.8 573.1, 49.7C573.4, 49.6 573.6, 49.5 573.8, 49.3L574, 49C574.1, 48.8 574.2, 48.5 574.2, 48.2L574.2, 47.9C574.2, 47.7 574.2, 47.5 574.1, 47.3zM579.6, 29C577.7, 29 577.7, 32 579.6, 32C581.5, 32 581.5, 29 579.6, 29zM500.6, 65C497.4, 65 497.4, 70 500.6, 70C503.8, 70 503.8, 65 500.6, 65zM399.6, 43C396.4, 43 396.4, 48 399.6, 48C402.8, 48 402.8, 43 399.6, 43zM347.6, 76C344.4, 76 344.4, 81 347.6, 81C350.8, 81 350.8, 76 347.6, 76zM267.9, 30.5C264.7, 30.5 264.7, 35.5 267.9, 35.5C271.2, 35.5 271.2, 30.5 267.9, 30.5zM230.6, 73.5L230.4, 73.5C227.2, 73.5 227.2, 78.5 230.4, 78.5L230.6, 78.5C233.8, 78.5 233.8, 73.5 230.6, 73.5zM617.3, 63.9C614.1, 63.9 614.1, 68.9 617.3, 68.9C620.5, 68.9 620.5, 63.9 617.3, 63.9zM616.6, 46C613.4, 46 613.4, 51 616.6, 51C619.8, 51 619.8, 46 616.6, 46zM470.5, 78.4C470.3, 77.6 469.9, 77 469.3, 76.4C469.2, 76.3 469.1, 76.2 469, 76.1C468.6, 75.7 468.1, 75.4 467.6, 75.2C467.1, 74.9 466.5, 74.8 465.9, 74.8C465.3, 74.8 464.7, 74.9 464.2, 75.2C463.6, 75.4 463.2, 75.7 462.8, 76.1C462.6, 76.4 462.3, 76.7 462.1, 77C461.7, 77.7 461.5, 78.5 461.5, 79.3C461.6, 79.7 461.6, 80.1 461.7, 80.5C461.9, 81.3 462.3, 81.9 462.9, 82.5L463.2, 82.8C463.6, 83.2 464.1, 83.5 464.6, 83.7C465.1, 84 465.7, 84.1 466.3, 84.1C466.9, 84.1 467.5, 84 468, 83.7C468.6, 83.5 469, 83.2 469.4, 82.8L470.1, 81.9C470.5, 81.2 470.7, 80.4 470.7, 79.6C470.6, 79.2 470.5, 78.8 470.5, 78.4zM563.4, 21.6C563.2, 21.1 563, 20.7 562.6, 20.4C562.3, 20 561.8, 19.8 561.4, 19.6C560.9, 19.4 560.4, 19.2 559.9, 19.3C559.6, 19.3 559.2, 19.4 558.9, 19.4C558.2, 19.6 557.7, 19.9 557.2, 20.4L556.6, 21.2C556.3, 21.8 556.1, 22.4 556.1, 23.1L556.1, 23.4C556.1, 23.9 556.2, 24.4 556.4, 24.9C556.6, 25.4 556.8, 25.8 557.2, 26.1C557.5, 26.5 558, 26.7 558.4, 26.9C558.9, 27.1 559.4, 27.3 559.9, 27.2C560.2, 27.2 560.6, 27.1 560.9, 27.1C561.6, 26.9 562.1, 26.6 562.6, 26.1C562.8, 25.8 563, 25.6 563.2, 25.3C563.5, 24.7 563.7, 24.1 563.7, 23.4L563.7, 23.1C563.7, 22.6 563.6, 22.1 563.4, 21.6zM328.9, 30.1C325.1, 30.1 325.1, 36 328.9, 36C332.7, 36 332.7, 30.1 328.9, 30.1zM285.6, 61.8C285.4, 61.2 285.1, 60.8 284.7, 60.4C284.3, 60 283.8, 59.7 283.3, 59.5C282.8, 59.2 282.2, 59.1 281.6, 59.1L280.4, 59.3C279.6, 59.5 279, 59.9 278.4, 60.5L277.7, 61.4C277.3, 62.1 277.1, 62.9 277.1, 63.7L277.1, 64C277.1, 64.6 277.2, 65.2 277.5, 65.7C277.7, 66.3 278, 66.7 278.4, 67.1C278.8, 67.5 279.3, 67.8 279.8, 68C280.3, 68.3 280.9, 68.4 281.5, 68.4C281.9, 68.3 282.3, 68.3 282.7, 68.2C283.5, 68 284.1, 67.6 284.7, 67C284.9, 66.7 285.2, 66.4 285.4, 66.1C285.8, 65.4 286, 64.6 286, 63.8L286, 63.5C286, 62.9 285.9, 62.3 285.6, 61.8zM647.2, 72.6C647, 72 646.7, 71.6 646.3, 71.2C645.9, 70.8 645.4, 70.5 644.9, 70.3C644.4, 70 643.8, 69.9 643.2, 69.9C642.8, 70 642.4, 70 642, 70.1C641.2, 70.3 640.6, 70.7 640, 71.3C639.8, 71.6 639.5, 71.9 639.3, 72.2C638.9, 72.9 638.7, 73.7 638.7, 74.5L638.7, 75C638.7, 75.6 638.8, 76.2 639.1, 76.7C639.3, 77.3 639.6, 77.7 640, 78.1C640.4, 78.5 640.9, 78.8 641.4, 79C641.9, 79.3 642.5, 79.4 643.1, 79.4C643.5, 79.3 643.9, 79.3 644.3, 79.2C645.1, 79 645.7, 78.6 646.3, 78L647, 77.1C647.4, 76.4 647.6, 75.6 647.6, 74.8L647.6, 74.1C647.6, 73.7 647.5, 73.1 647.2, 72.6z" class="st4" tag="st41" />
    <path d="M704, 102C676, 102 668, 94 640, 94C612, 94 604, 102 576, 102C548, 102 540, 94 512, 94C484, 94 476, 102 448, 102C420, 102 412, 94 384, 94C356, 94 348, 102 320, 102C292, 102 284, 94 256, 94C228, 94 220, 102 192, 102C164, 102 156, 94 128, 94C100, 94 92, 102 64, 102C36, 102 28, 94 0, 94C0, 99 0, 110 0, 110L128, 110L256, 110L384, 110L512, 110L640, 110L768, 110C768, 110 768, 97 768, 94C740, 94 732, 102 704, 102z" class="st6" tag="st60" />
    <g tag="Element2">
      <path d="M704, 104C676, 104 668, 98 640, 98C612, 98 604, 104 576, 104C548, 104 540, 98 512, 98C484, 98 476, 104 448, 104C420, 104 412, 98 384, 98C356, 98 348, 104 320, 104C292, 104 284, 98 256, 98C228, 98 220, 104 192, 104C164, 104 156, 98 128, 98C100, 98 92, 104 64, 104C36, 104 28, 98 0, 98C0, 101.8 0, 110 0, 110L128, 110L256, 110L384, 110L512, 110L640, 110L768, 110C768, 110 768, 100.2 768, 98C740, 98 732, 104 704, 104z" class="st4" tag="st42" />
    </g>
    <path d="M382.3, 41.5C382.3, 41.3 382.3, 41.2 382.2, 41C382.8, 40.6 383.5, 40.3 384.1, 39.9C384.3, 39.8 384.2, 39.4 384, 39.3C383.6, 39.1 383.1, 39.1 382.6, 39.1C382.3, 39.1 382.1, 39.1 381.8, 39.1C381.8, 39 381.7, 38.9 381.7, 38.8C381.6, 38.6 381.6, 38.3 381.6, 38.1C381.5, 37.8 381.5, 37.4 381.3, 37.1C381.1, 36.9 380.8, 36.9 380.7, 37.2C380.5, 37.7 380.3, 38.2 380.1, 38.6C380.1, 38.7 380, 38.8 380, 38.9C379.8, 38.9 379.7, 38.9 379.5, 38.8C379, 38.7 378.4, 38.7 377.9, 38.6C377.6, 38.5 377.4, 39 377.7, 39.2C378.2, 39.5 378.7, 40 379.1, 40.5C379, 40.8 378.9, 41.1 378.9, 41.3C378.7, 42 378.4, 42.6 378.3, 43.3C378.3, 43.6 378.6, 43.8 378.8, 43.6C379.1, 43.4 379.4, 43.1 379.7, 42.8C380, 42.6 380.3, 42.4 380.5, 42.2C380.7, 42.6 381, 42.9 381.3, 43.1L381.4, 43.2C381.6, 43.4 381.9, 44 382.3, 43.7C382.6, 43.5 382.5, 43 382.4, 42.6C382.4, 42.5 382.4, 42.4 382.4, 42.4C382.4, 42.1 382.4, 41.8 382.3, 41.5z" class="st5" tag="st51" />
  </g>
</svg>