<?xml version='1.0' encoding='UTF-8'?>
<svg x="0px" y="0px" viewBox="0 0 768 100" version="1.1" xmlns="http://www.w3.org/2000/svg" xmlns:xlink="http://www.w3.org/1999/xlink" xml:space="preserve" id="Layer_1" style="enable-background:new 0 0 768 100" tag="Element4">
  <style type="text/css" tag="Element1">
	.st0{fill:#80B4C1;}
	.st1{fill:#6D3308;}
	.st2{fill:#4D8E6E;}
	.st3{fill:#F98115;}
	.st4{fill:#FFFFFF;}
	.st5{fill:#FFCC4D;}
	.st6{fill:#A4D7E0;}
</style>
  <g tag="Element3">
    <rect x="0" y="-40" width="768" height="140" rx="0" ry="0" class="st0" tag="st00" />
    <path d="M595, 65.6C595, 65.6 592, 66.6 592, 65.6C592, 64.6 591, 52.6 591, 52.6L594, 51.6L595, 65.6zM379, 46C379, 46 379, 64 378, 65C377, 66 383, 65 383, 65L382, 45L379, 46zM422, 64L427, 63C427, 63 429, 48 429, 46L425, 46L422, 64zM310, 49L311, 67L315, 67L314, 50L310, 49zM533, 62L537, 61L537, 45L534, 45L533, 62z" class="st1" tag="st10" />
    <path d="M583, 56.6L587, 39.6L582, 40.6L587, 28.6C587, 28.6 583, 29.6 584, 28.6C585, 27.6 592, 17.6 592, 17.6L598, 29.6L593, 28.6L600, 40.6L595, 40.6L604, 55.6L583, 56.6zM391, 33L381, 17L387, 18L381, 4L370, 17L375, 17L367, 32L371, 32L365, 49L394, 48L386, 32L391, 33zM441, 33L434, 17L440, 18L431, 1L437, 1L427, -15L418, 2L423, 1L416, 17L420, 16L413, 32L418, 32L411, 50L444, 50L435, 33L441, 33zM326, 40L317, 23L322, 23L314, 9L320, 10L312, -6L303, 9L308, 9L301, 24L306, 23L301, 39L305, 39L297, 54L329, 55L319, 40L326, 40zM554, 33L543, 18L552, 18L541, 1L548, 1L533, -17L524, 1L529, 1L520, 17L525, 17L516, 34L522, 34L512, 49L556, 50L546, 34L554, 33z" class="st2" tag="st20" />
    <path d="M597.3, 55.2C595.4, 55.2 595.4, 52.2 597.3, 52.2C599.3, 52.2 599.3, 55.2 597.3, 55.2zM544.6, 9.3C542.7, 9.3 542.7, 12.3 544.6, 12.3C546.5, 12.3 546.5, 9.3 544.6, 9.3zM534.5, 23.6C532.6, 23.6 532.6, 26.6 534.5, 26.6C536.4, 26.6 536.4, 23.6 534.5, 23.6zM529.7, -8C529.6, -8.1 529.4, -8.2 529.3, -8.3C529.2, -8.4 529.1, -8.4 528.9, -8.5C528.7, -8.6 528.6, -8.7 528.3, -8.8C528, -8.9 527.8, -8.9 527.5, -8.8C527.2, -8.8 527, -8.7 526.8, -8.6C526.7, -8.5 526.5, -8.4 526.4, -8.3C526.2, -8 526, -7.7 526, -7.3C526, -7.1 526, -6.9 525.9, -6.8C525.9, -6.4 526, -6.1 526.2, -5.8C526.3, -5.7 526.4, -5.5 526.5, -5.4L526.5, -5.4L526.5, -5.4L526.5, -5.4L526.5, -5.4C526.6, -5.3 526.8, -5.2 526.9, -5.1L526.9, -5.1C526.9, -5.1 526.9, -5.1 527, -5.1C527.2, -5 527.3, -4.9 527.5, -4.9C527.5, -4.9 527.5, -4.9 527.6, -4.9L527.6, -4.9C527.7, -4.9 527.8, -4.9 527.9, -4.9C528, -4.9 528.1, -4.9 528.2, -4.9C528.2, -4.9 528.2, -4.9 528.3, -4.9C528.6, -4.9 528.8, -4.9 529.1, -5.1C529.3, -5.2 529.6, -5.3 529.7, -5.5C529.9, -5.7 530, -5.9 530.1, -6.1C530.2, -6.3 530.3, -6.6 530.3, -6.9C530.3, -7.1 530.3, -7.3 530.2, -7.4C530.2, -7.4 530, -7.7 529.7, -8zM432.8, 8.4L432.5, 8.2C432.2, 8.1 432, 8 431.7, 8L431.5, 8C431.3, 8 431.1, 8 430.9, 8.1C430.7, 8.2 430.6, 8.3 430.4, 8.4C430.3, 8.5 430.2, 8.7 430.1, 8.9C430, 9.1 430, 9.3 430, 9.5C430, 9.6 430, 9.8 430.1, 9.9C430.2, 10.2 430.3, 10.4 430.5, 10.6L430.8, 10.8C431, 10.9 431.3, 11 431.6, 11L431.8, 11C432, 11 432.2, 11 432.4, 10.9C432.6, 10.8 432.7, 10.7 432.9, 10.6C433, 10.5 433.1, 10.3 433.2, 10.1C433.3, 9.9 433.3, 9.7 433.3, 9.5C433.3, 9.4 433.3, 9.2 433.2, 9.1C433.1, 8.9 432.9, 8.6 432.8, 8.4zM425.7, 18.6C425.6, 18.5 425.4, 18.4 425.2, 18.3C425, 18.2 424.8, 18.2 424.6, 18.2C424.5, 18.2 424.3, 18.2 424.2, 18.3C423.9, 18.4 423.7, 18.5 423.5, 18.7C423.4, 18.8 423.3, 18.9 423.3, 19C423.2, 19.2 423.1, 19.5 423.1, 19.8L423.1, 20C423.1, 20.2 423.1, 20.4 423.2, 20.6C423.3, 20.8 423.4, 20.9 423.5, 21.1C423.6, 21.2 423.8, 21.3 424, 21.4C424.2, 21.5 424.4, 21.5 424.6, 21.5C424.7, 21.5 424.9, 21.5 425, 21.4C425.3, 21.3 425.5, 21.2 425.7, 21C425.8, 20.9 425.9, 20.8 425.9, 20.7C426, 20.5 426.1, 20.2 426.1, 19.9L426.1, 19.7C426.1, 19.5 426.1, 19.3 426, 19.1C426, 18.9 425.9, 18.7 425.7, 18.6zM438.8, 22.4C438.6, 22.2 438.4, 22.1 438.2, 22C438, 21.9 437.7, 21.8 437.4, 21.8C437.2, 21.8 437, 21.8 436.9, 21.9C436.6, 22 436.3, 22.2 436, 22.4C435.9, 22.5 435.8, 22.7 435.7, 22.8C435.5, 23.1 435.4, 23.4 435.4, 23.8L435.4, 24C435.4, 24.3 435.4, 24.5 435.6, 24.8C435.7, 25 435.8, 25.3 436, 25.4C436.2, 25.6 436.4, 25.7 436.6, 25.8C436.8, 25.9 437.1, 26 437.4, 26C437.6, 26 437.8, 26 437.9, 25.9C438.2, 25.8 438.5, 25.6 438.8, 25.4C438.9, 25.3 439, 25.1 439.1, 25C439.3, 24.7 439.4, 24.4 439.4, 24L439.4, 23.8C439.4, 23.5 439.4, 23.3 439.2, 23C439.2, 22.8 439, 22.6 438.8, 22.4zM373.9, 20.1L373.7, 19.9C373.6, 19.8 373.4, 19.7 373.2, 19.6C373, 19.5 372.8, 19.5 372.6, 19.5C372.4, 19.5 372.2, 19.5 372, 19.6C371.8, 19.7 371.7, 19.8 371.5, 19.9C371.4, 20 371.3, 20.1 371.3, 20.2C371.2, 20.4 371.1, 20.7 371.1, 21C371.1, 21.1 371.1, 21.3 371.2, 21.4C371.3, 21.7 371.4, 21.9 371.6, 22.1L371.8, 22.3C371.9, 22.4 372.1, 22.5 372.3, 22.6C372.5, 22.7 372.7, 22.7 372.9, 22.7C373.1, 22.7 373.3, 22.7 373.5, 22.6C373.7, 22.5 373.8, 22.4 374, 22.3C374.1, 22.2 374.2, 22.1 374.2, 22C374.3, 21.8 374.4, 21.5 374.4, 21.2C374.4, 21.1 374.4, 20.9 374.3, 20.8C374.2, 20.5 374.1, 20.3 373.9, 20.1zM392.9, 38.5C392.8, 38.4 392.6, 38.3 392.5, 38.2C392.2, 38 391.9, 37.9 391.5, 37.9C391.3, 37.9 391.1, 37.9 391, 38C390.7, 38.1 390.4, 38.3 390.1, 38.5L389.7, 38.9C389.5, 39.1 389.4, 39.3 389.3, 39.5C389.2, 39.7 389.1, 40 389.1, 40.3C389.1, 40.6 389.1, 40.8 389.3, 41.1C389.4, 41.3 389.5, 41.6 389.7, 41.7C389.8, 41.8 390, 41.9 390.1, 42C390.4, 42.2 390.7, 42.3 391.1, 42.3C391.3, 42.3 391.5, 42.3 391.6, 42.2C391.9, 42.1 392.2, 41.9 392.5, 41.7L392.9, 41.3C393.1, 41.1 393.2, 40.9 393.3, 40.7C393.4, 40.5 393.5, 40.2 393.5, 39.9C393.5, 39.6 393.5, 39.4 393.3, 39.1C393.3, 38.9 393.1, 38.7 392.9, 38.5zM314.1, 11.7L313.8, 11.5C313.6, 11.4 313.3, 11.3 313, 11.3L312.6, 11.3C312.4, 11.3 312.2, 11.3 312, 11.4C311.8, 11.5 311.7, 11.6 311.5, 11.7C311.4, 11.8 311.3, 12 311.2, 12.2C311.1, 12.4 311.1, 12.6 311.1, 12.8C311.1, 12.9 311.1, 13.1 311.2, 13.2C311.3, 13.5 311.4, 13.7 311.6, 13.9C311.7, 14 311.8, 14.1 311.9, 14.1C312.1, 14.2 312.4, 14.3 312.7, 14.3L313.1, 14.3C313.3, 14.3 313.5, 14.3 313.7, 14.2C313.9, 14.1 314, 14 314.2, 13.9C314.3, 13.8 314.4, 13.6 314.5, 13.4C314.6, 13.2 314.6, 13 314.6, 12.8C314.6, 12.7 314.6, 12.5 314.5, 12.4C314.4, 12.2 314.3, 11.9 314.1, 11.7zM316.6, 29.8C314.7, 29.8 314.7, 32.8 316.6, 32.8C318.5, 32.8 318.5, 29.8 316.6, 29.8zM305.9, 15.6C305.8, 15.5 305.6, 15.4 305.5, 15.3C305.2, 15.1 304.9, 15 304.5, 15L304.3, 15C304, 15 303.8, 15 303.5, 15.2C303.3, 15.3 303, 15.4 302.9, 15.6C302.7, 15.8 302.6, 16 302.5, 16.2C302.4, 16.4 302.3, 16.7 302.3, 17C302.3, 17.2 302.3, 17.4 302.4, 17.5C302.5, 17.8 302.7, 18.1 302.9, 18.4C303, 18.5 303.2, 18.6 303.3, 18.7C303.6, 18.9 303.9, 19 304.3, 19L304.5, 19C304.8, 19 305, 19 305.3, 18.8C305.5, 18.7 305.8, 18.6 305.9, 18.4C306.1, 18.2 306.2, 18 306.3, 17.8C306.4, 17.6 306.5, 17.3 306.5, 17C306.5, 16.8 306.5, 16.6 306.4, 16.5C306.3, 16.1 306.1, 15.8 305.9, 15.6z" class="st3" tag="st30" />
    <path d="M587.4, 54.3C585.5, 54.3 585.5, 51.3 587.4, 51.3C589.4, 51.3 589.4, 54.3 587.4, 54.3zM531.6, 6C531.5, 5.9 531.3, 5.8 531.1, 5.7C530.9, 5.6 530.7, 5.6 530.5, 5.6C530.4, 5.6 530.2, 5.6 530.1, 5.7C529.8, 5.8 529.6, 5.9 529.4, 6.1L529.2, 6.4C529.1, 6.6 529, 6.9 529, 7.2L529, 7.4C529, 7.6 529, 7.8 529.1, 8C529.2, 8.2 529.3, 8.3 529.4, 8.5C529.5, 8.6 529.7, 8.7 529.9, 8.8C530.1, 8.9 530.3, 8.9 530.5, 8.9C530.6, 8.9 530.8, 8.9 530.9, 8.8C531.2, 8.7 531.4, 8.6 531.6, 8.4L531.8, 8.1C531.9, 7.9 532, 7.6 532, 7.3L532, 7.1C532, 6.9 532, 6.7 531.9, 6.5C531.8, 6.3 531.7, 6.2 531.6, 6zM544.2, 20.5C541.6, 20.5 541.6, 24.5 544.2, 24.5C546.7, 24.5 546.8, 20.5 544.2, 20.5zM521.6, 37.8C521.5, 37.7 521.3, 37.6 521.2, 37.5C520.9, 37.3 520.6, 37.2 520.2, 37.2L520.2, 37.2L520.2, 37.2L520.2, 37.2L520.2, 37.2L520.2, 37.2C520, 37.2 519.8, 37.2 519.7, 37.3L519.7, 37.3C519.5, 37.4 519.4, 37.4 519.2, 37.5L519.2, 37.5L519.2, 37.5L518.8, 37.8L518.8, 37.8L518.8, 37.8L518.8, 37.8C518.7, 37.9 518.6, 38.1 518.5, 38.2L518.5, 38.2L518.5, 38.2L518.5, 38.2L518.3, 38.7L518.3, 38.7L518.3, 38.7C518.3, 38.9 518.2, 39.1 518.2, 39.3L518.2, 39.3C518.2, 39.3 518.2, 39.3 518.2, 39.4C518.2, 39.7 518.2, 39.9 518.4, 40.2C518.5, 40.4 518.6, 40.7 518.8, 40.8C519, 41 519.2, 41.1 519.4, 41.2C519.6, 41.3 519.9, 41.4 520.2, 41.4C520.4, 41.4 520.6, 41.4 520.7, 41.3C521, 41.2 521.3, 41 521.6, 40.8L521.7, 40.7L521.8, 40.6C522, 40.4 522.1, 40.2 522.2, 40C522.3, 39.8 522.4, 39.5 522.4, 39.2C522.4, 39 522.4, 38.8 522.3, 38.7C522, 38.4 521.8, 38.1 521.6, 37.8zM420.2, 42.7L420.2, 42.7L420.2, 42.7C420.2, 42.6 420.2, 42.4 420.1, 42.3L420.1, 42.3C420.1, 42.2 420, 42 419.9, 41.9L419.9, 41.9L419.9, 41.9L419.7, 41.6L419.7, 41.6L419.7, 41.6L419.7, 41.6C419.6, 41.5 419.5, 41.4 419.4, 41.4L419.4, 41.4L419.4, 41.4L419.4, 41.4C419.3, 41.3 419.2, 41.3 419, 41.2L419, 41.2L419, 41.2C418.9, 41.2 418.7, 41.2 418.6, 41.1L418.6, 41.1C418.6, 41.1 418.6, 41.1 418.5, 41.1C418.3, 41.1 418.1, 41.1 417.9, 41.2C417.7, 41.3 417.6, 41.4 417.4, 41.5C417.3, 41.6 417.2, 41.8 417.1, 42C417, 42.2 417, 42.4 417, 42.6C417, 42.7 417, 42.9 417.1, 43C417.2, 43.3 417.3, 43.5 417.5, 43.7L417.6, 43.8L417.7, 43.9C417.8, 44 418, 44.1 418.2, 44.2C418.4, 44.3 418.6, 44.3 418.8, 44.3C418.9, 44.3 419.1, 44.3 419.2, 44.2C419.5, 44.1 419.7, 44 419.9, 43.8C420, 43.7 420.1, 43.6 420.1, 43.5C420.1, 43.3 420.2, 43 420.2, 42.7L420.2, 42.7L420.2, 42.7L420.2, 42.7zM426.6, -5.4C426.5, -5.5 426.4, -5.6 426.3, -5.6C426.1, -5.7 425.8, -5.8 425.5, -5.8L425.3, -5.8C425.1, -5.8 424.9, -5.8 424.7, -5.7C424.5, -5.6 424.4, -5.5 424.2, -5.4C424.1, -5.3 424, -5.1 423.9, -4.9C423.8, -4.7 423.8, -4.5 423.8, -4.3C423.8, -4.2 423.8, -4 423.9, -3.9C424, -3.6 424.1, -3.4 424.3, -3.2L424.6, -3C424.8, -2.9 425.1, -2.8 425.4, -2.8L425.6, -2.8C425.8, -2.8 426, -2.8 426.2, -2.9C426.4, -3 426.5, -3.1 426.7, -3.2C426.8, -3.3 426.9, -3.5 427, -3.7C427, -4 427, -4.2 427, -4.4C427, -4.5 427, -4.7 426.9, -4.8C426.9, -5 426.8, -5.2 426.6, -5.4zM383.6, 9.8C383.5, 9.7 383.5, 9.7 383.4, 9.6C383.3, 9.5 383.1, 9.4 382.9, 9.3C382.7, 9.2 382.5, 9.2 382.3, 9.2C382.1, 9.2 381.9, 9.2 381.7, 9.3C381.5, 9.4 381.4, 9.5 381.2, 9.6C381.1, 9.7 381, 9.8 381, 9.9C380.9, 10.1 380.8, 10.4 380.8, 10.7C380.8, 10.8 380.8, 11 380.9, 11.1C381, 11.4 381.1, 11.6 381.3, 11.8C381.4, 11.9 381.4, 11.9 381.5, 12C381.6, 12.1 381.8, 12.2 382, 12.3C382.2, 12.4 382.4, 12.4 382.6, 12.4C382.8, 12.4 383, 12.4 383.2, 12.3C383.4, 12.2 383.5, 12.1 383.7, 12C383.8, 11.9 383.9, 11.8 383.9, 11.7C384, 11.5 384.1, 11.2 384.1, 10.9C384.1, 10.8 384.1, 10.6 384, 10.5C383.9, 10.2 383.8, 10 383.6, 9.8zM368.2, 41.2C365.6, 41.2 365.6, 45.2 368.2, 45.2C370.8, 45.2 370.8, 41.2 368.2, 41.2zM312.2, 35.2C309.6, 35.2 309.6, 39.2 312.2, 39.2C314.7, 39.2 314.8, 35.2 312.2, 35.2zM309, 43.1C308.9, 43 308.7, 42.9 308.6, 42.8C308.3, 42.6 308, 42.5 307.6, 42.5C307.4, 42.5 307.2, 42.5 307.1, 42.6C306.8, 42.7 306.5, 42.9 306.2, 43.1L306, 43.3C305.8, 43.5 305.7, 43.7 305.6, 43.9C305.5, 44.1 305.4, 44.4 305.4, 44.7C305.4, 45 305.4, 45.2 305.6, 45.5C305.7, 45.7 305.8, 46 306, 46.1C306.1, 46.2 306.3, 46.3 306.4, 46.4C306.7, 46.6 307, 46.7 307.4, 46.7C307.6, 46.7 307.8, 46.7 307.9, 46.6C308.2, 46.5 308.5, 46.3 308.8, 46.1L309, 45.9C309.2, 45.7 309.3, 45.5 309.4, 45.3C309.5, 45.1 309.6, 44.8 309.6, 44.5C309.6, 44.2 309.6, 44 309.4, 43.7C309.3, 43.5 309.2, 43.3 309, 43.1z" class="st4" tag="st40" />
    <path d="M592.9, 39.8C592.9, 40 592.9, 40.2 592.8, 40.4C592.7, 40.6 592.6, 40.7 592.5, 40.9C592.4, 41 592.2, 41.1 592, 41.2C591.8, 41.3 591.6, 41.3 591.4, 41.3L591.2, 41.3C590.9, 41.3 590.7, 41.2 590.4, 41.1C590.3, 41 590.2, 40.9 590.1, 40.9C589.9, 40.7 589.8, 40.5 589.7, 40.2C589.7, 40.1 589.7, 39.9 589.6, 39.8C589.6, 39.6 589.6, 39.4 589.7, 39.2C589.8, 39 589.9, 38.9 590, 38.7C590.1, 38.6 590.3, 38.5 590.5, 38.4C590.7, 38.3 590.9, 38.3 591.1, 38.3L591.3, 38.3C591.6, 38.3 591.8, 38.4 592.1, 38.5L592.4, 38.7C592.6, 38.9 592.7, 39.1 592.8, 39.4C592.9, 39.5 592.9, 39.7 592.9, 39.8zM588.5, 32.6C586.6, 32.6 586.6, 35.6 588.5, 35.6C590.5, 35.6 590.5, 32.6 588.5, 32.6zM529.9, 19.9C528, 19.9 528, 22.9 529.9, 22.9C531.8, 22.9 531.8, 19.9 529.9, 19.9zM543.9, 40.8L543.6, 40.6C543.4, 40.5 543.1, 40.4 542.8, 40.4L542.6, 40.4C542.4, 40.4 542.2, 40.4 542, 40.5C541.8, 40.6 541.7, 40.7 541.5, 40.8C541.4, 40.9 541.3, 41.1 541.2, 41.3C541.1, 41.5 541.1, 41.7 541.1, 41.9C541.1, 42 541.1, 42.2 541.2, 42.3C541.3, 42.6 541.4, 42.8 541.6, 43L541.9, 43.2C542.1, 43.3 542.4, 43.4 542.7, 43.4L542.9, 43.4C543.1, 43.4 543.3, 43.4 543.5, 43.3C543.7, 43.2 543.8, 43.1 544, 43C544.1, 42.9 544.2, 42.7 544.3, 42.5C544.4, 42.3 544.4, 42.1 544.4, 41.9C544.4, 41.8 544.4, 41.6 544.3, 41.5C544.2, 41.2 544.1, 41 543.9, 40.8zM528.1, 31.9C525.5, 31.9 525.5, 35.9 528.1, 35.9C530.7, 35.9 530.7, 31.9 528.1, 31.9zM538.2, 4.6C535.6, 4.6 535.6, 8.6 538.2, 8.6C540.8, 8.6 540.8, 4.6 538.2, 4.6zM427.3, 23.4C425.4, 23.4 425.4, 26.4 427.3, 26.4C429.2, 26.4 429.2, 23.4 427.3, 23.4zM422.5, 5.9C422.3, 5.7 422.1, 5.6 421.9, 5.5C421.7, 5.4 421.4, 5.3 421.1, 5.3C420.9, 5.3 420.7, 5.3 420.6, 5.4C420.3, 5.5 420, 5.7 419.7, 5.9C419.6, 6 419.5, 6.2 419.4, 6.3C419.2, 6.6 419.1, 6.9 419.1, 7.3L419.1, 7.5C419.1, 7.8 419.1, 8 419.3, 8.3C419.4, 8.5 419.5, 8.8 419.7, 8.9C419.9, 9.1 420.1, 9.2 420.3, 9.3C420.5, 9.4 420.8, 9.5 421.1, 9.5C421.3, 9.5 421.5, 9.5 421.6, 9.4C421.9, 9.3 422.2, 9.1 422.5, 8.9C422.6, 8.8 422.7, 8.6 422.8, 8.5C423, 8.2 423.1, 7.9 423.1, 7.5L423.1, 7.3C423.1, 7 423.1, 6.8 422.9, 6.5C422.9, 6.3 422.7, 6.1 422.5, 5.9zM430.8, 41.2C428.2, 41.2 428.2, 45.2 430.8, 45.2C433.4, 45.2 433.4, 41.2 430.8, 41.2zM415.8, 25.3C413.2, 25.3 413.2, 29.3 415.8, 29.3C418.4, 29.3 418.4, 25.3 415.8, 25.3zM374.8, 38.6C372.9, 38.6 372.9, 41.6 374.8, 41.6C376.7, 41.6 376.7, 38.6 374.8, 38.6zM371.4, 25.9C371.2, 25.7 370.9, 25.5 370.5, 25.4L370.4, 25.4C370.3, 25.4 370.2, 25.4 370.1, 25.4C370, 25.4 369.9, 25.4 369.8, 25.4L369.8, 25.4L369.8, 25.4L369.3, 25.5L369.3, 25.5C369.1, 25.5 369, 25.6 368.8, 25.7L368.8, 25.7L368.4, 26L368.4, 26L368.4, 26C368.3, 26.1 368.2, 26.2 368.2, 26.2C368.2, 26.2 368.1, 26.3 368, 26.4L368, 26.4C368, 26.4 367.8, 26.8 367.8, 26.9L367.8, 26.9L367.8, 26.9L367.8, 26.9C367.8, 27 367.8, 27.1 367.8, 27.2C367.8, 27.3 367.8, 27.4 367.8, 27.5L367.8, 27.5L367.8, 27.6L367.8, 27.6C367.8, 27.8 367.8, 28 367.9, 28.2C367.9, 28.2 367.9, 28.2 367.9, 28.3L367.9, 28.4C368, 28.7 368.1, 28.9 368.3, 29.1C368.4, 29.3 368.6, 29.5 368.9, 29.6C369.1, 29.7 369.4, 29.8 369.6, 29.8C369.9, 29.9 370.1, 29.8 370.4, 29.8C370.6, 29.7 370.7, 29.7 370.9, 29.6C371.2, 29.4 371.4, 29.2 371.6, 28.9C371.7, 28.8 371.7, 28.7 371.8, 28.5C371.9, 28.3 372, 28.2 372.1, 27.9C372.1, 27.7 372.1, 27.5 372.2, 27.4C372.2, 27 372.1, 26.7 371.9, 26.4C371.6, 26.2 371.5, 26.1 371.4, 25.9zM381.6, 27.5C379, 27.5 379, 31.5 381.6, 31.5C384.2, 31.5 384.2, 27.5 381.6, 27.5zM304.2, 32.2L304.1, 32.1L304, 32C303.9, 31.9 303.7, 31.8 303.5, 31.7C303.3, 31.6 303.1, 31.6 302.9, 31.6C302.8, 31.6 302.6, 31.6 302.5, 31.7C302.2, 31.8 302, 31.9 301.8, 32.1L301.6, 32.4C301.5, 32.6 301.4, 32.9 301.4, 33.2L301.4, 33.2L301.4, 33.2L301.4, 33.2L301.4, 33.2L301.4, 33.2C301.4, 33.3 301.4, 33.5 301.5, 33.6L301.5, 33.6C301.5, 33.7 301.6, 33.9 301.7, 34L301.7, 34L301.7, 34L301.9, 34.3L301.9, 34.3L301.9, 34.3L301.9, 34.3C302, 34.4 302.1, 34.5 302.2, 34.5L302.2, 34.5L302.2, 34.5L302.2, 34.5C302.3, 34.6 302.4, 34.6 302.6, 34.7L302.6, 34.7L302.6, 34.7C302.7, 34.7 302.9, 34.7 303, 34.8L303, 34.8C303, 34.8 303, 34.8 303.1, 34.8C303.3, 34.8 303.5, 34.8 303.7, 34.7C303.9, 34.6 304, 34.5 304.2, 34.4C304.3, 34.3 304.4, 34.1 304.5, 33.9C304.6, 33.7 304.6, 33.5 304.6, 33.3C304.6, 33.2 304.6, 33 304.5, 32.9C304.5, 32.6 304.4, 32.4 304.2, 32.2zM319.3, 15.8C319.1, 15.6 318.9, 15.5 318.7, 15.4C318.5, 15.3 318.2, 15.2 317.9, 15.2C317.7, 15.2 317.5, 15.2 317.4, 15.3C317.1, 15.4 316.8, 15.6 316.5, 15.8C316.4, 15.9 316.3, 16.1 316.2, 16.2C316, 16.5 315.9, 16.8 315.9, 17.2L315.9, 17.4C315.9, 17.7 315.9, 17.9 316.1, 18.2C316.2, 18.4 316.3, 18.7 316.5, 18.8C316.7, 19 316.9, 19.1 317.1, 19.2C317.3, 19.3 317.6, 19.4 317.9, 19.4C318.1, 19.4 318.3, 19.4 318.4, 19.3C318.7, 19.2 319, 19 319.3, 18.8C319.4, 18.7 319.5, 18.5 319.6, 18.4C319.8, 18.1 319.9, 17.8 319.9, 17.4L319.9, 17.2C319.9, 16.9 319.9, 16.7 319.7, 16.4C319.6, 16.2 319.5, 16 319.3, 15.8zM325.3, 46.8C325.3, 46.8 325.3, 46.7 325.3, 46.8C325.3, 46.7 325.3, 46.7 325.3, 46.8L325.1, 46.3L325.1, 46.3L325.1, 46.3L324.8, 45.9L324.8, 45.9C324.7, 45.8 324.5, 45.7 324.4, 45.6L324.4, 45.6L324.4, 45.6L323.9, 45.4L323.9, 45.4L323.9, 45.4L323.4, 45.3C323.2, 45.3 323, 45.3 322.8, 45.4C322.6, 45.5 322.5, 45.5 322.3, 45.6L322.3, 45.6L322.3, 45.6C322.2, 45.7 322.2, 45.7 322.1, 45.8C322, 45.9 322, 45.9 321.9, 46L321.9, 46L321.9, 46L321.9, 46L321.9, 46C321.8, 46.1 321.7, 46.3 321.6, 46.4L321.6, 46.4C321.5, 46.6 321.4, 46.9 321.4, 47.1C321.3, 47.4 321.4, 47.6 321.4, 47.9C321.5, 48.2 321.6, 48.4 321.8, 48.6C321.9, 48.8 322.1, 49 322.4, 49.1L322.9, 49.3C323.1, 49.4 323.3, 49.4 323.5, 49.4L323.6, 49.4C323.8, 49.4 324, 49.4 324.1, 49.3C324.4, 49.2 324.7, 49 325, 48.8C325.1, 48.7 325.2, 48.5 325.3, 48.4C325.5, 48.1 325.6, 47.8 325.6, 47.4C325.4, 47.2 325.4, 47 325.3, 46.8L325.3, 46.8z" class="st5" tag="st50" />
    <path d="M456.9, -11.1C456.9, -10.9 456.8, -10.7 456.6, -10.6C456.5, -10.4 456.4, -10.3 456.2, -10.2C456.2, -10.2 456.1, -10.2 456.1, -10.1C456.1, -10.1 456.1, -10.1 456, -10.1C455.9, -10 455.7, -10 455.6, -9.9L455.5, -9.9C455.4, -9.9 455.3, -9.9 455.3, -9.9C455.2, -9.9 455.1, -9.9 455.1, -9.9C454.8, -9.9 454.5, -10 454.2, -10.1C454.1, -10.2 453.9, -10.3 453.8, -10.4L453.8, -10.4L453.6, -10.7L453.6, -10.7L453.6, -10.7C453.5, -10.9 453.4, -11.2 453.4, -11.5C453.4, -11.6 453.4, -11.8 453.5, -11.9C453.6, -12.2 453.7, -12.4 453.9, -12.6C454, -12.7 454.1, -12.8 454.2, -12.8C454.4, -12.9 454.6, -13 454.8, -13C455, -13 455.2, -13 455.3, -13C455.4, -13 455.5, -13 455.6, -13C455.7, -13 455.9, -13 456, -12.9C456.3, -12.8 456.5, -12.7 456.7, -12.5C456.8, -12.4 456.9, -12.3 456.9, -12.2C457, -12 457.1, -11.8 457.1, -11.6C457, -11.5 457, -11.3 456.9, -11.1zM491.9, 4.1C491.8, 3.8 491.7, 3.6 491.5, 3.4L491.2, 3.2C491, 3.1 490.8, 3 490.5, 3L490.2, 3C490, 3 489.8, 3 489.6, 3.1C489.4, 3.2 489.3, 3.3 489.1, 3.4C489, 3.5 488.9, 3.7 488.8, 3.9C488.7, 4.1 488.7, 4.3 488.7, 4.5C488.7, 4.6 488.7, 4.8 488.8, 4.9C488.9, 5.2 489, 5.4 489.2, 5.6L489.5, 5.8C489.7, 5.9 490, 6 490.3, 6L490.6, 6C490.8, 6 491, 6 491.2, 5.9C491.4, 5.8 491.5, 5.7 491.7, 5.6C491.8, 5.5 491.9, 5.3 492, 5.1C492.1, 4.9 492.1, 4.7 492.1, 4.5C492, 4.4 492, 4.2 491.9, 4.1zM512.6, -11C510.7, -11 510.7, -8 512.6, -8C514.5, -8 514.5, -11 512.6, -11zM453.3, 11.1C453.2, 10.8 453.1, 10.6 452.9, 10.4L452.6, 10.2C452.4, 10.1 452.1, 10 451.8, 10L451.5, 10C451.3, 10 451.1, 10 450.9, 10.1C450.7, 10.2 450.6, 10.3 450.4, 10.4C450.3, 10.5 450.2, 10.7 450.1, 10.9C450, 11.1 450, 11.3 450, 11.5C450, 11.6 450, 11.8 450.1, 11.9C450.2, 12.2 450.3, 12.4 450.5, 12.6L450.8, 12.8C451, 12.9 451.3, 13 451.6, 13L451.9, 13C452.1, 13 452.3, 13 452.5, 12.9C452.7, 12.8 452.8, 12.7 453, 12.6C453.1, 12.5 453.2, 12.3 453.3, 12.1C453.4, 11.9 453.4, 11.7 453.4, 11.5C453.3, 11.4 453.3, 11.2 453.3, 11.1zM386.1, -19.6C386, -19.9 385.9, -20.1 385.7, -20.3C385.6, -20.4 385.5, -20.5 385.4, -20.6C385.3, -20.7 385.1, -20.8 384.9, -20.9C384.7, -21 384.5, -21 384.3, -21C384.1, -21 383.9, -21 383.7, -20.9C383.5, -20.8 383.4, -20.7 383.2, -20.6C383.1, -20.5 383, -20.4 383, -20.3C382.9, -20.1 382.8, -19.8 382.8, -19.5C382.8, -19.4 382.8, -19.2 382.9, -19.1C383, -18.8 383.1, -18.6 383.3, -18.4C383.4, -18.3 383.5, -18.2 383.6, -18.1C383.7, -18 383.9, -17.9 384.1, -17.8C384.3, -17.7 384.5, -17.7 384.7, -17.7C384.9, -17.7 385.1, -17.7 385.3, -17.8C385.5, -17.9 385.6, -18 385.8, -18.1C385.9, -18.2 386, -18.3 386, -18.4C386.1, -18.6 386.2, -18.9 386.2, -19.2C386.1, -19.3 386.1, -19.5 386.1, -19.6zM348.9, 7.6C348.8, 7.4 348.7, 7.3 348.6, 7.1C348.5, 7 348.3, 6.9 348.1, 6.8C347.9, 6.7 347.7, 6.7 347.5, 6.7C347.4, 6.7 347.2, 6.7 347.1, 6.8C346.8, 6.9 346.6, 7 346.4, 7.2L346.2, 7.5C346.1, 7.7 346, 8 346, 8.3L346, 8.6C346, 8.8 346, 9 346.1, 9.2C346.2, 9.4 346.3, 9.5 346.4, 9.7C346.5, 9.8 346.7, 9.9 346.9, 10C347.1, 10.1 347.3, 10.1 347.5, 10.1C347.6, 10.1 347.8, 10.1 347.9, 10C348.2, 9.9 348.4, 9.8 348.6, 9.6L348.8, 9.3C348.9, 9.1 349, 8.8 349, 8.5L349, 8.2C349, 8 349, 7.8 348.9, 7.6zM271.6, 38C271.5, 37.8 271.4, 37.7 271.3, 37.5C271.2, 37.4 271, 37.3 270.8, 37.2C270.6, 37.1 270.4, 37.1 270.2, 37.1C270.1, 37.1 269.9, 37.1 269.8, 37.2C269.5, 37.3 269.3, 37.4 269.1, 37.6L268.9, 37.9C268.8, 38.1 268.7, 38.4 268.7, 38.7L268.7, 39C268.7, 39.2 268.7, 39.4 268.8, 39.6C268.9, 39.8 269, 39.9 269.1, 40.1C269.2, 40.2 269.4, 40.3 269.6, 40.4C269.8, 40.5 270, 40.5 270.2, 40.5C270.3, 40.5 270.5, 40.5 270.6, 40.4C270.9, 40.3 271.1, 40.2 271.3, 40C271.4, 39.9 271.5, 39.8 271.5, 39.7C271.6, 39.5 271.7, 39.2 271.7, 38.9L271.7, 38.6C271.8, 38.4 271.7, 38.2 271.6, 38zM255.9, 17.1C255.8, 16.8 255.7, 16.6 255.5, 16.4C255.4, 16.3 255.3, 16.2 255.2, 16.1C255.1, 16 254.9, 15.9 254.7, 15.8C254.5, 15.7 254.3, 15.7 254.1, 15.7C253.9, 15.7 253.7, 15.7 253.5, 15.8C253.3, 15.9 253.2, 16 253, 16.1L252.8, 16.4C252.7, 16.6 252.6, 16.9 252.6, 17.2C252.6, 17.3 252.6, 17.5 252.7, 17.6C252.8, 17.9 252.9, 18.1 253.1, 18.3C253.2, 18.4 253.3, 18.5 253.4, 18.6C253.5, 18.7 253.7, 18.8 253.9, 18.9C254.1, 19 254.3, 19 254.5, 19C254.7, 19 254.9, 19 255.1, 18.9C255.3, 18.8 255.4, 18.7 255.6, 18.6L255.8, 18.3C255.9, 18.1 256, 17.8 256, 17.5C256, 17.4 256, 17.2 255.9, 17.1zM574.1, 7.3C574, 7.1 573.9, 7 573.8, 6.8C573.7, 6.7 573.5, 6.6 573.3, 6.5C573.1, 6.4 572.9, 6.4 572.7, 6.4C572.6, 6.4 572.4, 6.4 572.3, 6.5C572, 6.6 571.8, 6.7 571.6, 6.9C571.5, 7 571.4, 7.1 571.4, 7.2C571.3, 7.4 571.2, 7.7 571.2, 8L571.2, 8.3C571.2, 8.5 571.2, 8.7 571.3, 8.9C571.4, 9.1 571.5, 9.2 571.6, 9.4C571.7, 9.5 571.9, 9.6 572.1, 9.7C572.3, 9.8 572.5, 9.8 572.7, 9.8C572.8, 9.8 573, 9.8 573.1, 9.7C573.4, 9.6 573.6, 9.5 573.8, 9.3L574, 9C574.1, 8.8 574.2, 8.5 574.2, 8.2L574.2, 7.9C574.2, 7.7 574.2, 7.5 574.1, 7.3zM579.6, -11C577.7, -11 577.7, -8 579.6, -8C581.5, -8 581.5, -11 579.6, -11zM500.6, 25C497.4, 25 497.4, 30 500.6, 30C503.8, 30 503.8, 25 500.6, 25zM399.6, 3C396.4, 3 396.4, 8 399.6, 8C402.8, 8 402.8, 3 399.6, 3zM347.6, 36C344.4, 36 344.4, 41 347.6, 41C350.8, 41 350.8, 36 347.6, 36zM267.9, -9.5C264.7, -9.5 264.7, -4.5 267.9, -4.5C271.2, -4.5 271.2, -9.5 267.9, -9.5zM230.6, 33.5L230.4, 33.5C227.2, 33.5 227.2, 38.5 230.4, 38.5L230.6, 38.5C233.8, 38.5 233.8, 33.5 230.6, 33.5zM617.3, 23.9C614.1, 23.9 614.1, 28.9 617.3, 28.9C620.5, 28.9 620.5, 23.9 617.3, 23.9zM616.6, 6C613.4, 6 613.4, 11 616.6, 11C619.8, 11 619.8, 6 616.6, 6zM470.5, 38.4C470.3, 37.6 469.9, 37 469.3, 36.4C469.2, 36.3 469.1, 36.2 469, 36.1C468.6, 35.7 468.1, 35.4 467.6, 35.2C467.1, 34.9 466.5, 34.8 465.9, 34.8C465.3, 34.8 464.7, 34.9 464.2, 35.2C463.6, 35.4 463.2, 35.7 462.8, 36.1C462.6, 36.4 462.3, 36.7 462.1, 37C461.7, 37.7 461.5, 38.5 461.5, 39.3C461.6, 39.7 461.6, 40.1 461.7, 40.5C461.9, 41.3 462.3, 41.9 462.9, 42.5L463.2, 42.8C463.6, 43.2 464.1, 43.5 464.6, 43.7C465.1, 44 465.7, 44.1 466.3, 44.1C466.9, 44.1 467.5, 44 468, 43.7C468.6, 43.5 469, 43.2 469.4, 42.8L470.1, 41.9C470.5, 41.2 470.7, 40.4 470.7, 39.6C470.6, 39.2 470.5, 38.8 470.5, 38.4zM563.4, -18.4C563.2, -18.9 563, -19.3 562.6, -19.6C562.3, -20 561.8, -20.2 561.4, -20.4C560.9, -20.6 560.4, -20.8 559.9, -20.7C559.6, -20.7 559.2, -20.6 558.9, -20.6C558.2, -20.4 557.7, -20.1 557.2, -19.6L556.6, -18.8C556.3, -18.2 556.1, -17.6 556.1, -16.9L556.1, -16.6C556.1, -16.1 556.2, -15.6 556.4, -15.1C556.6, -14.6 556.8, -14.2 557.2, -13.9C557.5, -13.5 558, -13.3 558.4, -13.1C558.9, -12.9 559.4, -12.7 559.9, -12.8C560.2, -12.8 560.6, -12.9 560.9, -12.9C561.6, -13.1 562.1, -13.4 562.6, -13.9C562.8, -14.2 563, -14.4 563.2, -14.7C563.5, -15.3 563.7, -15.9 563.7, -16.6L563.7, -16.9C563.7, -17.4 563.6, -17.9 563.4, -18.4zM328.9, -9.9C325.1, -9.9 325.1, -4 328.9, -4C332.7, -4 332.7, -9.9 328.9, -9.9zM285.6, 21.8C285.4, 21.2 285.1, 20.8 284.7, 20.4C284.3, 20 283.8, 19.7 283.3, 19.5C282.8, 19.2 282.2, 19.1 281.6, 19.1L280.4, 19.3C279.6, 19.5 279, 19.9 278.4, 20.5L277.7, 21.4C277.3, 22.1 277.1, 22.9 277.1, 23.7L277.1, 24C277.1, 24.6 277.2, 25.2 277.5, 25.7C277.7, 26.3 278, 26.7 278.4, 27.1C278.8, 27.5 279.3, 27.8 279.8, 28C280.3, 28.3 280.9, 28.4 281.5, 28.4C281.9, 28.3 282.3, 28.3 282.7, 28.2C283.5, 28 284.1, 27.6 284.7, 27C284.9, 26.7 285.2, 26.4 285.4, 26.1C285.8, 25.4 286, 24.6 286, 23.8L286, 23.5C286, 22.9 285.9, 22.3 285.6, 21.8zM647.2, 32.6C647, 32 646.7, 31.6 646.3, 31.2C645.9, 30.8 645.4, 30.5 644.9, 30.3C644.4, 30 643.8, 29.9 643.2, 29.9C642.8, 30 642.4, 30 642, 30.1C641.2, 30.3 640.6, 30.7 640, 31.3C639.8, 31.6 639.5, 31.9 639.3, 32.2C638.9, 32.9 638.7, 33.7 638.7, 34.5L638.7, 35C638.7, 35.6 638.8, 36.2 639.1, 36.7C639.3, 37.3 639.6, 37.7 640, 38.1C640.4, 38.5 640.9, 38.8 641.4, 39C641.9, 39.3 642.5, 39.4 643.1, 39.4C643.5, 39.3 643.9, 39.3 644.3, 39.2C645.1, 39 645.7, 38.6 646.3, 38L647, 37.1C647.4, 36.4 647.6, 35.6 647.6, 34.8L647.6, 34.1C647.6, 33.7 647.5, 33.1 647.2, 32.6z" class="st4" tag="st41" />
    <path d="M704, 62C676, 62 668, 54 640, 54C612, 54 604, 62 576, 62C548, 62 540, 54 512, 54C484, 54 476, 62 448, 62C420, 62 412, 54 384, 54C356, 54 348, 62 320, 62C292, 62 284, 54 256, 54C228, 54 220, 62 192, 62C164, 62 156, 54 128, 54C100, 54 92, 62 64, 62C36, 62 28, 54 0, 54C0, 59 0, 100 0, 100L128, 100L256, 100L384, 100L512, 100L640, 100L768, 100C768, 100 768, 57 768, 54C740, 54 732, 62 704, 62z" class="st6" tag="st60" />
    <g tag="Element2">
      <path d="M704, 64C676, 64 668, 58 640, 58C612, 58 604, 64 576, 64C548, 64 540, 58 512, 58C484, 58 476, 64 448, 64C420, 64 412, 58 384, 58C356, 58 348, 64 320, 64C292, 64 284, 58 256, 58C228, 58 220, 64 192, 64C164, 64 156, 58 128, 58C100, 58 92, 64 64, 64C36, 64 28, 58 0, 58C0, 61.8 0, 100 0, 100L128, 100L256, 100L384, 100L512, 100L640, 100L768, 100C768, 100 768, 60.2 768, 58C740, 58 732, 64 704, 64z" class="st4" tag="st42" />
    </g>
    <path d="M382.3, 1.5C382.3, 1.3 382.3, 1.2 382.2, 1C382.8, 0.6 383.5, 0.3 384.1, -0.1C384.3, -0.2 384.2, -0.6 384, -0.7C383.6, -0.9 383.1, -0.9 382.6, -0.9C382.3, -0.9 382.1, -0.9 381.8, -0.9C381.8, -1 381.7, -1.1 381.7, -1.2C381.6, -1.4 381.6, -1.7 381.6, -1.9C381.5, -2.2 381.5, -2.6 381.3, -2.9C381.1, -3.1 380.8, -3.1 380.7, -2.8C380.5, -2.3 380.3, -1.8 380.1, -1.4C380.1, -1.3 380, -1.2 380, -1.1C379.8, -1.1 379.7, -1.1 379.5, -1.2C379, -1.3 378.4, -1.3 377.9, -1.4C377.6, -1.5 377.4, -1 377.7, -0.8C378.2, -0.5 378.7, 0 379.1, 0.5C379, 0.7 379, 1 378.9, 1.3C378.7, 2 378.4, 2.6 378.3, 3.3C378.3, 3.6 378.6, 3.8 378.8, 3.6C379.1, 3.4 379.4, 3.1 379.7, 2.8C380, 2.6 380.3, 2.4 380.5, 2.2C380.7, 2.6 381, 2.9 381.3, 3.1L381.4, 3.2C381.6, 3.4 381.9, 4 382.3, 3.7C382.6, 3.5 382.5, 3 382.4, 2.6C382.4, 2.5 382.4, 2.4 382.4, 2.4C382.4, 2.1 382.4, 1.8 382.3, 1.5z" class="st5" tag="st51" />
  </g>
</svg>