<?xml version='1.0' encoding='UTF-8'?>
<svg x="0px" y="0px" viewBox="0 0 950 500" version="1.1" xmlns="http://www.w3.org/2000/svg" xmlns:xlink="http://www.w3.org/1999/xlink" xml:space="preserve" id="Layer_1" style="enable-background:new 0 0 950 500" tag="Element9">
  <style type="text/css" tag="Element1">
	.st0{fill:#A4D7E0;}
	.st1{fill:#FFFFFF;}
	.st2{fill:#80B4C1;}
	.st3{fill:#6D3308;}
	.st4{fill:#FFCC4D;}
	.st5{fill:#E04330;}
	.st6{fill:#4D8E6E;}
</style>
  <g tag="Element8">
    <rect x="0" y="0" width="950" height="500" rx="0" ry="0" class="st0" tag="st00" />
    <path d="M775.7, 263.3C775.8, 284 775.7, 304.7 775.7, 325.5C775.7, 326.3 774.5, 326.3 774.5, 325.5C774.5, 323.1 774.5, 320.7 774.5, 318.3C774.5, 297.3 774.6, 276.3 774.5, 255.3C774.4, 233.4 774, 211.4 773.2, 189.5C772.3, 167.4 770.5, 145.4 768.9, 123.4C767.1, 99.5 765.7, 75.6 764, 51.7C763.2, 40.3 762.1, 28.9 761.9, 17.5C761.8, 11.7 761.8, 5.8 761.4, 0L762.6, 0C763.2, 8.1 762.9, 16.2 763.3, 24.3C763.8, 36.1 765, 47.9 765.8, 59.7C767.4, 83.6 768.9, 107.5 770.7, 131.4C772.4, 153.3 773.9, 175.2 774.7, 197.2C775.3, 219.3 775.6, 241.3 775.7, 263.3zM114.5, 94.7C114.2, 87.9 114.2, 81.1 114.1, 74.2C113.8, 60.9 111.3, 47.9 109.5, 34.8C108.6, 28.3 108, 21.8 107.9, 15.3C107.9, 11.3 108.2, 7.4 108.5, 3.4C108.6, 2.3 108.7, 1.1 108.8, 0L107.5, 0C107.5, 0.3 107.5, 0.6 107.4, 1C107.1, 4.8 106.7, 8.7 106.6, 12.6C106.4, 18.7 107, 24.9 107.7, 30.9C109.2, 43.9 111.8, 56.8 112.6, 69.9C113, 76.6 112.8, 83.3 113, 90C113.2, 96.8 113.6, 103.6 114, 110.3C114.8, 123.9 115.8, 137.5 116, 151.1C116, 152.8 116, 154.5 116, 156.2C116, 157 117.3, 157 117.2, 156.2C117.2, 142.5 116.3, 128.8 115.4, 115.2C115.2, 108.4 114.8, 101.5 114.5, 94.7zM256.5, 163.3C257.8, 165.4 257.7, 168.2 257, 170.5C256.2, 173 254.3, 174.8 251.6, 175.2C248.4, 175.7 246.5, 173.6 245.4, 170.9C245.4, 172 245.4, 173 245.3, 174.1C245.1, 181.3 244.1, 188.4 243.7, 195.6C243.3, 202.5 243.2, 209.7 245.4, 216.4C245.7, 217.2 244.4, 217.5 244.2, 216.7C243.7, 215.2 243.3, 213.6 243, 212.1C241.8, 205.1 242.2, 197.9 242.8, 190.8C243.4, 184.2 244, 177.6 244.1, 170.9C243.8, 171.6 243.5, 172.3 243.3, 172.9C240.7, 179.3 239.9, 188.7 232.3, 191.2C231.5, 191.5 231.2, 190.3 232, 190C233.8, 189.4 235.3, 188.1 236.5, 186.6C238.6, 183.8 239.7, 180.3 240.7, 176.9C241.2, 175.4 241.6, 173.9 242.2, 172.4C242.5, 171.6 242.9, 170.7 243.2, 169.9C240.7, 172.2 237.8, 174.7 234.5, 175.5C231.8, 176.2 228.2, 175.3 227.2, 172.4C226.3, 169.7 228.4, 167 230.6, 165.7C233, 164.4 235.8, 164 238.5, 164.1C240.5, 164.2 242.6, 164.7 244.3, 165.7C244.3, 149.1 244.5, 132.5 244.2, 115.9C243.9, 99.2 242.8, 82.5 242.6, 65.8C242.4, 49.5 242.7, 33.1 243.4, 16.8C243.7, 11.1 244, 5.5 244.4, -0.2L245.6, -0.2C245.1, 7.4 244.7, 15.1 244.4, 22.7C243.8, 38.9 243.6, 55.1 243.9, 71.3C244.2, 88.2 245.3, 105 245.6, 121.9C245.7, 130.7 245.7, 139.5 245.7, 148.4C245.7, 153.4 245.7, 158.4 245.7, 163.4C245.8, 163.5 245.9, 163.7 245.9, 163.9C245.9, 164.4 245.9, 165 245.9, 165.5C246.1, 165.3 246.3, 165.1 246.5, 164.9C247.6, 163.7 248.7, 162.4 250.1, 161.6C252.2, 160.2 255.1, 160.9 256.5, 163.3zM243.6, 166.9C241.5, 165.5 238.6, 165.2 236.2, 165.4C233.4, 165.6 230, 166.6 228.6, 169.3C227.9, 170.7 227.9, 172.3 229.1, 173.4C230.3, 174.5 232.2, 174.7 233.8, 174.4C237.4, 173.6 240.4, 170.7 243, 168.3C243.1, 168.2 243.2, 168.1 243.2, 168.1C243.2, 168 243.2, 168 243.2, 167.9C243, 167.4 243.3, 167 243.6, 166.9zM255.9, 165.1C255.6, 164 255, 163 254, 162.5C252.7, 161.8 251.3, 162.1 250.1, 163C248.8, 163.9 247.7, 165.2 246.6, 166.4C246.3, 166.7 246, 167.1 245.6, 167.4C245.8, 169.3 246.4, 171.1 247.5, 172.5C248.3, 173.5 249.4, 174.1 250.7, 174.1C252.1, 174 253.6, 173.3 254.5, 172.2C256.2, 170.2 256.6, 167.4 255.9, 165.1zM193.4, 67.9C191.5, 67.4 189.6, 66.8 187.7, 66C184.7, 64.8 181.7, 63.1 179.5, 60.6C179, 60 178.5, 59.3 178.2, 58.7C178.3, 60.2 178.4, 61.7 178.6, 63.2C180.3, 80 183.4, 96.6 185.1, 113.4C185.2, 114.2 183.9, 114.2 183.9, 113.4C182.9, 103.9 181.5, 94.6 180.2, 85.1C179, 76.8 177.9, 68.5 177.1, 60.2C177, 59.6 177, 58.9 177, 58.3C176.9, 58.9 176.8, 59.5 176.7, 60C175.9, 64.1 174.4, 68.1 172.3, 71.6C170.3, 74.8 167.6, 77.9 163.8, 79C163, 79.2 162.7, 78 163.5, 77.8C165.5, 77.2 167.1, 76 168.5, 74.5C171.3, 71.6 173.1, 67.8 174.3, 64C174.9, 62.2 175.4, 60.4 175.7, 58.5C175.8, 57.7 176, 56.8 176, 55.9C176, 55.6 176, 55.3 176, 55C175.9, 54.9 175.8, 54.9 175.8, 54.8C174.4, 56.4 172.9, 57.8 171.1, 59.1C169.3, 60.4 166.7, 61.8 164.4, 60.7C162, 59.6 161.4, 57 162.6, 54.9C163.8, 52.7 166.2, 50.9 168.7, 50.6C171.1, 50.2 173.2, 51.2 175, 52.7C175.2, 52.9 175.4, 53 175.6, 53.2C175.7, 53.1 175.8, 53.1 176, 53.2C176, 52.8 176.1, 52.4 176.3, 52.1C176.4, 51.9 176.5, 51.8 176.6, 51.8C176.3, 46.2 176.2, 40.6 176.3, 35C176.4, 23.4 177, 11.8 176.9, 0.2L178.2, 0.2C178.2, 4.4 178.2, 8.6 178.1, 12.7C177.9, 21.2 177.6, 29.6 177.6, 38.1C177.6, 42.4 177.7, 46.7 177.9, 51.1C177.9, 51.2 178, 51.3 178, 51.4C178, 51.7 178, 52 178, 52.2C178, 52.3 178, 52.5 178, 52.6C178, 52.6 178, 52.5 178, 52.5C180.3, 48.6 188.3, 45.4 190.9, 50.7C191.8, 52.7 191.6, 54.8 190, 56.3C188.4, 57.8 186.2, 58.5 184, 58.7C182.3, 58.8 180.7, 58.4 179.2, 57.6C180, 59.2 181.2, 60.7 182.7, 61.9C185.9, 64.4 190, 65.8 193.9, 66.9C194.5, 66.9 194.2, 68.1 193.4, 67.9zM174.7, 54C173.9, 53.3 173.1, 52.7 172.2, 52.3C169.8, 51.1 167.2, 51.9 165.3, 53.6C164.4, 54.4 163.4, 55.6 163.2, 56.9C163, 58.1 163.8, 59.2 164.9, 59.7C166.9, 60.6 169.3, 59 170.9, 57.8C172.2, 56.6 173.5, 55.3 174.7, 54zM178.2, 55.4C179, 56 179.8, 56.5 180.7, 56.8C182.6, 57.5 184.9, 57.2 186.8, 56.5C188.6, 55.8 190.4, 54.2 189.9, 52.1C188.7, 47.1 182.1, 49.2 179.5, 52.2C179.5, 52.2 179.5, 52.3 179.4, 52.3C179.2, 52.6 179, 52.9 178.7, 53.1C178.4, 53.4 177.9, 53.2 177.7, 52.9C177.7, 53 177.7, 53.2 177.7, 53.3C177.9, 54 178.1, 54.7 178.2, 55.4zM860.3, 61.1C859.1, 64.5 855.3, 66 852, 65.9C848.8, 65.9 846.3, 64.1 844, 62C844.2, 64.4 844.8, 66.8 846.1, 68.9C847.8, 71.6 850.4, 73.7 853.1, 75.4C853.8, 75.8 853.1, 76.9 852.5, 76.5C849.6, 74.7 846.9, 72.5 845.1, 69.5C844.4, 68.4 843.9, 67.1 843.5, 65.9C845.1, 81 847.6, 96.2 847.6, 111.5C847.6, 112.3 846.4, 112.3 846.4, 111.5C846.4, 103.7 845.7, 95.9 844.8, 88.1C844.1, 81.1 843.2, 74.2 842.4, 67.2C842.4, 67.4 842.3, 67.5 842.3, 67.7C841.2, 72.1 839, 76.4 836.5, 80.2C834.2, 83.6 831.4, 87.1 827.8, 89.2C827.1, 89.6 826.5, 88.5 827.2, 88.1C829, 87 830.6, 85.5 832, 84C835, 80.7 837.4, 76.9 839.2, 72.8C840.7, 69.5 842.2, 65.5 841.6, 61.9C841.6, 61.6 841.7, 61.4 841.8, 61.3C841.8, 61.2 841.8, 61.2 841.8, 61.1C839.7, 63.2 837.4, 65.2 834.9, 66.9C832.2, 68.7 828.6, 70.7 825.3, 69.4C822.1, 68.2 821.2, 64.7 822.1, 61.7C823.1, 58.1 826.3, 54.9 829.8, 53.5C831.5, 52.8 833.5, 52.6 835.3, 53.2C837, 53.7 838.5, 54.7 839.8, 55.9C840.4, 56.4 841, 57 841.5, 57.6C841.1, 53 840.8, 48.3 840.7, 43.7C840.4, 29.1 841.6, 14.3 838.7, -0.1L840, -0.1C840.1, 0.5 840.2, 1 840.3, 1.6C841.1, 6.2 841.5, 10.8 841.7, 15.5C842.1, 24 841.8, 32.5 841.9, 41C842, 46.8 842.3, 52.6 842.8, 58.3C843.4, 57.7 843.9, 57.1 844.5, 56.5C844.7, 56.3 845, 56.3 845.2, 56.4C846.7, 55 848.7, 53.9 850.6, 53.2C852.9, 52.3 855.9, 51.9 858.1, 53.2C860.5, 54.9 861.2, 58.5 860.3, 61.1zM841.5, 59.6C839.4, 57.3 837.1, 54.7 833.9, 54.2C829.8, 53.6 825.8, 56.9 823.9, 60.3C822.4, 63.1 822.4, 67.6 826.2, 68.5C829.8, 69.3 833.5, 66.5 836.1, 64.4C838, 63 839.8, 61.3 841.5, 59.6zM857.4, 54.5C855.2, 53.1 852.2, 53.9 850, 54.8C848.7, 55.3 847.5, 56 846.5, 56.9C846, 57.3 845.5, 57.7 845.1, 58.2C844.9, 58.4 844.7, 58.6 844.6, 58.8C844.6, 58.9 844.5, 59 844.5, 59.1C844.2, 59.4 844.3, 59.7 843.9, 59.9C843.9, 59.9 843.8, 59.9 843.8, 59.9C843.9, 60 843.9, 60.1 843.9, 60.2C843.9, 60.2 843.9, 60.3 843.9, 60.3C845.1, 61.6 846.4, 62.7 848, 63.6C851, 65.3 855.7, 65.1 858.2, 62.4C860, 60.4 859.9, 56.1 857.4, 54.5z" tag="Element2" />
    <path d="M691.6, 71.1C691.7, 71.9 691.8, 72.8 691.9, 73.6C691.9, 75.3 691.5, 76.9 690.6, 78.3C690.1, 78.9 689.6, 79.6 689.1, 80.2C688.3, 81.1 687.2, 81.8 686.1, 82.1C685, 82.7 683.8, 83 682.5, 82.9C681.2, 82.9 680, 82.7 678.9, 82.1C677.7, 81.7 676.7, 81.1 675.9, 80.2C675.3, 79.6 674.8, 79.1 674.2, 78.5C673, 77.3 672.2, 76 671.8, 74.4L671.5, 71.9C671.5, 70.2 671.9, 68.6 672.8, 67.2C673.3, 66.6 673.8, 65.9 674.3, 65.3C675.1, 64.4 676.2, 63.7 677.3, 63.4C678.4, 62.8 679.6, 62.5 680.9, 62.6C682.2, 62.6 683.4, 62.8 684.5, 63.4C685.7, 63.8 686.7, 64.4 687.5, 65.3L689.2, 67C690.4, 68.2 691.2, 69.6 691.6, 71.1zM623.1, 170.6C618.3, 170.6 618.3, 178.1 623.1, 178.1C627.9, 178.1 627.9, 170.6 623.1, 170.6zM695.1, 43.8C694.9, 43.6 694.6, 43.4 694.3, 43.3C694, 43.1 693.7, 43.1 693.3, 43.1C693.1, 43.1 692.9, 43.2 692.6, 43.2C692.2, 43.3 691.8, 43.5 691.5, 43.8C691.4, 44 691.2, 44.1 691.1, 44.3C690.9, 44.7 690.8, 45.1 690.8, 45.6L690.8, 47.3C690.8, 47.6 690.9, 48 691, 48.3C691.1, 48.6 691.3, 48.9 691.5, 49.1C691.7, 49.3 692, 49.5 692.3, 49.6C692.6, 49.8 692.9, 49.8 693.3, 49.8C693.5, 49.8 693.7, 49.7 694, 49.7C694.4, 49.6 694.8, 49.4 695.1, 49.1C695.2, 48.9 695.4, 48.8 695.5, 48.6C695.7, 48.2 695.8, 47.8 695.8, 47.3L695.8, 45.6C695.8, 45.3 695.7, 44.9 695.6, 44.6C695.5, 44.3 695.3, 44 695.1, 43.8zM719.6, 241.5C719, 240.4 718.2, 239.5 717.2, 238.9C716.3, 238.1 715.2, 237.5 714, 237.2C713.2, 237.1 712.3, 237 711.5, 236.9C709.8, 236.9 708.2, 237.3 706.8, 238.2C706.2, 238.7 705.5, 239.2 704.9, 239.7C704.1, 240.5 703.5, 241.4 703, 242.4C702.2, 243.2 701.6, 244.1 701.3, 245.2C700.7, 246.3 700.4, 247.5 700.5, 248.8C700.5, 250.1 700.7, 251.3 701.3, 252.4C701.7, 253.6 702.3, 254.6 703.2, 255.4C705, 257 707.3, 258.3 709.8, 258.1C710.6, 258 711.5, 257.9 712.3, 257.8C713.9, 257.4 715.3, 256.6 716.4, 255.4C717.4, 254.6 718.1, 253.5 718.8, 252.5C719, 252.3 719.1, 252 719.2, 251.8C719.7, 250.8 720.1, 249.9 720.4, 248.9C720.8, 247.7 720.8, 246.4 720.6, 245.2C720.6, 243.7 720.2, 242.5 719.6, 241.5zM616.4, 210C616.1, 209.7 615.7, 209.4 615.3, 209C614.3, 207.8 613.1, 206.7 611.7, 206C610, 204.9 608.1, 204.3 606.1, 204.2C604.1, 203.8 602.1, 203.8 600.1, 204.5C598.9, 205 597.7, 205.5 596.5, 206C594.2, 207.3 592.5, 209.1 591.1, 211.4C590.6, 212.6 590.1, 213.8 589.6, 215C588.9, 217.7 588.9, 220.3 589.6, 223C590.6, 226 591.8, 228.4 594.1, 230.6C594.2, 230.7 594.3, 230.8 594.4, 230.8C595.4, 231.6 596.4, 232.4 597.4, 233.1C597.5, 233.1 597.5, 233.2 597.6, 233.2C597.7, 233.3 597.8, 233.3 597.9, 233.4C599.2, 234 600.5, 234.5 601.8, 235C603.8, 235.6 605.8, 235.7 607.8, 235.3C609.8, 235.2 611.7, 234.6 613.4, 233.5C615.1, 232.6 616.6, 231.3 617.6, 229.6C618.9, 228.2 619.8, 226.5 620.3, 224.5L620.8, 220.5C620.8, 217.8 620.1, 215.3 618.8, 212.9C617.9, 212 617.2, 211 616.4, 210zM877.6, 247.7C878, 248 878.4, 248.3 878.7, 248.6C879.6, 249.1 880.5, 249.4 881.5, 249.4L882.3, 249.4C883.1, 249.4 883.8, 249.3 884.5, 248.9C885.2, 248.7 885.8, 248.3 886.3, 247.7C886.8, 247.2 887.2, 246.6 887.5, 245.9C887.9, 245.2 888, 244.5 888, 243.7C887.9, 243.2 887.9, 242.7 887.8, 242.2C887.5, 241.2 887.1, 240.4 886.4, 239.7L885.3, 238.8C884.4, 238.3 883.5, 238 882.5, 238L881.7, 238C880.9, 238 880.2, 238.1 879.5, 238.5C878.8, 238.7 878.2, 239.1 877.7, 239.7C877.2, 240.2 876.8, 240.8 876.5, 241.5C876.1, 242.2 876, 242.9 876, 243.7C876.1, 244.2 876.1, 244.7 876.2, 245.2C876.4, 246.2 876.9, 247 877.6, 247.7zM533.2, 101.6C533, 101.5 532.9, 101.3 532.7, 101.2C532.3, 101 531.9, 100.9 531.4, 100.9C531.3, 100.9 531.3, 100.9 531.2, 100.9C531.2, 100.9 531.1, 100.9 531.1, 100.9C531.1, 100.9 531.1, 100.9 531.1, 100.9C530.9, 100.9 530.6, 101 530.4, 101C530.4, 101 530.3, 101 530.3, 101C530.1, 101.1 529.8, 101.2 529.6, 101.3C529.6, 101.3 529.6, 101.3 529.6, 101.3C529.5, 101.4 529.2, 101.6 529.1, 101.7C529.1, 101.7 529.1, 101.7 529.1, 101.7C529.1, 101.7 529.1, 101.7 529.1, 101.7C529.1, 101.7 529.1, 101.7 529.1, 101.7C529, 101.9 528.8, 102.1 528.7, 102.3C528.7, 102.3 528.7, 102.3 528.7, 102.3C528.7, 102.3 528.7, 102.3 528.7, 102.3C528.7, 102.3 528.7, 102.3 528.7, 102.3C528.6, 102.5 528.5, 102.7 528.4, 102.9C528.4, 102.9 528.4, 103 528.4, 103C528.3, 103.3 528.3, 103.5 528.3, 103.8C528.3, 103.9 528.3, 103.9 528.3, 104C528.3, 104.3 528.4, 104.7 528.5, 105C528.6, 105.3 528.8, 105.6 529, 105.8C529.2, 106 529.5, 106.2 529.8, 106.3C530.1, 106.5 530.4, 106.5 530.8, 106.5C531, 106.5 531.2, 106.4 531.5, 106.4C531.9, 106.3 532.3, 106.1 532.6, 105.8C532.7, 105.6 532.8, 105.5 533, 105.3C533.2, 105.2 533.3, 105.1 533.5, 104.9C533.7, 104.7 533.9, 104.4 534, 104.1C534.2, 103.8 534.2, 103.5 534.2, 103.1C534.2, 102.9 534.1, 102.7 534.1, 102.4C533.8, 102.3 533.5, 101.9 533.2, 101.6zM905.5, 35.3C907.5, 35.2 909.3, 33.7 909.3, 31.5L909.3, 29C909.3, 27 907.6, 25.2 905.5, 25.2C903.5, 25.3 901.7, 26.8 901.7, 29L901.7, 31.5C901.7, 33.5 903.5, 35.4 905.5, 35.3zM829.5, 330.6C822.3, 330.6 822.2, 341.8 829.5, 341.8C836.8, 341.8 836.8, 330.6 829.5, 330.6zM910.2, 325.2C909.9, 324.4 909.6, 323.7 909.2, 322.9C909.2, 322.9 909.2, 322.9 909.2, 322.9C908.4, 321.5 907.3, 320.1 906.2, 319C903.9, 316.7 900.9, 314.9 897.7, 314C896, 313.6 894.3, 313.4 892.5, 313.3C892.4, 313.3 892.3, 313.3 892.2, 313.3C889.6, 313.2 887.2, 313.7 885, 314.9C882.7, 315.7 880.7, 316.9 879, 318.8C877.2, 320.5 875.9, 322.5 875.1, 324.8C873.9, 327 873.4, 329.4 873.5, 332C873.7, 333.7 873.9, 335.3 874.2, 337C875, 340 876.5, 342.5 878.6, 344.8C878.6, 344.8 878.6, 344.8 878.6, 344.8C878.8, 345 878.9, 345.1 879, 345.3C879, 345.3 879.1, 345.4 879.1, 345.4C879.3, 345.6 879.5, 345.9 879.8, 346.1C881.5, 347.9 883.5, 349.2 885.8, 350C888, 351.2 890.4, 351.7 893, 351.6C894.7, 351.4 896.3, 351.2 898, 350.9C901.2, 350 903.9, 348.4 906.3, 346.1C907.3, 344.8 908.3, 343.6 909.2, 342.3C910.9, 339.4 911.7, 336.2 911.8, 332.8C911.8, 332.7 911.8, 332.6 911.8, 332.5C911.7, 330.8 911.5, 329 911.1, 327.4C911, 326.8 909.7, 324 910.2, 325.2zM927.8, 110C927.4, 108.4 926.6, 107 925.4, 105.9C924.8, 105.4 924.1, 104.9 923.5, 104.4C922, 103.6 920.5, 103.1 918.8, 103.1L918, 103.1C916.7, 103.1 915.5, 103.3 914.4, 103.9C913.2, 104.3 912.2, 104.9 911.4, 105.8C910.5, 106.6 909.8, 107.7 909.5, 108.8C908.9, 109.9 908.6, 111.1 908.7, 112.4C908.8, 113.2 908.9, 114.1 909, 114.9C909.4, 116.5 910.2, 117.9 911.4, 119C912, 119.5 912.7, 120 913.3, 120.5C914.8, 121.3 916.3, 121.8 918, 121.8L918.8, 121.8C920.1, 121.8 921.3, 121.6 922.4, 121C923.6, 120.6 924.6, 120 925.4, 119.1C926.3, 118.3 927, 117.2 927.3, 116.1C927.9, 115 928.2, 113.8 928.1, 112.5C928, 111.6 927.9, 110.8 927.8, 110zM727.2, 175.7C727.2, 175.7 727.1, 175.3 727, 175.2C726.8, 174.9 726.6, 174.6 726.3, 174.3C725.8, 173.8 725.1, 173.4 724.4, 173.2C724, 173.1 723.4, 173 723, 173C722.5, 173 722, 173.1 721.6, 173.3C721.1, 173.5 720.7, 173.7 720.4, 174.1C720, 174.4 719.8, 174.8 719.6, 175.3C719.4, 175.7 719.3, 176.2 719.3, 176.7C719.3, 177 719.4, 177.4 719.4, 177.7C719.6, 178.3 719.9, 178.9 720.4, 179.4C720.5, 179.5 720.6, 179.6 720.8, 179.7C720.9, 179.9 721.1, 180.1 721.3, 180.2C721.6, 180.6 722, 180.8 722.5, 181C722.9, 181.2 723.4, 181.3 723.9, 181.3C724.2, 181.3 724.6, 181.2 724.9, 181.2C725.5, 181 726.1, 180.7 726.6, 180.2L727.2, 179.4C727.5, 178.8 727.7, 178.2 727.7, 177.5C727.7, 177 727.7, 176.5 727.5, 176.1C727.4, 176.1 727.3, 175.9 727.2, 175.7zM913.8, 277.6C910.6, 277.6 910.6, 282.6 913.8, 282.6C917, 282.6 917, 277.6 913.8, 277.6zM818, 233C814.8, 233 814.8, 238 818, 238C821.2, 238 821.2, 233 818, 233zM733.3, 108.1C733.2, 107.8 732.9, 107 732.7, 106.7C732.7, 106.7 732.7, 106.6 732.6, 106.6C732.6, 106.6 732.6, 106.5 732.5, 106.5L731.6, 105.4C731.6, 105.4 731.5, 105.3 731.5, 105.3C731.2, 105.1 730.6, 104.6 730.3, 104.4C730.3, 104.4 730.2, 104.3 730.2, 104.3C730, 104.2 729.1, 103.8 728.8, 103.7C728.8, 103.7 728.7, 103.7 728.7, 103.7C728.1, 103.5 727.5, 103.5 727, 103.5C726.4, 103.5 725.8, 103.6 725.3, 103.7C725.1, 103.7 725, 103.8 724.9, 103.8C723.5, 104.2 722.3, 105.1 721.5, 106.4C721.1, 107 720.9, 107.7 720.8, 108.5C720.6, 109.2 720.7, 110 720.9, 110.7C721.3, 112.1 722.2, 113.4 723.5, 114.1C723.9, 114.3 724.3, 114.5 724.7, 114.6C724.9, 114.7 725, 114.9 725.2, 114.9C725.8, 115.3 726.5, 115.5 727.3, 115.6C728, 115.8 728.8, 115.7 729.5, 115.5C730.9, 115.1 732.2, 114.2 732.9, 112.9C733.1, 112.5 733.3, 112 733.5, 111.6C733.8, 110.6 733.8, 109.6 733.5, 108.6C733.4, 108.3 733.3, 108.2 733.3, 108.1zM801.3, 470.1C800.8, 469.6 800.2, 469.2 799.5, 468.9C798.8, 468.5 798.1, 468.4 797.3, 468.4L795.8, 468.6C794.8, 468.9 794, 469.3 793.3, 470L792.4, 471.1C791.9, 472 791.6, 472.9 791.6, 473.9L791.6, 474.7C791.6, 475.5 791.7, 476.2 792.1, 476.9C792.3, 477.6 792.7, 478.2 793.3, 478.7C793.8, 479.2 794.4, 479.6 795.1, 479.9C795.8, 480.3 796.5, 480.4 797.3, 480.4C797.8, 480.3 798.3, 480.3 798.8, 480.2C799.8, 479.9 800.6, 479.5 801.3, 478.8C801.6, 478.4 801.9, 478 802.2, 477.7C802.7, 476.8 803, 475.9 803, 474.9L803, 474.1C803, 473.3 802.9, 472.6 802.5, 471.9C802.2, 471.2 801.9, 470.6 801.3, 470.1zM113.8, 339.4C113.5, 338.6 113.1, 337.8 112.5, 337.2C112, 336.7 111.4, 336.3 110.7, 336C110, 335.6 109.3, 335.5 108.5, 335.5C107, 335.6 105.5, 336 104.5, 337.1C103.5, 338.2 102.8, 339.6 102.9, 341.1C102.9, 342.5 103.2, 343.6 103.9, 344.8C104.3, 345.5 104.8, 346.2 105.4, 346.7C105.9, 347.2 106.5, 347.6 107.2, 347.9C107.9, 348.3 108.6, 348.4 109.4, 348.4C110.2, 348.4 110.9, 348.3 111.6, 347.9C112.3, 347.7 112.9, 347.3 113.4, 346.7C114.4, 345.6 115.1, 344.2 115, 342.7C114.9, 342.2 114.9, 341.7 114.8, 341.2C114.6, 340.6 114.3, 340 113.8, 339.4zM56.7, 295.7C55.6, 294.1 54.2, 292.8 52.5, 291.8C51.3, 291.3 50.1, 290.8 48.9, 290.3C47.4, 289.9 45.9, 289.8 44.5, 289.8C44.1, 289.8 43.7, 289.8 43.3, 289.8L39.3, 290.3C36.8, 291 34.6, 292.3 32.7, 294.2C31.9, 295.2 31.1, 296.2 30.4, 297.2C29, 299.5 28.4, 302.1 28.4, 304.8C28.6, 306.3 28.7, 307.9 29, 309.4C29, 309.5 29.1, 309.6 29.1, 309.7C29.6, 310.9 30.1, 312.1 30.6, 313.3C30.6, 313.3 30.6, 313.4 30.7, 313.4C31.9, 315.6 34.1, 317.7 36.2, 319C38.6, 320.4 41.2, 321.1 43.9, 321.1C48, 321.1 52.2, 319.4 55, 316.4C56.1, 315.2 57.2, 313.9 58, 312.4C59.1, 310.7 59.7, 308.8 59.8, 306.8C60.2, 304.8 60.2, 302.8 59.5, 300.8C58.9, 298.9 58.1, 297.2 56.7, 295.7zM94.3, 115.1L93.5, 114.3C93, 113.8 92.4, 113.4 91.7, 113.1C91, 112.7 90.3, 112.6 89.5, 112.6C88.7, 112.6 88, 112.7 87.3, 113.1C86.6, 113.3 86, 113.7 85.5, 114.3C85.2, 114.7 84.9, 115.1 84.6, 115.4C84.1, 116.3 83.8, 117.2 83.8, 118.2C83.9, 118.7 83.9, 119.2 84, 119.7C84.3, 120.7 84.7, 121.5 85.4, 122.2L86.2, 123C86.7, 123.5 87.3, 123.9 88, 124.2C88.7, 124.6 89.4, 124.7 90.2, 124.7C91, 124.7 91.7, 124.6 92.4, 124.2C93.1, 124 93.7, 123.6 94.2, 123C94.5, 122.6 94.8, 122.2 95.1, 121.9C95.6, 121 95.9, 120.1 95.9, 119.1C95.8, 118.6 95.8, 118.1 95.7, 117.6C95.5, 116.6 95, 115.8 94.3, 115.1zM73.9, 154.8C73.5, 153.6 72.8, 152.5 71.8, 151.6C69.9, 149.9 67.4, 148.6 64.7, 148.7C63.8, 148.8 62.9, 148.9 62, 149.1C60.3, 149.6 58.8, 150.4 57.6, 151.7C57.2, 152.1 56.9, 152.6 56.5, 153.1C56.2, 153.5 55.8, 153.9 55.5, 154.4C54.6, 156 53.9, 158.1 54, 160C54, 160.9 54.3, 162.7 54.4, 162.9C54.4, 163 54.4, 163.1 54.5, 163.1C54.8, 163.9 55.2, 164.7 55.5, 165.5C56, 166.5 56.8, 167.5 57.6, 168.3C59.5, 170.1 62, 171.2 64.7, 171.2C66.1, 171.3 67.4, 171 68.6, 170.3C69.8, 169.9 70.9, 169.2 71.8, 168.2C73.5, 166.3 74.8, 163.8 74.7, 161.1C74.7, 160.8 74.6, 160.5 74.6, 160.2C74.7, 159.7 74.7, 159.1 74.7, 158.6C74.8, 157.3 74.5, 156 73.9, 154.8zM37.3, 201L37.7, 201.3C37.8, 201.5 38, 201.7 38.2, 201.8C38.5, 202.2 38.9, 202.4 39.4, 202.6C39.8, 202.8 40.3, 202.9 40.8, 202.9C41.1, 202.9 41.5, 202.8 41.8, 202.8C42.4, 202.6 43, 202.3 43.5, 201.8C43.7, 201.5 43.9, 201.3 44.1, 201C44.4, 200.4 44.6, 199.8 44.6, 199.1C44.6, 198.6 44.6, 198.1 44.4, 197.7C44.4, 197.5 44.2, 197.3 44.2, 197.2C44.2, 197.2 44.1, 196.8 44, 196.7C43.8, 196.4 43.6, 196.1 43.3, 195.8C42.8, 195.3 42.1, 194.9 41.4, 194.7C41, 194.6 40.4, 194.5 40, 194.5C39.5, 194.5 39, 194.6 38.6, 194.8C38.1, 195 37.7, 195.2 37.4, 195.6C37, 195.9 36.8, 196.3 36.6, 196.8C36.4, 197.2 36.3, 197.7 36.3, 198.2C36.3, 198.5 36.4, 198.9 36.4, 199.2C36.6, 199.9 36.9, 200.5 37.3, 201zM81.9, 44.9L82.7, 45.5C83.3, 45.8 83.9, 46 84.6, 46L85.4, 46C85.9, 46 86.4, 45.9 86.8, 45.7C87.3, 45.5 87.7, 45.3 88, 44.9C88.4, 44.6 88.6, 44.2 88.8, 43.7C89, 43.3 89.1, 42.8 89.1, 42.3C89.1, 42 89, 41.6 89, 41.3C88.8, 40.7 88.5, 40.1 88, 39.6L87.3, 39C86.7, 38.7 86.1, 38.5 85.4, 38.5L84.6, 38.5C84.1, 38.5 83.6, 38.6 83.2, 38.8C82.7, 39 82.3, 39.2 82, 39.6C81.6, 39.9 81.4, 40.3 81.2, 40.8C81, 41.2 80.9, 41.7 80.9, 42.2C80.9, 42.5 81, 42.9 81, 43.2C81.1, 43.9 81.5, 44.4 81.9, 44.9zM68.8, 60.5C69, 60.7 69.3, 60.9 69.6, 61C69.9, 61.2 70.2, 61.2 70.6, 61.2C70.8, 61.2 71, 61.1 71.3, 61.1C71.7, 61 72.1, 60.8 72.4, 60.5C72.5, 60.3 72.7, 60.2 72.8, 60C73, 59.6 73.1, 59.2 73.1, 58.7L73.1, 57.9C73.1, 57.6 73, 57.2 72.9, 56.9C72.8, 56.6 72.6, 56.3 72.4, 56.1C72.2, 55.9 71.9, 55.7 71.6, 55.6C71.3, 55.4 71, 55.4 70.6, 55.4C70.4, 55.4 70.2, 55.5 69.9, 55.5C69.5, 55.6 69.1, 55.8 68.8, 56.1C68.7, 56.3 68.5, 56.4 68.4, 56.6C68.2, 57 68.1, 57.4 68.1, 57.9L68.1, 58.7C68.1, 59 68.2, 59.4 68.3, 59.7C68.4, 60 68.5, 60.3 68.8, 60.5zM85.3, 349.2C85.3, 349.2 85.2, 349.1 85.2, 349.1C84.9, 349 84.6, 348.8 84.2, 348.7C84.1, 348.7 84, 348.7 83.9, 348.6C83.6, 348.5 83.3, 348.5 82.9, 348.5C82.6, 348.5 82.2, 348.6 81.9, 348.7C81.6, 348.8 81.3, 349 81.1, 349.2C80.9, 349.4 80.7, 349.7 80.6, 350C80.4, 350.3 80.4, 350.6 80.4, 351C80.4, 351.2 80.5, 351.4 80.5, 351.7C80.6, 352.1 80.8, 352.5 81.1, 352.8C81.3, 352.9 81.4, 353 81.6, 353.2L82, 353.7C82.3, 354 82.7, 354.2 83.1, 354.3C83.3, 354.3 83.5, 354.4 83.8, 354.4C84.3, 354.4 84.7, 354.3 85.1, 354.1C85.1, 354.1 85.2, 354.1 85.2, 354C85.2, 354 85.2, 354 85.2, 354C85.4, 353.9 85.6, 353.7 85.8, 353.6C85.8, 353.6 85.8, 353.6 85.9, 353.5C86.1, 353.3 86.2, 353.1 86.3, 352.9C86.3, 352.9 86.3, 352.9 86.3, 352.8C86.3, 352.7 86.5, 352.3 86.6, 352.2C86.6, 352.2 86.6, 352.2 86.6, 352.2C86.6, 352.2 86.6, 352.2 86.6, 352.2C86.6, 352.2 86.6, 352.2 86.6, 352.2C86.6, 352 86.7, 351.8 86.7, 351.5C86.7, 351 86.6, 350.5 86.3, 350.1C86, 349.7 85.7, 349.5 85.3, 349.2zM402.5, 223.1C399.3, 223.1 399.3, 228.1 402.5, 228.1C405.7, 228.1 405.7, 223.1 402.5, 223.1zM356.7, 158.2C356.6, 158 356.4, 157.8 356.3, 157.7C356.3, 157.7 356.2, 157.6 356.2, 157.6C356.2, 157.3 356.1, 157.1 356, 156.9C355.9, 156.6 355.7, 156.3 355.5, 156.1C355.3, 155.9 355, 155.7 354.7, 155.6C354.4, 155.4 354.1, 155.4 353.7, 155.4C353.5, 155.4 353.3, 155.5 353, 155.5C352.6, 155.6 352.2, 155.8 351.9, 156.1C351.8, 156.3 351.6, 156.4 351.5, 156.6C351.3, 157 351.2, 157.4 351.2, 157.9C351.2, 158.3 351.3, 158.7 351.3, 159.1C351.3, 159.2 351.3, 159.3 351.4, 159.3C351.4, 159.4 351.5, 159.6 351.6, 159.7C351.7, 159.8 351.7, 160 351.8, 160.1C351.8, 160.2 351.9, 160.2 351.9, 160.3C352.1, 160.5 352.2, 160.8 352.4, 161C352.6, 161.3 353, 161.5 353.3, 161.7C353.6, 161.9 353.9, 162 354.2, 162C354.5, 162.1 354.9, 162.1 355.2, 162C355.5, 161.9 355.8, 161.8 356.1, 161.6C356.4, 161.4 356.6, 161.2 356.7, 160.9L357, 160.3C357.1, 159.9 357.1, 159.4 357, 159C356.9, 158.6 356.8, 158.4 356.7, 158.2zM348.5, 95.8L348, 95.8C335.1, 95.8 335.1, 115.8 348, 115.8L348.5, 115.8C361.4, 115.8 361.4, 95.8 348.5, 95.8zM429, 56C429, 56 429, 56 429, 56C429, 55.8 428.9, 55.5 428.9, 55.3C428.9, 55.1 428.7, 54.8 428.6, 54.6C428.5, 54.4 428.3, 54.3 428.2, 54.1C428.2, 54.1 428.2, 54.1 428.2, 54.1C428.2, 54.1 428.2, 54.1 428.2, 54.1C428.2, 54.1 428.2, 54.1 428.2, 54.1C428.2, 54.1 427.7, 53.7 427.7, 53.7C427.7, 53.7 427.7, 53.7 427.7, 53.7C427.7, 53.7 427.7, 53.7 427.7, 53.7C427.7, 53.7 427.1, 53.5 427.1, 53.4C426.9, 53.3 426.6, 53.3 426.4, 53.3C426.3, 53.3 425.9, 53.3 425.6, 53.4C425.3, 53.5 425, 53.6 424.7, 53.8C424.6, 53.9 424.5, 54 424.3, 54C424, 54.2 423.8, 54.4 423.6, 54.6C423.4, 54.8 423.2, 55.1 423.2, 55.5C423.1, 55.8 423.1, 56.2 423.2, 56.5C423.2, 56.8 423.3, 57.1 423.5, 57.4C423.6, 57.6 423.8, 57.7 423.9, 57.9C424.2, 58.2 424.6, 58.4 425, 58.5C425.2, 58.5 425.4, 58.6 425.7, 58.6C425.8, 58.6 426, 58.6 426.1, 58.5C426.2, 58.5 426.4, 58.5 426.5, 58.6C427, 58.6 427.4, 58.5 427.8, 58.3C428, 58.2 428.1, 58 428.3, 57.9C428.6, 57.6 428.8, 57.2 428.9, 56.8C428.9, 56.7 428.9, 56.7 428.9, 56.6C428.9, 56.7 429, 56.3 429, 56C429, 56.1 429, 56 429, 56C429, 56 429, 56 429, 56zM261.1, 395.8C260.6, 395.3 260, 394.9 259.3, 394.6C258.6, 394.2 257.9, 394.1 257.1, 394.1C256.6, 394.2 256.1, 394.2 255.6, 394.3C254.6, 394.6 253.8, 395 253.1, 395.7L252.2, 396.8C251.7, 397.7 251.4, 398.6 251.4, 399.6L251.4, 400.4C251.4, 401.2 251.5, 401.9 251.9, 402.6C252.1, 403.3 252.5, 403.9 253.1, 404.4C253.6, 404.9 254.2, 405.3 254.9, 405.6C255.6, 406 256.3, 406.1 257.1, 406.1C257.6, 406 258.1, 406 258.6, 405.9C259.6, 405.6 260.4, 405.2 261.1, 404.5C261.4, 404.1 261.7, 403.7 262, 403.4C262.5, 402.5 262.8, 401.6 262.8, 400.6L262.8, 399.8C262.8, 399 262.7, 398.3 262.3, 397.6C262.1, 396.9 261.7, 396.3 261.1, 395.8zM194.9, 259.8C194, 258.8 192.9, 258.1 191.7, 257.7C190.5, 257.1 189.2, 256.8 187.8, 256.8C186.9, 256.9 186, 257 185.1, 257.2C183.4, 257.7 181.9, 258.5 180.7, 259.8C180.2, 260.5 179.7, 261.1 179.1, 261.8C178.2, 263.4 177.7, 265 177.7, 266.8L177.7, 267.6C177.6, 269 177.9, 270.3 178.6, 271.5C179, 272.7 179.7, 273.8 180.7, 274.7C181.6, 275.7 182.7, 276.4 183.9, 276.8C185.1, 277.4 186.4, 277.7 187.8, 277.7C188.7, 277.6 189.6, 277.5 190.5, 277.3C192.2, 276.8 193.7, 276 194.9, 274.7C195.4, 274 195.9, 273.4 196.5, 272.7C197.4, 271.1 197.9, 269.5 197.9, 267.7L197.9, 266.9C198, 265.5 197.7, 264.2 197, 263C196.5, 261.8 195.8, 260.7 194.9, 259.8zM227, 85.7C226.2, 84.9 225.3, 84.5 224.3, 84.1C223.8, 83.9 223.3, 83.9 222.8, 84C222.3, 84 221.8, 84.2 221.4, 84.4C220.6, 84.9 219.9, 85.7 219.7, 86.6C219.5, 87.6 219.5, 88.6 220.1, 89.5C220.3, 89.8 220.5, 90 220.7, 90.3C221, 90.6 221.3, 90.8 221.6, 90.9C221.6, 90.9 221.7, 90.9 221.7, 91C222, 91.6 222.5, 92.2 223.1, 92.5C223.9, 93 225.1, 93.2 226, 92.9C226.9, 92.6 227.8, 92 228.2, 91.2C228.7, 90.3 228.9, 89.3 228.6, 88.3C228.2, 87.3 227.8, 86.4 227, 85.7zM274.5, 53.1C267.3, 53.1 267.2, 64.3 274.5, 64.3C281.7, 64.4 281.7, 53.1 274.5, 53.1zM345.3, 177C344.2, 176 342.8, 175.3 341.3, 175.4C341.1, 175.4 340.9, 175.5 340.7, 175.5C340.4, 175.4 340, 175.4 339.7, 175.4C338.9, 175.4 338.2, 175.5 337.5, 175.9C336.8, 176.1 336.2, 176.5 335.7, 177.1C334.7, 178.2 334, 179.6 334.1, 181.1C334.2, 182.6 334.7, 184 335.7, 185.1C336.1, 185.5 336.6, 185.8 337, 186.1C337.1, 186.2 337.2, 186.2 337.2, 186.3C338.2, 186.9 339.3, 187.2 340.4, 187.2C341.5, 187.2 342.1, 187 343, 186.6C344, 186.2 344.3, 185.9 345.3, 185.1C345.8, 184.6 346.2, 184 346.5, 183.3C346.9, 182.6 347, 181.9 347, 181.1C347, 180.3 346.9, 179.6 346.5, 178.9C346.3, 178.1 345.9, 177.5 345.3, 177z" class="st1" tag="st10" />
    <g tag="Element3">
      <path d="M207.6, 140.7C204.9, 138.2 202.3, 135.6 199.6, 133.1C197.6, 131.2 195.3, 129.3 194, 126.9C193.6, 125.7 193.6, 124.5 193.5, 123.2C193.3, 120.7 193.8, 118.2 193.2, 115.7C192.1, 111.6 186.9, 112.8 183.9, 113.6C182.2, 114.1 180.6, 114.6 179, 115.3C178.5, 115.5 178.3, 116.1 178.2, 116.6C178.1, 118.6 178.2, 120.7 177.9, 122.7C177.6, 124.3 177.1, 125.9 176.5, 127.4C174.7, 129.7 173.1, 132.2 171.5, 133.8C167.3, 138.3 160.8, 142.4 158.1, 148.1C155.7, 153.2 158.8, 158.9 162.4, 162.5C166.8, 166.8 172.5, 169.6 176.7, 174.1C179.6, 177.1 182.3, 183.9 187.5, 182.7C189.9, 182.2 190.9, 180.2 192.4, 178.4C194.8, 175.4 197.7, 172.7 200.3, 169.9C202.7, 167.4 205.4, 165.3 208.2, 163.3C210.6, 161.6 212.9, 159.7 214.2, 156.9C217.2, 150.6 212, 144.9 207.6, 140.7z" class="st2" tag="st20" />
      <path d="M203, 152.3C203, 152.9 202.5, 153.4 201.9, 153.4C201.8, 153.4 201.8, 153.4 201.7, 153.4C201.7, 153.4 201.7, 153.4 201.8, 153.4C201.8, 153.4 201.7, 153.4 201.7, 153.4C201.7, 153.4 201.7, 153.4 201.7, 153.4C201.6, 153.4 201.6, 153.4 201.6, 153.4C201.6, 153.4 201.5, 153.4 201.5, 153.4C201.4, 153.4 201.3, 153.4 201.3, 153.5C201.3, 153.5 201.2, 153.5 201.2, 153.5C200.9, 153.7 200.5, 153.9 200.2, 154.1C199.9, 154.3 199.6, 154.5 199.3, 154.8C199.7, 155.1 200.2, 155.3 200.7, 155.5C202, 156.2 200.9, 158.1 199.5, 157.5C199, 157.2 198.5, 157 198, 156.7C197.9, 157.1 197.9, 157.6 197.8, 158C197.7, 158.5 197.6, 158.9 197.5, 159.4C197.5, 159.6 197.4, 159.8 197.4, 160.1C197.4, 160.1 197.4, 160.1 197.4, 160.2C197.4, 160.3 197.4, 160.4 197.4, 160.6C197.3, 161.2 196.9, 161.7 196.3, 161.7C195.7, 161.7 195.1, 161.2 195.2, 160.6C195.3, 159.6 195.5, 158.6 195.7, 157.7C195.7, 157.5 195.8, 157.2 195.8, 157C195.8, 156.9 195.8, 156.8 195.8, 156.7C195.8, 156.7 195.8, 156.6 195.8, 156.6C195.8, 156.6 195.8, 156.6 195.8, 156.6C195.8, 156.2 195.9, 155.9 195.8, 155.5C193.2, 153.8 190.8, 151.9 188.3, 150.1C188.3, 150.6 188.3, 151.2 188.3, 151.7C188.2, 154.7 188.1, 157.7 188.2, 160.7C188.2, 161 188.2, 161.4 188.2, 161.7C188.4, 161.7 188.6, 161.8 188.7, 161.8C189.9, 162.5 191.1, 163 192.4, 163.6C193, 163.9 193.1, 164.7 192.8, 165.2C192.7, 165.4 192.4, 165.7 192.1, 165.7C191.8, 165.8 191.5, 165.7 191.2, 165.6C190.2, 165.1 189.2, 164.7 188.2, 164.2C188.2, 164.4 188.2, 164.7 188.2, 164.9C188.2, 165.4 188.2, 165.8 188.1, 166.3C188.1, 166.5 188.1, 166.7 188.1, 166.9C188.1, 166.9 188.1, 166.9 188.1, 167C188.3, 167.5 188.2, 168.1 187.7, 168.4C187.7, 168.4 187.7, 168.4 187.6, 168.4C187.2, 168.6 186.8, 168.6 186.4, 168.4C185.6, 167.9 185.8, 166.9 185.8, 166.1C185.8, 165.7 185.9, 165.2 185.9, 164.8C185.5, 165.1 185, 165.3 184.6, 165.6C184.4, 165.8 184.2, 165.9 184.1, 166.1C183.7, 166.6 182.9, 166.5 182.5, 166.1C182, 165.7 182.1, 164.9 182.5, 164.5C183, 163.9 183.7, 163.5 184.3, 163.1C184.8, 162.8 185.4, 162.5 185.9, 162.1C185.8, 159.1 185.8, 156.1 185.9, 153C185.9, 152.4 185.9, 151.8 185.9, 151.1C183.8, 152.3 181.9, 153.6 180, 155C180.2, 155.3 180.3, 155.6 180.2, 155.9C179.5, 157.7 179.5, 159.8 178.8, 161.6C178.6, 162.2 178, 162.6 177.4, 162.4C176.8, 162.3 176.4, 161.5 176.6, 161C177.1, 159.6 177.3, 158.1 177.6, 156.6C176.3, 157.4 174.9, 158 173.7, 158.9C173.6, 159.4 173.3, 159.9 172.6, 159.9C172.5, 159.9 172.3, 159.9 172.2, 159.9C171.2, 160.1 170.1, 158.8 171.1, 158C172.4, 156.8 174, 156 175.5, 155.1C175.5, 155.1 175.4, 155.1 175.4, 155.1C175, 155 174.6, 154.9 174.1, 154.8C173.9, 154.7 173.7, 154.7 173.5, 154.7C173.4, 154.7 173.3, 154.7 173.2, 154.6C173.1, 154.6 173.1, 154.6 173, 154.6C173, 154.6 173.1, 154.6 173.1, 154.6C172.8, 154.6 172.5, 154.5 172.3, 154.3C172.1, 154.1 172, 153.8 172, 153.5C172, 153.2 172.1, 152.9 172.3, 152.7C172.5, 152.5 172.8, 152.3 173.1, 152.4C174, 152.5 174.9, 152.7 175.8, 153C176.2, 153.1 176.6, 153.2 177, 153.3C177, 153.3 177.1, 153.3 177.1, 153.3C177.2, 153.3 177.2, 153.3 177.3, 153.3C177.5, 153.3 177.6, 153.3 177.8, 153.3C178, 153.3 178.2, 153.3 178.3, 153.4C180.4, 151.9 182.6, 150.3 184.9, 149.1C185.2, 148.9 185.6, 148.7 185.9, 148.5C185.9, 148.5 185.9, 148.5 185.9, 148.5C185.7, 148.3 185.4, 148.2 185.2, 148C183.5, 147 181.6, 146 179.8, 145.1C179.7, 145.2 179.5, 145.2 179.3, 145.2C179.3, 145.2 179.2, 145.2 179.2, 145.2C179.1, 145.2 179, 145.2 179, 145.2C178.8, 145.2 178.6, 145.3 178.5, 145.4C178.5, 145.4 178.5, 145.4 178.4, 145.4C178.3, 145.4 178.2, 145.5 178.2, 145.5C178, 145.6 177.9, 145.7 177.7, 145.8C177, 146.2 176.4, 146.6 175.8, 147C175.3, 147.3 174.6, 147.1 174.2, 146.6C173.9, 146.1 174.1, 145.3 174.6, 145C175.4, 144.5 176.1, 144 176.9, 143.6C175.4, 143 173.6, 142.2 173.2, 140.6C172.8, 139.2 175, 138.6 175.4, 140C175.5, 140.5 176.9, 141 177.3, 141.2C177.9, 141.5 178.4, 141.7 179, 142C179, 141.4 179, 140.8 178.9, 140.3C178.9, 140 178.8, 139.6 178.7, 139.3C178.6, 139 178.7, 138.7 178.8, 138.4C178.9, 138.1 179.2, 138 179.5, 137.9C179.8, 137.8 180.1, 137.9 180.4, 138C180.7, 138.2 180.8, 138.4 180.9, 138.7C181, 139 181.1, 139.3 181.1, 139.6C181.2, 140.1 181.2, 140.6 181.3, 141.1C181.3, 141.5 181.3, 141.8 181.3, 142.2C181.3, 142.5 181.2, 142.8 181.1, 143.1C182.7, 143.9 184.3, 144.7 185.9, 145.6C185.9, 144.9 185.9, 144.2 185.9, 143.5C185.9, 142.4 185.8, 141.3 185.8, 140.1C185.6, 140 185.4, 139.9 185.3, 139.9C184.7, 139.7 184.2, 139.5 183.6, 139.2C183.3, 139.1 183.2, 138.8 183.1, 138.5C183, 138.2 183.1, 137.9 183.2, 137.6C183.3, 137.4 183.6, 137.1 183.9, 137.1C184.2, 137 184.5, 137.1 184.8, 137.2C184.9, 137.2 185, 137.3 185.1, 137.3C185.4, 137.4 185.7, 137.5 186, 137.7C186, 137 185.9, 136.4 185.7, 135.7C185.1, 134.3 187.4, 133.7 187.9, 135.1C188.2, 135.8 188.3, 136.5 188.3, 137.2C188.5, 137 188.7, 136.7 188.9, 136.5C189.1, 136.3 189.4, 136.2 189.7, 136.2C190, 136.2 190.3, 136.3 190.5, 136.5C190.7, 136.7 190.8, 137 190.8, 137.3C190.8, 137.6 190.7, 137.9 190.5, 138.1C189.8, 138.9 189.2, 139.8 188.5, 140.5C188.4, 140.6 188.3, 140.6 188.2, 140.7C188.2, 141.3 188.2, 141.9 188.2, 142.6C188.2, 144.1 188.3, 145.5 188.3, 147C189.8, 146.1 191.3, 145.1 192.9, 144.2C193.4, 143.9 193.8, 143.6 194.3, 143.3C194.3, 143.2 194.2, 143 194.2, 142.9C194.2, 142.6 194.3, 142.4 194.4, 142.2C194.4, 142.2 194.4, 142.2 194.4, 142.2C194.4, 142.2 194.4, 142.1 194.4, 142.1C194.4, 142.1 194.4, 142.1 194.4, 142C194.5, 141.8 194.5, 141.6 194.6, 141.4C194.6, 141.2 194.6, 140.9 194.7, 140.7C194.7, 140.8 194.6, 140.8 194.6, 140.9C194.6, 140.8 194.7, 140.7 194.7, 140.7C194.7, 140.1 194.9, 139.5 195, 138.9C195.1, 138.3 195.7, 138 196.3, 138.1C196.6, 138.1 196.8, 138.2 197, 138.4C197.2, 138.6 197.4, 138.9 197.3, 139.2C197.3, 139.3 197.3, 139.4 197.3, 139.5C197.4, 139.7 197.4, 139.9 197.3, 140.2C197.2, 140.5 197.1, 140.8 197, 141.2C197, 141.3 197, 141.4 197, 141.5C197.8, 141 198.6, 140.6 199.5, 140.4C200.9, 140 201.5, 142.2 200.1, 142.6C199.4, 142.8 198.8, 143.1 198.2, 143.5C198.9, 144 199.7, 144.3 200.4, 144.8C200.7, 145 200.8, 145.2 200.9, 145.5C201, 145.8 200.9, 146.1 200.8, 146.4C200.7, 146.6 200.4, 146.9 200.1, 146.9C199.8, 147 199.4, 147 199.2, 146.8C198.2, 146.1 197.1, 145.6 196.1, 144.8C195.2, 145.4 194.3, 146 193.4, 146.6C192.3, 147.3 191.2, 147.9 190.1, 148.6C192.3, 150.2 194.5, 151.9 196.8, 153.5C196.9, 153.4 197, 153.4 197.1, 153.3C197.1, 153.3 197.2, 153.3 197.2, 153.3C197.3, 153.3 197.3, 153.2 197.4, 153.2C197.6, 153.1 197.8, 153 197.9, 152.9C198.2, 152.7 198.5, 152.4 198.9, 152.2C199.7, 151.6 200.6, 151.2 201.6, 151.2C202.5, 151.2 203, 151.7 203, 152.3zM201.6, 153.5C201.6, 153.5 201.6, 153.5 201.7, 153.5C201.7, 153.5 201.7, 153.5 201.7, 153.5C201.6, 153.5 201.6, 153.5 201.6, 153.5z" class="st1" tag="st11" />
      <path d="M177.7, 125.3C180, 125.2 182.3, 125.1 184.5, 124.9C186.2, 124.7 187.8, 124.6 189.5, 124.4C190.9, 124.3 192.2, 124.2 193.6, 124.1C193.6, 123.8 193.5, 123.4 193.5, 123.1C193.4, 121.4 193.6, 119.6 193.5, 117.9C188.4, 118.7 183.2, 118.3 178.1, 119.1C178.1, 120.3 178, 121.5 177.8, 122.7C177.6, 123.6 177.4, 124.5 177.1, 125.4C177.3, 125.4 177.5, 125.3 177.7, 125.3z" class="st3" tag="st30" />
      <path d="M195.6, 118.7C195.1, 116.2 195, 113.5 195.1, 110.9C195.2, 109.3 195.6, 106.6 193.4, 106.4C192.2, 106.3 190.9, 106.6 189.8, 106.7C189.1, 106.7 188.4, 106.8 187.8, 106.8C187.6, 106.3 187, 106 186.3, 106.2C184.7, 106.7 182.8, 106.8 181.2, 107.5C180.8, 107.6 180.4, 107.6 180, 107.7C178.9, 107.9 177.5, 107.8 176.5, 108.4C175.4, 109.1 175.2, 110.2 175.3, 111.4C175.3, 112.7 175.4, 114 175.5, 115.2C175.5, 116.5 175.6, 117.8 175.3, 119C175.1, 119.9 174.9, 121 175.8, 121.7C176.7, 122.3 177.7, 122 178.4, 121.3C178.6, 121.1 178.9, 120.6 179.2, 120.4C179.2, 120.4 179.3, 120.4 179.4, 120.5C179.6, 120.7 179.8, 120.9 180.1, 121C180.1, 121 180.1, 121 180.1, 121C180.2, 121.1 180.3, 121.2 180.4, 121.3C180.5, 121.4 180.7, 121.4 180.8, 121.4C180.8, 121.4 180.8, 121.4 180.8, 121.4C181.6, 121.7 182.5, 121.7 183.4, 121.2C183.9, 120.9 184.4, 120.6 184.8, 120.2C184.9, 120.1 185, 120 185.2, 119.9C185.9, 120.9 187.2, 121.2 188.4, 120.9C189, 120.7 189.5, 120.2 190.1, 120.1C190.6, 120 190.8, 120.4 191, 120.7C191.6, 121.8 192.7, 122.5 194, 122.3C195.3, 122.1 196.3, 121.1 196.5, 119.8C196.3, 119.2 196, 118.9 195.6, 118.7z" class="st4" tag="st40" />
    </g>
    <g tag="Element4">
      <path d="M790.9, 350.5C788.8, 348.6 786.8, 346.6 784.8, 344.7C783.3, 343.2 781.5, 341.8 780.5, 339.9C780.2, 339 780.2, 338 780.1, 337C780, 335.1 780.3, 333.1 779.9, 331.3C779.1, 328.1 775.1, 329 772.8, 329.7C771.5, 330 770.2, 330.5 769, 331C768.6, 331.2 768.4, 331.6 768.4, 332C768.4, 333.6 768.4, 335.2 768.2, 336.7C768, 337.9 767.6, 339.1 767.1, 340.3C765.7, 342.1 764.5, 343.9 763.3, 345.2C760.1, 348.6 755.1, 351.8 753.1, 356.2C751.2, 360.1 753.6, 364.5 756.4, 367.3C759.8, 370.6 764.1, 372.7 767.4, 376.2C769.6, 378.5 771.7, 383.7 775.7, 382.8C777.5, 382.4 778.3, 380.9 779.4, 379.5C781.2, 377.2 783.4, 375.1 785.5, 373C787.4, 371.1 789.4, 369.5 791.6, 367.9C793.4, 366.6 795.2, 365.1 796.2, 363C798.2, 358 794.3, 353.7 790.9, 350.5z" class="st5" tag="st50" />
      <path d="M777.4, 340.4C778.4, 340 779.4, 339.7 780.3, 339.1C780.2, 338.4 780.1, 337.7 780.1, 337C780, 335.1 780.3, 333.1 779.9, 331.3C779.9, 331.3 779.9, 331.3 779.9, 331.3C779.8, 331.3 779.8, 331.3 779.7, 331.3C775.8, 331.9 772.1, 333.3 768.3, 334.3C768.3, 335.1 768.2, 335.9 768.1, 336.7C767.9, 337.9 767.5, 339.1 767, 340.3C766.4, 341.1 765.8, 341.9 765.3, 342.6C767.5, 343 770.1, 342.4 771.9, 342C773.8, 341.6 775.6, 341.1 777.4, 340.4z" class="st3" tag="st31" />
      <path d="M781.7, 333.6C781.3, 331.7 781.3, 329.6 781.4, 327.6C781.5, 326.4 781.8, 324.3 780.1, 324.2C779.2, 324.1 778.2, 324.4 777.3, 324.4C776.8, 324.4 776.3, 324.5 775.7, 324.5C775.5, 324.1 775.1, 323.9 774.6, 324C773.4, 324.4 771.9, 324.5 770.7, 325C770.4, 325 770.1, 325.1 769.8, 325.1C768.9, 325.2 767.9, 325.2 767.1, 325.7C766.3, 326.2 766.1, 327.1 766.2, 328C766.2, 329 766.3, 330 766.3, 330.9C766.3, 331.9 766.3, 332.9 766.1, 333.8C765.9, 334.5 765.8, 335.3 766.5, 335.8C767.2, 336.3 767.9, 336 768.5, 335.5C768.7, 335.3 768.9, 334.9 769.2, 334.8C769.2, 334.8 769.3, 334.8 769.4, 334.9C769.5, 335 769.7, 335.2 769.9, 335.3C769.9, 335.3 769.9, 335.3 769.9, 335.3C770, 335.4 770.1, 335.5 770.2, 335.5C770.3, 335.6 770.4, 335.6 770.5, 335.6C770.5, 335.6 770.5, 335.6 770.5, 335.6C771.1, 335.8 771.8, 335.8 772.5, 335.4C772.9, 335.2 773.2, 334.9 773.5, 334.6C773.6, 334.5 773.7, 334.4 773.8, 334.3C774.4, 335.1 775.4, 335.3 776.2, 335C776.6, 334.9 777, 334.5 777.5, 334.4C777.9, 334.3 778, 334.6 778.2, 334.9C778.7, 335.7 779.5, 336.3 780.5, 336.1C781.5, 336 782.2, 335.1 782.4, 334.1C782.2, 334 782, 333.7 781.7, 333.6z" class="st4" tag="st41" />
      <path d="M776.4, 352.8C776.4, 352.9 776.4, 352.9 776.4, 352.8C776.4, 352.9 776.4, 352.9 776.4, 352.8C776.4, 352.9 776.4, 352.9 776.4, 352.8C776.4, 352.8 776.4, 352.8 776.4, 352.8zM776.4, 352.8C776.4, 352.8 776.4, 352.8 776.4, 352.8C776.4, 352.8 776.4, 352.8 776.4, 352.8C776.4, 352.8 776.4, 352.8 776.4, 352.8C776.4, 352.8 776.4, 352.8 776.4, 352.8C776.4, 352.8 776.4, 352.8 776.4, 352.8C776.4, 352.8 776.4, 352.8 776.4, 352.8C776.4, 352.7 776.4, 352.7 776.4, 352.8C776.4, 352.7 776.4, 352.7 776.4, 352.8C776.4, 352.8 776.4, 352.8 776.4, 352.8zM777.7, 353.3C777.7, 353.3 777.7, 353.3 777.7, 353.3C777.7, 353.3 777.7, 353.3 777.7, 353.3C777.7, 353.3 777.7, 353.3 777.7, 353.3zM777.7, 353.3C777.7, 353.3 777.7, 353.3 777.7, 353.3C777.7, 353.4 777.7, 353.4 777.7, 353.3C777.7, 353.4 777.7, 353.4 777.7, 353.3zM776.4, 352.9C776.4, 353 776.4, 353 776.4, 353.1C776.4, 353.1 776.4, 353.2 776.4, 353.2C776.4, 353.2 776.4, 353.2 776.4, 353.1C776.5, 353.2 776.5, 353.3 776.6, 353.4C776.6, 353.4 776.6, 353.4 776.7, 353.5C776.7, 353.5 776.8, 353.6 776.8, 353.6C776.8, 353.6 776.9, 353.7 776.9, 353.7C776.9, 353.7 776.9, 353.7 777, 353.8C777, 353.8 777, 353.8 777, 353.8C777.1, 353.9 777.2, 354 777.3, 354.2C777.4, 354.2 777.4, 354.2 777.4, 354.2C777.4, 354.2 777.4, 354.2 777.4, 354.2C777.4, 354.2 777.4, 354.2 777.5, 354.1C777.5, 354.1 777.5, 354.1 777.6, 354C777.6, 354 777.7, 353.9 777.7, 353.9C777.7, 353.9 777.7, 353.9 777.7, 353.8C777.7, 353.7 777.7, 353.7 777.7, 353.6C777.7, 353.6 777.7, 353.6 777.7, 353.5C777.7, 353.5 777.7, 353.4 777.7, 353.4C777.7, 353.4 777.7, 353.4 777.7, 353.4C777.7, 353.4 777.7, 353.4 777.7, 353.3C777.7, 353.3 777.7, 353.3 777.7, 353.3C777.7, 353.3 777.7, 353.2 777.7, 353.2C777.7, 353.2 777.7, 353.2 777.7, 353.2C777.7, 353.2 777.7, 353.2 777.7, 353.2C777.7, 353.2 777.7, 353.2 777.6, 353.1C777.6, 353.1 777.6, 353.1 777.6, 353.1C777.6, 353.1 777.6, 353.1 777.5, 353C777.5, 353 777.4, 352.9 777.4, 352.9C777.4, 352.9 777.4, 352.9 777.3, 352.9C777.2, 352.9 777.2, 352.9 777.1, 352.8C777.1, 352.8 777, 352.8 777, 352.8C777, 352.8 777, 352.8 777, 352.8C776.9, 352.8 776.9, 352.8 777, 352.8C777, 352.8 777, 352.8 777, 352.8C776.9, 352.8 776.8, 352.8 776.8, 352.8C776.7, 352.8 776.7, 352.8 776.6, 352.8C776.6, 352.8 776.6, 352.8 776.6, 352.8C776.6, 352.8 776.6, 352.8 776.5, 352.8C776.5, 352.8 776.5, 352.8 776.5, 352.8C776.4, 352.8 776.4, 352.8 776.4, 352.9C776.4, 352.8 776.4, 352.8 776.4, 352.9zM769.6, 354.1C769.6, 354.1 769.6, 354.1 769.6, 354.1C769.6, 354.1 769.6, 354 769.6, 354.1C769.6, 354 769.6, 354 769.6, 354.1zM769.6, 354C769.6, 354 769.6, 354 769.6, 354C769.6, 354 769.6, 354 769.6, 354C769.6, 354 769.6, 354 769.6, 354C769.6, 354 769.6, 354 769.6, 354zM776.4, 352.8C776.4, 352.8 776.4, 352.8 776.4, 352.8C776.4, 352.8 776.4, 352.8 776.4, 352.8C776.4, 352.7 776.4, 352.7 776.4, 352.8C776.4, 352.7 776.4, 352.7 776.4, 352.8C776.3, 352.8 776.3, 352.8 776.4, 352.8C776.4, 352.8 776.4, 352.8 776.4, 352.8zM776.4, 352.7L776.4, 352.7C776.4, 352.7 776.4, 352.7 776.4, 352.7C776.4, 352.7 776.4, 352.7 776.4, 352.7C776.4, 352.7 776.4, 352.7 776.4, 352.7zM776.4, 352.7C776.4, 352.7 776.4, 352.7 776.4, 352.7C776.4, 352.7 776.4, 352.7 776.4, 352.7C776.4, 352.7 776.4, 352.7 776.4, 352.7C776.4, 352.8 776.4, 352.8 776.4, 352.7C776.4, 352.7 776.4, 352.7 776.4, 352.7zM770.6, 354.5C770.6, 354.5 770.6, 354.5 770.6, 354.5C770.6, 354.5 770.6, 354.5 770.6, 354.5C770.6, 354.5 770.6, 354.5 770.6, 354.5zM776.4, 352.7C776.4, 352.7 776.4, 352.7 776.4, 352.7C776.4, 352.7 776.4, 352.7 776.4, 352.7L776.4, 352.7C776.4, 352.7 776.4, 352.7 776.4, 352.7C776.4, 352.7 776.4, 352.7 776.4, 352.7zM776.4, 352.7C776.4, 352.7 776.4, 352.7 776.4, 352.7C776.4, 352.7 776.4, 352.7 776.4, 352.7C776.4, 352.7 776.4, 352.7 776.4, 352.7zM776.4, 352.7C776.4, 352.7 776.4, 352.7 776.4, 352.7C776.4, 352.7 776.4, 352.7 776.4, 352.7C776.4, 352.7 776.4, 352.7 776.4, 352.7L776.4, 352.7L776.4, 352.7zM777.5, 353C777.5, 353 777.5, 353 777.5, 353C777.5, 353 777.5, 353 777.5, 353C777.5, 353 777.5, 353 777.5, 353zM776.4, 352.7C776.4, 352.7 776.4, 352.7 776.4, 352.7C776.4, 352.7 776.4, 352.7 776.4, 352.7C776.4, 352.7 776.4, 352.7 776.4, 352.7zM776.4, 352.7C776.5, 352.6 776.4, 352.6 776.4, 352.7C776.4, 352.7 776.4, 352.7 776.4, 352.7C776.4, 352.7 776.4, 352.7 776.4, 352.7C776.4, 352.7 776.4, 352.7 776.4, 352.7zM776.4, 352.7C776.4, 352.7 776.4, 352.7 776.4, 352.7C776.4, 352.7 776.4, 352.7 776.4, 352.7C776.4, 352.7 776.4, 352.7 776.4, 352.7zM776.4, 352.7C776.4, 352.7 776.4, 352.7 776.4, 352.7C776.4, 352.7 776.4, 352.7 776.4, 352.7C776.4, 352.7 776.4, 352.7 776.4, 352.7zM776.5, 352.7C776.5, 352.7 776.4, 352.7 776.5, 352.7C776.4, 352.7 776.4, 352.7 776.5, 352.7C776.4, 352.7 776.4, 352.7 776.5, 352.7C776.5, 352.7 776.5, 352.7 776.5, 352.7C776.5, 352.7 776.5, 352.7 776.5, 352.7C776.5, 352.7 776.5, 352.7 776.5, 352.7zM776.4, 352.7C776.4, 352.7 776.4, 352.7 776.4, 352.7C776.4, 352.7 776.4, 352.7 776.4, 352.7C776.4, 352.7 776.4, 352.7 776.4, 352.7zM777.5, 353C777.5, 353 777.5, 353 777.5, 353C777.5, 353 777.6, 353.1 777.5, 353C777.6, 353.1 777.6, 353.1 777.5, 353zM778.6, 362.5C778.6, 362.5 778.6, 362.5 778.6, 362.5C778.6, 362.5 778.6, 362.5 778.6, 362.5C778.6, 362.5 778.6, 362.5 778.6, 362.5C778.6, 362.5 778.6, 362.5 778.6, 362.5C778.6, 362.5 778.6, 362.5 778.6, 362.5C778.6, 362.5 778.6, 362.5 778.6, 362.5zM780.2, 357.6C780.1, 357.6 780.1, 357.6 780.2, 357.6C780.1, 357.5 780.1, 357.5 780.2, 357.6C780.1, 357.6 780.1, 357.5 780.1, 357.5C780.1, 357.5 780, 357.5 780, 357.5C780, 357.7 779.9, 357.8 779.8, 358C779.9, 358.3 779.8, 358.7 779.5, 358.9C779.5, 358.9 779.5, 358.9 779.5, 358.9C779.5, 358.9 779.5, 358.9 779.5, 358.9C779.5, 358.9 779.6, 358.9 779.6, 358.9C779.6, 358.9 779.7, 358.9 779.7, 358.9C779.7, 358.9 779.8, 358.9 779.8, 358.8C779.8, 358.8 779.9, 358.7 779.9, 358.7C779.9, 358.6 780, 358.6 780, 358.5C780, 358.4 780.1, 358.3 780.1, 358.2C780.1, 358.1 780.1, 357.9 780.1, 357.8C780.2, 357.8 780.2, 357.7 780.2, 357.6C780.2, 357.6 780.2, 357.6 780.2, 357.6zM778.2, 364.4C778.1, 364.4 778.2, 364.4 778.2, 364.4C778.2, 364.3 778.2, 364.3 778.2, 364.4C778.2, 364.3 778.2, 364.3 778.2, 364.4C778.2, 364.4 778.2, 364.4 778.2, 364.4zM772.2, 364.1C772.2, 364.1 772.2, 364.1 772.2, 364.1C772.2, 364.1 772.2, 364.1 772.2, 364.1C772.2, 364.1 772.2, 364.2 772.2, 364.1C772.2, 364.1 772.2, 364.1 772.2, 364.1zM778.6, 362.4C778.6, 362.4 778.6, 362.4 778.6, 362.4C778.6, 362.4 778.6, 362.4 778.6, 362.4C778.6, 362.4 778.6, 362.4 778.6, 362.4C778.6, 362.4 778.6, 362.4 778.6, 362.4zM778.4, 364.1C778.5, 364.1 778.5, 364 778.4, 364.1C778.5, 364.1 778.5, 364.1 778.4, 364.1C778.5, 364.1 778.5, 364.1 778.4, 364.1C778.4, 364.1 778.4, 364.1 778.4, 364.1zM777.2, 364.1C777.2, 364.1 777.2, 364.2 777.3, 364.2C777.3, 364.2 777.3, 364.3 777.4, 364.3C777.4, 364.3 777.4, 364.3 777.5, 364.4C777.5, 364.4 777.5, 364.4 777.5, 364.4C777.5, 364.4 777.6, 364.4 777.6, 364.5C777.7, 364.5 777.7, 364.5 777.8, 364.5C777.9, 364.5 777.9, 364.5 778, 364.5C778.1, 364.5 778.1, 364.5 778.2, 364.5C778.3, 364.5 778.3, 364.4 778.4, 364.4C778.4, 364.4 778.4, 364.4 778.4, 364.4C778.4, 364.4 778.5, 364.3 778.5, 364.3C778.5, 364.3 778.6, 364.2 778.6, 364.2C778.6, 364.2 778.6, 364.2 778.6, 364.2C778.6, 364.2 778.6, 364.2 778.6, 364.2C778.7, 364.1 778.7, 364 778.7, 364C778.8, 363.9 778.8, 363.7 778.8, 363.5C778.8, 363.3 778.8, 363.1 778.8, 362.9C778.8, 362.8 778.8, 362.7 778.7, 362.6C778.7, 362.6 778.7, 362.6 778.7, 362.6C778.7, 362.6 778.7, 362.6 778.7, 362.6L778.7, 362.6C778.7, 362.7 778.6, 362.8 778.5, 362.8C778.4, 363 778.2, 363.2 778, 363.2C777.9, 363.2 777.9, 363.2 777.8, 363.3C777.7, 363.3 777.6, 363.4 777.5, 363.5C777.5, 363.5 777.4, 363.6 777.4, 363.6C777.4, 363.6 777.4, 363.6 777.4, 363.6C777.4, 363.6 777.3, 363.7 777.3, 363.7C777.3, 363.7 777.3, 363.7 777.3, 363.7C777.3, 363.7 777.2, 363.8 777.2, 363.8C777.2, 363.8 777.2, 363.9 777.2, 363.9C777.2, 363.9 777.2, 364 777.2, 364C777.1, 364 777.1, 364 777.2, 364.1zM778.3, 364.3C778.2, 364.3 778.2, 364.3 778.3, 364.3C778.2, 364.3 778.2, 364.3 778.3, 364.3C778.2, 364.3 778.2, 364.3 778.3, 364.3zM778.4, 364.1C778.4, 364.1 778.4, 364.1 778.4, 364.1C778.4, 364.1 778.4, 364.1 778.4, 364.1zM779.5, 368.8C778.8, 369.3 778.1, 369.7 777.4, 370C771, 372.9 763.9, 369.5 762.6, 362.5C762.3, 360.9 762.3, 359.3 762.7, 357.8C762.7, 357.7 762.7, 357.6 762.7, 357.5C762.8, 356.8 763, 356.1 763.3, 355.4C763.8, 353.3 764.9, 351.3 766.5, 349.8C771.2, 345.4 778.1, 345.2 782, 350.3C783.5, 351.1 784.9, 352.2 785.9, 353.7C790.4, 360.4 785.8, 366.5 779.5, 368.8zM781, 356.4C780.5, 356 779.9, 356 779.3, 356.2C779, 356.3 778.7, 356.5 778.6, 356.7C777.6, 356.8 776.6, 356.9 775.7, 357C775.7, 356.9 775.8, 356.9 775.8, 356.8C776.1, 356.4 776.4, 356 776.6, 355.6C776.8, 355.7 777, 355.8 777.2, 355.7C778, 355.5 778.6, 354.9 778.9, 354.1C779.2, 353.4 779, 352.6 778.5, 352C778, 351.4 777.1, 351.1 776.3, 351.2C775.9, 351.2 775.5, 351.4 775.2, 351.7C775, 352 774.8, 352.4 774.8, 352.8C774.8, 353.4 775.1, 353.9 775.5, 354.4C775.5, 354.4 775.4, 354.5 775.4, 354.5C775.2, 355.2 774.7, 355.7 774.3, 356.3C774, 356.6 773.8, 357 773.6, 357.3C773.5, 357.3 773.5, 357.3 773.4, 357.3C773.2, 357.1 773, 356.9 772.9, 356.8C772.8, 356.7 772.7, 356.6 772.6, 356.5C772.6, 356.4 772.5, 356.4 772.5, 356.3C772.5, 356.3 772.4, 356.2 772.4, 356.2C772.3, 356.1 772.3, 356 772.2, 355.9C772.9, 355.3 773.1, 354.4 773, 353.5C772.9, 352.9 772.6, 352.4 772.1, 352.1C771.7, 351.8 771.1, 351.8 770.6, 351.8C769.8, 351.9 768.8, 352.3 768.3, 353C767.9, 353.7 768.1, 354.6 768.6, 355.1C769.1, 355.6 769.8, 355.8 770.5, 355.8C770.6, 356.1 770.7, 356.4 770.9, 356.6C771.1, 357 771.4, 357.3 771.8, 357.7C771.2, 357.9 770.7, 358 770.1, 358.1C769.6, 358.2 769.1, 358.2 768.6, 358.4C768.6, 358.4 768.6, 358.4 768.5, 358.3C768.5, 358.1 768.4, 357.8 768.2, 357.7C767.8, 357.5 767.4, 357.4 766.9, 357.5C766.6, 357.6 766.3, 357.7 766.1, 358C765.6, 358.5 765.5, 359.2 765.6, 359.9C765.6, 360.2 765.8, 360.5 765.9, 360.7C766.2, 361 766.5, 361.3 766.9, 361.4C767.3, 361.6 767.8, 361.5 768.2, 361.3C768.6, 361.1 768.8, 360.8 768.9, 360.4C769, 360.2 769, 360 769, 359.7C769, 359.7 769, 359.7 769, 359.7C769.3, 359.5 770.1, 359.5 770.6, 359.4C771.3, 359.3 771.9, 359.1 772.5, 358.9C772.2, 359.4 771.8, 360 771.5, 360.5C771.3, 360.9 770.8, 361.6 770.7, 362.2C770, 362.4 769.4, 362.7 768.9, 363.2C768.5, 363.7 768.4, 364.3 768.5, 364.9C768.6, 365.5 769, 365.9 769.5, 366.2C770.4, 366.7 771.5, 366.7 772.4, 366.1C773.1, 365.6 773.6, 364.8 773.5, 364C773.5, 363.5 773.3, 363 772.9, 362.7C772.7, 362.5 772.5, 362.3 772.2, 362.2C772.7, 361.3 773.2, 360.5 773.7, 359.6C774.3, 360.1 775, 360.6 775.6, 361.1C776, 361.4 776.4, 361.7 776.9, 361.9C776.6, 362 776.3, 362.2 776.1, 362.5C775.8, 362.9 775.6, 363.3 775.5, 363.7C775.4, 364.5 775.9, 365.2 776.6, 365.6C776.9, 365.8 777.3, 365.9 777.7, 365.9C778.2, 365.9 778.6, 365.7 779, 365.3C779.8, 364.6 780.1, 363.4 779.9, 362.4C779.8, 361.7 779.4, 361.2 778.7, 361C778.4, 360.9 778.1, 360.9 777.9, 361C777.8, 360.9 777.7, 360.7 777.5, 360.7C777.5, 360.7 777.5, 360.7 777.5, 360.7C777.5, 360.7 777.4, 360.7 777.4, 360.7C777.3, 360.7 777.2, 360.6 777.1, 360.6C776.9, 360.5 776.7, 360.3 776.5, 360.2C776.2, 360 776, 359.8 775.8, 359.7C775.7, 359.7 775.7, 359.6 775.6, 359.6C775.6, 359.6 775.5, 359.5 775.5, 359.5C775.4, 359.4 775.2, 359.3 775.1, 359.2C774.9, 359.1 774.8, 358.9 774.6, 358.8C775.7, 358.6 776.9, 358.5 778, 358.4C778, 358.4 778, 358.4 778, 358.5C777.9, 358.8 777.8, 359.1 777.9, 359.4C778, 359.9 778.5, 360.3 779, 360.5C779.5, 360.6 780.1, 360.5 780.5, 360.2C780.9, 359.9 781.2, 359.4 781.4, 358.9C781.8, 357.9 781.7, 356.9 781, 356.4zM767.1, 359.1C767.1, 359.1 767.1, 359.1 767.1, 359.1C767.1, 359.1 767.1, 359.1 767.1, 359.1C767.1, 359.2 767.1, 359.2 767.1, 359.1C767.1, 359.2 767.1, 359.2 767.1, 359.1C767.1, 359.1 767.1, 359.1 767.1, 359.1C767.1, 359.1 767.1, 359.1 767.1, 359.1zM772.2, 363.9C772.2, 363.9 772.2, 363.9 772.2, 363.9C772.2, 363.8 772.1, 363.8 772.1, 363.8C772.1, 363.8 772, 363.7 772, 363.7C772, 363.7 772, 363.7 771.9, 363.7C771.9, 363.7 771.8, 363.7 771.8, 363.7C771.8, 363.7 771.7, 363.7 771.7, 363.8C771.3, 363.9 771, 364 770.6, 364.1C770.6, 364.1 770.6, 364.1 770.6, 364.1C770.6, 364.1 770.5, 364.1 770.5, 364.2C770.4, 364.2 770.3, 364.3 770.3, 364.3C770.3, 364.3 770.3, 364.3 770.3, 364.3C770.3, 364.3 770.2, 364.3 770.2, 364.4C770.2, 364.4 770.1, 364.5 770.1, 364.5C770.1, 364.5 770.1, 364.5 770.1, 364.5C770.1, 364.5 770.1, 364.6 770, 364.6C770, 364.6 770, 364.7 770, 364.7C770, 364.7 770, 364.8 770, 364.8C770, 364.8 770, 364.9 770, 364.9C770, 364.9 770, 365 770.1, 365C770.1, 365 770.1, 365 770.1, 365C770.1, 365 770.2, 365.1 770.2, 365.1C770.2, 365.1 770.2, 365.1 770.2, 365.1C770.3, 365.2 770.4, 365.2 770.4, 365.2C770.4, 365.2 770.4, 365.2 770.4, 365.2C770.4, 365.2 770.5, 365.2 770.5, 365.2C770.6, 365.2 770.7, 365.2 770.8, 365.3C770.8, 365.3 770.9, 365.3 770.9, 365.3C771, 365.3 771.1, 365.3 771.2, 365.3C771.2, 365.3 771.3, 365.3 771.3, 365.3C771.4, 365.3 771.4, 365.3 771.5, 365.2C771.5, 365.2 771.6, 365.2 771.6, 365.2C771.7, 365.2 771.7, 365.1 771.8, 365.1C771.8, 365.1 771.8, 365.1 771.9, 365.1C772, 365.1 772, 365 772.1, 364.9C772.1, 364.9 772.1, 364.9 772.1, 364.9C772.1, 364.8 772.2, 364.8 772.2, 364.7C772.2, 364.7 772.2, 364.7 772.2, 364.7C772.2, 364.7 772.2, 364.7 772.2, 364.7C772.2, 364.6 772.2, 364.6 772.3, 364.5C772.3, 364.5 772.3, 364.5 772.3, 364.5C772.3, 364.4 772.3, 364.4 772.3, 364.3C772.3, 364.3 772.3, 364.3 772.3, 364.2C772.2, 364 772.2, 364 772.2, 363.9zM767.5, 359.4C767.5, 359.4 767.5, 359.4 767.5, 359.4C767.5, 359.3 767.4, 359.3 767.4, 359.3C767.4, 359.3 767.4, 359.3 767.4, 359.3C767.3, 359.2 767.3, 359.1 767.3, 359C767.3, 359 767.3, 359 767.2, 359C767.2, 359 767.2, 359 767.2, 359C767.2, 359 767.2, 359 767.2, 359C767.2, 359 767.2, 359 767.2, 359C767.2, 359 767.2, 359 767.2, 359C767.2, 359 767.2, 359 767.2, 359.1C767.2, 359.2 767.2, 359.2 767.1, 359.3C767.1, 359.4 767.1, 359.5 767.1, 359.5C767.1, 359.6 767.1, 359.6 767.2, 359.7C767.2, 359.7 767.2, 359.8 767.2, 359.8C767.2, 359.8 767.2, 359.8 767.2, 359.8C767.2, 359.8 767.2, 359.8 767.2, 359.8C767.2, 359.8 767.2, 359.8 767.3, 359.9C767.3, 359.9 767.4, 359.9 767.4, 360C767.5, 360 767.5, 360 767.6, 360.1C767.6, 360.1 767.6, 360.1 767.7, 360.1C767.7, 360.1 767.7, 360.1 767.7, 360.1C767.7, 360.1 767.7, 360.1 767.7, 360.1C767.7, 360 767.7, 360 767.7, 359.9C767.7, 359.8 767.7, 359.7 767.7, 359.6C767.6, 359.6 767.6, 359.5 767.5, 359.4zM771.6, 353.9C771.6, 353.8 771.6, 353.7 771.5, 353.6C771.5, 353.6 771.5, 353.6 771.5, 353.6C771.5, 353.6 771.5, 353.5 771.4, 353.5C771.4, 353.5 771.4, 353.4 771.3, 353.4C771.3, 353.4 771.3, 353.4 771.3, 353.4C771.3, 353.4 771.2, 353.3 771.2, 353.3C771.2, 353.3 771.2, 353.3 771.2, 353.3C771.2, 353.3 771.2, 353.3 771.2, 353.3C771.2, 353.3 771.1, 353.3 771.1, 353.3C771, 353.3 771, 353.3 770.9, 353.3C770.9, 353.3 770.9, 353.3 770.9, 353.3C770.9, 353.3 770.8, 353.3 770.8, 353.3C770.7, 353.3 770.6, 353.3 770.6, 353.4C770.4, 353.4 770.2, 353.5 770.1, 353.6C770.1, 353.6 770.1, 353.6 770.1, 353.6C770.1, 353.6 770, 353.6 770, 353.6C769.9, 353.6 769.9, 353.7 769.8, 353.7C769.8, 353.7 769.8, 353.7 769.8, 353.7C769.8, 353.7 769.8, 353.7 769.8, 353.7C769.8, 353.7 769.7, 353.8 769.7, 353.8C769.7, 353.8 769.7, 353.8 769.7, 353.9C769.7, 353.9 769.7, 353.9 769.7, 353.9C769.7, 353.9 769.7, 353.9 769.7, 354C769.7, 354 769.7, 354 769.7, 354C769.7, 354 769.7, 354 769.7, 354C769.7, 354 769.7, 354.1 769.7, 354.1C769.7, 354.1 769.7, 354.1 769.7, 354.1C769.7, 354.1 769.7, 354.1 769.7, 354.1C769.7, 354.1 769.8, 354.2 769.8, 354.2C769.8, 354.2 769.8, 354.2 769.8, 354.2C769.8, 354.2 769.9, 354.3 769.9, 354.3C769.9, 354.3 769.9, 354.3 770, 354.3C770, 354.3 770.1, 354.3 770.2, 354.3C770.2, 354.3 770.3, 354.3 770.3, 354.3C770.3, 354.3 770.3, 354.3 770.3, 354.3C770.3, 354.3 770.3, 354.3 770.4, 354.3C770.4, 354.3 770.5, 354.3 770.5, 354.3C770.6, 354.3 770.6, 354.3 770.7, 354.3L770.7, 354.3C770.8, 354.3 770.8, 354.3 770.8, 354.3C770.8, 354.3 770.8, 354.3 770.8, 354.3C770.9, 354.3 771, 354.3 771, 354.2C771.2, 354.1 771.5, 354.2 771.6, 354.4C771.6, 354.4 771.6, 354.4 771.6, 354.4C771.6, 354.4 771.6, 354.4 771.6, 354.3C771.6, 354.2 771.6, 354.2 771.7, 354.1C771.7, 354.1 771.7, 354.1 771.7, 354.1C771.7, 354.1 771.7, 354.1 771.7, 354C771.7, 354 771.7, 353.9 771.7, 353.9C771.7, 354 771.6, 354 771.6, 353.9C771.6, 353.9 771.6, 353.9 771.6, 353.9zM767.2, 359.1C767.2, 359.1 767.2, 359.1 767.2, 359.1C767.2, 359.1 767.1, 359.1 767.2, 359.1C767.1, 359.1 767.1, 359.1 767.2, 359.1C767.1, 359.1 767.2, 359.1 767.2, 359.1zM772.2, 364C772.2, 364 772.2, 364 772.2, 364C772.2, 364.1 772.2, 364.1 772.2, 364C772.2, 364 772.2, 364 772.2, 364z" class="st1" tag="st12" />
    </g>
    <g tag="Element5">
      <path d="M133.6, 181.6C132.4, 178.1 130.7, 174.8 128.7, 171.7C127.9, 170.4 127, 169.2 126, 168C125.6, 167.6 125.2, 167.1 124.6, 166.6C124, 163.2 123.3, 160 123, 156.6C122.9, 155.6 122.3, 154.6 121.3, 154.4C121.1, 154.4 121, 154.3 120.8, 154.3C120.5, 154.2 120.2, 154.1 119.9, 154.1C119.2, 154 118.4, 154 117.7, 154.1C117.5, 154 117.4, 154 117.2, 153.9C116.4, 153.8 115.8, 153.7 115, 153.7C113.8, 153.7 112.7, 154.7 112.7, 156C112.7, 157.9 112.5, 159.9 112, 162C111.5, 163.6 111.1, 165.3 110.5, 166.9C110.1, 167.8 109.7, 168.7 109.3, 169.6C108.2, 171.1 107.3, 172.8 106.4, 174.5C103.2, 181.2 101.8, 188.6 101.3, 196C100.3, 210 101.8, 226.4 112.2, 236.8C112.8, 238.4 114.6, 239.5 116.4, 238.3C116.6, 238.2 116.7, 238.1 116.9, 237.9C116.9, 237.9 117, 237.8 117, 237.8C128.6, 229.9 135.1, 216.3 136.3, 202.5C137, 195.6 135.9, 188.1 133.6, 181.6z" class="st4" tag="st42" />
      <path d="M135.9, 206.6C135.2, 210.6 134.2, 214.5 132.6, 218.3C127.7, 219.6 122.6, 218.6 119.1, 214.5C118.8, 214.1 118.4, 213.9 118.3, 213.8C118.1, 213.9 117.9, 214.1 117.8, 214.3C117, 215.2 116, 216 115, 216.8C112.9, 218.4 110.6, 219.4 107.9, 219C104.6, 218.4 104, 216.2 101.9, 214.3C101.8, 214.3 101.8, 214.2 101.8, 214.2C101.4, 211.2 101.1, 208.2 101.1, 205.2C101.8, 205.2 102.6, 205.2 103.3, 205.4C105.9, 206 107.8, 207.9 109.2, 210.1C109.4, 210.4 109.4, 210.7 109.4, 210.8C109.5, 210.7 109.6, 210.6 109.7, 210.5C110.5, 209.9 111.1, 209.2 111.8, 208.5C116.3, 204.6 120.6, 204.6 125, 208.7C127.6, 211.1 130, 211.1 133.1, 209.1C134.2, 208.2 135, 207.4 135.9, 206.6zM101.5, 193.8C101.8, 193.6 102.1, 193.5 102.4, 193.4C103.8, 193.1 104.5, 194.4 105.6, 195.1C108.2, 196.7 111.1, 196.1 113.5, 194.5C114.9, 193.6 116.9, 190.7 118.7, 190.1C119, 190.5 119.3, 191.4 119.6, 191.8C120.3, 193 121, 194.1 122, 195C125, 197.7 131.3, 197.1 136.4, 194.8C136.2, 191.7 135.6, 188.7 134.8, 185.7C134.8, 185.7 134.7, 185.8 134.6, 185.8C133.7, 186.3 133, 186.9 132.1, 187.3C130.4, 188.1 128.4, 189.2 127, 187.8C125.4, 186.2 125, 184.1 123, 182.7C121, 181.4 118.7, 181.1 116.4, 181.9C114.1, 182.6 112.3, 184.4 110.5, 186C110.2, 186.2 109.4, 186.8 109, 187.2C108.6, 186.9 108.2, 186.6 107.8, 186.3C106.1, 185.3 104.4, 184.8 102.7, 184.9C102.2, 187.8 101.8, 190.8 101.5, 193.8z" class="st5" tag="st51" />
      <path d="M123.4, 160.1C122.9, 160.2 122.4, 160.3 121.9, 160.4C121.2, 160.4 120.5, 160.4 119.9, 160.4C118.3, 160.3 116.6, 160.3 115, 160.2C114.2, 160.1 113.3, 160 112.3, 160C112.2, 160.7 112.1, 161.4 111.9, 162C111.4, 163.6 111, 165.3 110.4, 166.9C110.1, 167.5 109.9, 168.1 109.6, 168.7C113.2, 168 116.9, 167.1 120.5, 166.3C120.8, 166.3 121.2, 166.2 121.5, 166.2C121.9, 166.2 122.2, 166 122.6, 165.9C123.2, 165.8 123.8, 165.7 124.4, 165.6C124.1, 163.8 123.7, 162 123.4, 160.1z" class="st3" tag="st32" />
      <path d="M126.4, 161.7C126.4, 158.8 125.5, 155.9 125.7, 152.9C125.8, 152.1 126.1, 151.2 125.8, 150.4C125.5, 149.6 124.6, 149.3 123.7, 149.2C122, 149.1 120.3, 149.5 118.6, 149.5C117, 149.6 115.5, 149.7 114, 150C112.5, 150.3 111.1, 150.9 109.7, 150.9C109.2, 150.9 108.8, 151.5 108.8, 151.9C108.6, 153.7 108.6, 155.5 108.6, 157.4C108.6, 158.8 108, 160.2 108.5, 161.6C108.8, 162.6 109.7, 163.1 110.7, 162.9C111.6, 162.7 112.2, 162 113, 161.6C113.2, 161.5 113.6, 161.3 113.7, 161.3C113.7, 161.3 113.7, 161.3 113.8, 161.4C114, 161.6 114.1, 161.8 114.2, 162C115, 163.1 116.3, 162.7 117.2, 161.9C117.4, 161.7 117.7, 161.4 117.9, 161.2C118, 161.1 118.1, 161 118.1, 161C118.3, 161.2 118.3, 161.6 118.5, 161.8C119.1, 163 120.7, 163.2 121.9, 162.6C122.5, 162.3 122.8, 161.7 123.3, 161.4C123.6, 161.2 123.6, 161.2 123.7, 161.4C124.2, 162.2 124.2, 163.4 125.3, 163.7C126.4, 164 127.2, 162.4 126.4, 161.7z" class="st4" tag="st43" />
    </g>
    <g tag="Element6">
      <path d="M273.7, 251.4C273.7, 244.5 270.4, 237.9 265, 233.7C263.6, 232.6 262.1, 231.7 260.6, 230.9C259.4, 229.8 258.1, 228.8 256.8, 228.1C256.8, 228.1 256.7, 228 256.7, 228C255.6, 227 253.8, 226.5 252.9, 225.2C252.6, 224.5 252.4, 223.6 252.2, 222.8C252.2, 222.8 252.2, 222.7 252.2, 222.7C252.3, 222.5 252.4, 222.2 252.4, 221.9C252.5, 219.9 253.4, 216.7 251.8, 215C249.6, 212.6 243.2, 215.7 240.8, 216.2C239.5, 216.5 238.8, 217.6 239, 218.9C239.2, 221.1 240.1, 225.3 239.1, 228.2C234.7, 230.2 230.9, 233.4 228.1, 237.3C223, 244.5 222.2, 252.7 224.9, 261C227.2, 268 232.4, 274.1 239.7, 276C247.4, 278 255.8, 275.1 262.2, 270.9C269.2, 266.3 273.7, 259.7 273.7, 251.4z" class="st5" tag="st52" />
      <path d="M273.7, 251.4C273.7, 245.5 271.4, 239.9 267.3, 235.8C256.1, 237.5 244.8, 238.7 233.6, 240.5C230.9, 240.9 228.2, 241.4 225.4, 241.9C222.8, 247.9 222.7, 254.4 224.9, 261C225.3, 262.1 225.7, 263.1 226.2, 264.2C226.6, 264.1 227, 263.9 227.5, 263.8C233.9, 261.9 240.5, 260.7 247.1, 259.4C253.7, 258.1 260.4, 256.9 267, 255.7C269.2, 255.3 271.4, 254.8 273.6, 254.3C273.7, 253.2 273.7, 252.3 273.7, 251.4z" class="st4" tag="st44" />
      <path d="M253.7, 226C253.4, 225.7 253.1, 225.5 252.9, 225.1C252.6, 224.4 252.4, 223.5 252.2, 222.7C252.2, 222.7 252.2, 222.6 252.2, 222.6C252.3, 222.4 252.4, 222.1 252.4, 221.8C252.5, 221 252.6, 219.9 252.7, 218.9C251.1, 219.2 249.7, 219.7 248.2, 220.4C247.8, 220.6 247.3, 220.7 246.8, 220.9C245.5, 221.2 244.2, 221.5 242.9, 221.8C241.7, 221.9 240.6, 221.9 239.4, 222C239.6, 224 239.8, 226.4 239.1, 228.2C238.8, 228.3 238.5, 228.5 238.3, 228.6C239.4, 228.7 240.6, 228.7 241.8, 228.5C243.7, 228.6 245.6, 228.5 247.4, 228.1C249.4, 227.7 251.9, 227.2 253.7, 226z" class="st3" tag="st33" />
      <path d="M254.4, 220.9C254.4, 219.8 254.3, 218.7 254.2, 217.7C254.2, 217.4 254.2, 217.1 254.1, 216.8C254.1, 216 254.2, 215.2 254.3, 214.4C254.4, 213.5 254.5, 212.6 254, 211.8C253.5, 211 252.7, 210.7 251.8, 210.6C249.6, 210.3 247.2, 210.6 245.1, 211C243.8, 211.3 242.5, 211.7 241.3, 212C240.4, 212.2 239.5, 212.3 238.6, 212.6C237.7, 212.9 236.7, 213.4 236.3, 214.2C235.9, 215.1 236.4, 216 236.7, 216.8C237, 218.1 237, 219.5 237.1, 220.8C237.2, 221.7 237.4, 222.7 238.3, 223.2C239.3, 223.7 240.5, 223.2 241.2, 222.5C241.5, 222.2 241.7, 221.9 241.9, 221.6C241.9, 221.6 242, 221.5 242, 221.5C242.1, 221.7 242.3, 221.9 242.3, 222C242.6, 222.4 243, 222.6 243.5, 222.7C244.2, 222.8 245, 222.6 245.5, 222C245.7, 221.8 246, 221.2 246.2, 220.9C246.5, 221.2 246.7, 221.6 247, 222C247.8, 222.8 249, 223 250.1, 222.6C250.6, 222.4 251.1, 222 251.6, 221.7C251.7, 221.6 251.8, 221.6 251.9, 221.5C251.9, 221.5 252, 221.5 252, 221.4C252, 222.3 253.2, 223 254, 222.2C254.2, 222 254.3, 221.8 254.3, 221.6C254.3, 221.3 254.4, 221.1 254.4, 220.9z" class="st4" tag="st45" />
      <path d="M268.1, 246.3C268.1, 246.3 268.1, 246.2 268.1, 246.2C268.2, 245.3 268, 244.5 267.3, 243.9C266.8, 243.5 266.2, 243.5 265.7, 243.5C265.2, 243.6 264.7, 243.8 264.3, 244.1C263.4, 244.7 262.9, 245.9 263.1, 247C263.3, 247.7 263.7, 248.4 264.3, 248.8C264.5, 248.9 264.6, 249 264.8, 249.1C264.9, 249.2 265.1, 249.2 265.2, 249.3C265.5, 249.4 265.8, 249.4 266.1, 249.3C266.2, 249.3 266.2, 249.2 266.3, 249.2C266.8, 249 267.3, 248.7 267.6, 248.2C268, 247.5 268.2, 246.9 268.1, 246.3z" class="st6" tag="st60" />
      <path d="M258.9, 248.5C259.6, 247 259, 244.9 257.7, 243.9C257.6, 243.9 257.6, 243.8 257.5, 243.8C256.9, 243.1 256.1, 242.7 255.2, 242.5C253.9, 242.3 252.5, 243 251.6, 243.8C250.6, 244.8 249.9, 246 249.7, 247.4C249.5, 248.5 249.7, 249.7 250.5, 250.6C251, 251.1 251.5, 251.4 252.1, 251.5C252.3, 251.6 252.4, 251.7 252.6, 251.8C252.7, 251.8 252.7, 251.8 252.8, 251.9C253.3, 252.1 253.8, 252.3 254.3, 252.3C255.7, 252.3 257, 251.7 257.9, 250.6C258.2, 250.2 258.5, 249.8 258.6, 249.3C258.7, 249.1 258.7, 249 258.8, 248.8C258.8, 248.7 258.9, 248.6 258.9, 248.5z" class="st5" tag="st53" />
      <path d="M246.3, 249.7C246.5, 249.1 246.5, 248.4 246.3, 247.8C246.2, 246.3 245.4, 244.8 244.1, 244.2C243.9, 244.1 243.7, 244.1 243.5, 244C243.1, 243.8 242.6, 243.7 242.1, 243.7C240.6, 243.7 239.3, 244.5 238.4, 245.6C237.5, 245.9 236.8, 246.6 236.4, 247.5C235.7, 248.2 235.2, 249.2 234.9, 250.2C234.4, 252 234.5, 254 236.1, 255.2C237.6, 256.3 239.5, 255.9 240.9, 254.8C242.1, 254.7 243.3, 254.2 244.3, 253.5C245.5, 252.5 246.2, 251.2 246.3, 249.7z" class="st6" tag="st61" />
      <path d="M232, 249.8C231.6, 249.6 231.3, 249.5 230.9, 249.5C230.7, 249.4 230.4, 249.2 230.1, 249.2C229.5, 249.1 228.9, 249.3 228.5, 249.6C227.9, 249.9 227.5, 250.4 227.1, 250.9C226.9, 251.2 226.7, 251.5 226.6, 251.9C226.1, 252.5 225.6, 253.3 225.7, 254.1C225.8, 254.8 226.4, 255.4 227.1, 255.6C227.4, 255.7 227.6, 255.7 227.9, 255.7C228, 255.7 228.1, 255.8 228.1, 255.8C228.7, 255.9 229.3, 255.7 229.8, 255.4C229.9, 255.4 230, 255.3 230, 255.3C231, 254.9 232, 254.1 232.5, 253.3C233, 252.1 233.1, 250.5 232, 249.8z" class="st5" tag="st54" />
    </g>
    <g tag="Element7">
      <path d="M884.3, 160C884.3, 150.7 879.9, 141.9 872.6, 136.2C870.7, 134.7 868.7, 133.5 866.7, 132.5C865.1, 131 863.4, 129.7 861.5, 128.7C861.4, 128.6 861.4, 128.6 861.3, 128.5C859.8, 127.1 857.4, 126.4 856.2, 124.7C855.8, 123.7 855.5, 122.6 855.3, 121.5C855.3, 121.5 855.3, 121.4 855.3, 121.4C855.4, 121.1 855.5, 120.8 855.6, 120.4C855.8, 117.7 856.9, 113.4 854.8, 111.2C851.8, 108 843.3, 112.1 840, 112.8C838.3, 113.2 837.4, 114.7 837.5, 116.4C837.8, 119.3 839, 125.1 837.7, 128.9C831.8, 131.6 826.7, 135.9 823, 141.1C816.1, 150.7 815.1, 161.8 818.8, 173C821.9, 182.4 828.9, 190.5 838.8, 193.1C849.1, 195.8 860.5, 191.9 869.1, 186.3C878.2, 180 884.2, 171.2 884.3, 160z" class="st6" tag="st62" />
      <path d="M848.3, 128.3C851, 127.7 854.3, 127.1 857, 125.6C856.7, 125.3 856.4, 125.1 856.2, 124.7C855.8, 123.7 855.5, 122.6 855.3, 121.5C855.3, 121.5 855.3, 121.4 855.3, 121.4C855.4, 121.1 855.5, 120.8 855.6, 120.4C855.7, 119.6 855.8, 118.6 855.9, 117.6C854.9, 117.6 853.8, 117.7 852.8, 117.9C852.2, 117.5 851.4, 117.3 850.7, 117.4C848.4, 117.9 846.3, 119.1 844.2, 119.9C843.8, 120 843.5, 120.2 843.2, 120.3C842.5, 120.3 841.9, 120.3 841.2, 120.3C840.2, 120 839.1, 119.8 838.1, 119.8C838.5, 122.7 838.7, 126.2 837.8, 128.8C837.7, 128.8 837.7, 128.9 837.6, 128.9C841, 129.7 844.8, 129 848.3, 128.3z" class="st3" tag="st34" />
      <path d="M858.3, 119.1C858.4, 117.6 858.2, 116.2 858, 114.8C858, 114.4 858, 114 857.9, 113.5C857.9, 112.4 858, 111.4 858.1, 110.3C858.2, 109.1 858.3, 107.8 857.7, 106.8C857.1, 105.8 855.9, 105.3 854.8, 105.2C851.9, 104.9 848.7, 105.1 845.8, 105.7C844, 106.1 842.4, 106.6 840.6, 107.1C839.4, 107.4 838.1, 107.5 836.9, 107.9C835.7, 108.2 834.4, 108.9 833.8, 110.1C833.2, 111.3 834, 112.5 834.3, 113.6C834.8, 115.4 834.7, 117.2 834.8, 118.9C834.9, 120.1 835.3, 121.5 836.4, 122.1C837.7, 122.8 839.3, 122.1 840.3, 121.1C840.7, 120.7 840.9, 120.3 841.2, 119.8C841.2, 119.8 841.3, 119.7 841.3, 119.6C841.4, 119.9 841.7, 120.2 841.7, 120.3C842.1, 120.8 842.7, 121.2 843.4, 121.3C844.4, 121.5 845.4, 121.1 846, 120.4C846.2, 120.2 846.7, 119.4 847, 118.9C847.4, 119.3 847.6, 119.9 848, 120.3C849.1, 121.4 850.8, 121.6 852.2, 121C852.9, 120.7 853.6, 120.2 854.2, 119.8C854.3, 119.7 854.5, 119.7 854.6, 119.6C854.6, 119.6 854.7, 119.5 854.7, 119.5C854.8, 120.7 856.3, 121.6 857.4, 120.5C857.6, 120.3 857.8, 120 857.8, 119.7C858.2, 119.6 858.3, 119.4 858.3, 119.1z" class="st4" tag="st46" />
      <path d="M869, 186C868.1, 186.6 867.1, 187.2 866.2, 187.7C864.2, 187.8 861.7, 188.3 860.3, 188.2C857.3, 188.1 854.6, 187.2 852.8, 184.6C852.3, 183.9 852.1, 183.2 851.7, 182.5C851, 181.2 851.6, 181.1 851, 181.2C850.1, 181.3 848, 183.5 846.6, 183.8C842.1, 184.6 841.1, 180.2 837.2, 180C833, 179.8 829.7, 183.1 825.2, 181.9C824.3, 181.7 823.4, 181.2 822.6, 180.7C821.1, 178.5 819.9, 176 819, 173.5C823.3, 172.8 825.8, 176.6 830.2, 175.5C834, 174.6 837.3, 172.9 841.2, 174.6C842.5, 175.2 844.3, 177.5 845.7, 177.5C846.9, 177.5 848.6, 175.6 849.9, 175.2C853.1, 174.4 855.6, 175.7 856.9, 178.6C858, 180.9 857.8, 181.7 860.7, 181.9C862.3, 182 864, 181.5 865.7, 181.5C868.2, 181.4 870.7, 181.7 872.6, 183.1C871.5, 184.3 870.3, 185.2 869, 186zM824.2, 150.1C826.9, 149.1 829.4, 150.9 832.2, 150C833.9, 149.4 835.1, 148.2 836.6, 147.3C838.5, 146.1 839.4, 146.2 841.7, 146.3C845.3, 146.4 847.5, 145.6 850.4, 143.5C852.8, 141.7 853.3, 140.5 856.2, 141.3C857.6, 141.7 858.8, 142.4 860.3, 142.5C865.2, 142.8 869.2, 139.7 872.6, 136.3C872.6, 136.3 872.6, 136.3 872.6, 136.3C870.9, 135 869.2, 133.9 867.4, 132.9C866.2, 134 865, 134.9 863.7, 135.5C859.8, 137.3 857.2, 133.8 853.4, 134.4C849.8, 135 847.8, 138.8 844.4, 139.9C841, 141 837.9, 139.4 834.5, 141.4C832.9, 142.3 831.5, 144.1 829.6, 144.3C828.5, 144.4 827.2, 143.6 826.1, 143.6C824.7, 143.6 823.3, 144 822.1, 144.5C821.7, 144.7 821, 145.2 820.4, 145.7C819.1, 148.2 818.2, 150.8 817.6, 153.4C820, 153.2 821.8, 151.1 824.2, 150.1zM883.7, 154C882.7, 154.3 881.7, 154.6 881.2, 154.7C877.8, 155 875.5, 153.1 872.4, 152.1C868.6, 150.9 865.6, 152.3 862.4, 154.4C859.6, 156.2 858.2, 157 855.1, 155.7C853.3, 155 851.7, 154.5 849.7, 154.8C847.6, 155.1 846.1, 156.3 844.3, 157.3C841.7, 158.7 841.7, 157.6 839.1, 157.1C834.8, 156.1 832.4, 159.2 828.8, 160.6C826.6, 161.5 826.4, 160.5 824.4, 159.8C822.1, 159.1 819.6, 160 817.2, 159.8C817, 159.8 816.9, 159.8 816.7, 159.8C816.7, 161.8 816.8, 163.9 817.1, 166C819.1, 166.1 821.1, 165.6 823, 166.1C824.8, 166.6 825.5, 167.6 827.6, 167.4C831.9, 167 834.6, 162.7 838.7, 163.7C840.5, 164.1 841.4, 164.9 843.4, 164.4C846, 163.8 848.4, 160.8 851, 160.8C852.7, 160.7 854.4, 162.4 856.1, 162.8C858, 163.2 859.9, 162.9 861.7, 162.1C863.8, 161.2 865.5, 159.3 867.7, 158.4C870.5, 157.3 872.7, 159.1 875.3, 160.1C877.4, 160.8 881, 161 884.4, 160.5C884.4, 160.4 884.4, 160.2 884.4, 160.1C884.3, 158 884.1, 156 883.7, 154z" class="st4" tag="st47" />
    </g>
  </g>
</svg>