<?xml version='1.0' encoding='UTF-8'?>
<svg x="0px" y="0px" viewBox="0 0 300 400" version="1.1" xmlns="http://www.w3.org/2000/svg" xmlns:xlink="http://www.w3.org/1999/xlink" xml:space="preserve" id="Layer_1" style="enable-background:new 0 0 300 400" tag="Element4">
  <style type="text/css" tag="Element1">
	.st0{fill:#B2E2EA;}
	.st1{fill:#80B4C1;}
	.st2{fill:#6D3308;}
	.st3{fill:#FFFFFF;}
	.st4{fill:#1E1004;}
	.st5{fill:#E04330;}
	.st6{fill:#F98115;}
	.st7{fill:#FFCC4D;}
	.st8{fill:#4D8E6E;}
</style>
  <g tag="Element3">
    <path d="M240.3, 178.1C223.4, 159.4 200.9, 149.6 179.1, 146.1C155.9, 142.3 131, 144 109.5, 149.9C87.4, 155.9 67.1, 168.4 50.3, 184C33.8, 199.3 23.3, 219.3 22, 245C21, 265.2 25.8, 287 36.7, 305.3C45.1, 323.9 60, 339.8 75.6, 351.2C95.5, 365.7 117.8, 374 140.1, 376.5C165.4, 379.3 190.6, 377 214.4, 372C232.1, 368.3 244, 355.6 253.3, 340.4C266.8, 328.8 277.1, 312.2 276.7, 291.2C276.6, 287.7 276.3, 284.2 275.7, 280.6C276.2, 269.8 274.7, 258.5 272.8, 247.5C268.5, 222.7 257.5, 197.1 240.3, 178.1z" class="st0" tag="st00" />
    <path d="M217.7, 309.6C216.2, 308.5 214.4, 307.5 212.8, 306.4C211.6, 305.4 210.3, 304.3 208.8, 303.4C208.1, 302.8 207.3, 302.2 206.5, 301.6C204.5, 300.2 202.3, 299.2 199.9, 298.4C199.3, 298.1 198.8, 297.9 198.2, 297.6C186.3, 292.5 170.6, 290.1 155.2, 288.4C154.8, 288.4 154.5, 288.3 154.1, 288.3C153.1, 288.1 152.2, 288 151.2, 287.8C150.5, 287.7 149.9, 287.7 149.3, 287.8C142.9, 287.1 136.3, 286.6 129.8, 286.3C128.1, 286.2 126.4, 286.1 124.6, 286.1C117.5, 285.8 110, 285.8 104, 287.8C104, 287.8 104, 287.8 103.9, 287.8C103.3, 287.9 102.6, 288.1 102, 288.2C95.8, 289.8 91.2, 292.5 87.5, 295.3C79.8, 301.2 74.2, 308.6 76.5, 315.6C78.5, 321.8 86.6, 326.8 96.8, 330.5C108.7, 334.9 122.5, 338.5 136.9, 340.7C150.8, 342.8 165.8, 343.3 180.2, 342.3C190.6, 341.5 199.7, 339.4 206.6, 335.9C209.9, 334.6 212.9, 333.2 215.3, 331.7C220.2, 328.6 221.7, 324.3 222.4, 320.5C223.3, 316.8 222.1, 312.8 217.7, 309.6z" class="st1" tag="st10" />
    <path d="M200.2, 217.5C200.2, 216.1 198.9, 214.4 197.3, 214.6C190.9, 215.4 185.2, 218.3 179.6, 221.3C177.6, 222.4 175.7, 223.5 173.8, 224.9C172.9, 225.6 172.1, 226.2 171.2, 226.9C170.8, 227.2 170.4, 227.5 169.9, 227.7C169.8, 227.8 169.7, 227.8 169.6, 227.9C169.6, 227.9 169.6, 227.9 169.5, 227.9C168, 228.2 167.1, 230 167.5, 231.4C167.9, 233 169.5, 233.7 171, 233.4C172.8, 233 174.5, 231.5 175.9, 230.4C177.7, 229 179.4, 227.9 181.3, 226.8C183.9, 225.4 186.6, 223.8 189.4, 222.6C190, 223.4 190.7, 224.1 191.4, 224.7C192.7, 225.8 194.1, 226.7 195.4, 227.7C195.8, 228 196.6, 228 197.1, 227.9C197.6, 227.8 198.1, 227.4 198.4, 226.9C198.7, 226.4 198.8, 225.8 198.6, 225.2C198.4, 224.6 198.1, 224.3 197.6, 223.9C196.8, 223.3 196, 222.7 195.2, 222.1C194.7, 221.7 194.2, 221.3 193.7, 220.8C194.9, 220.5 196, 220.2 197.2, 220.1C198.8, 220.2 200.2, 219.2 200.2, 217.5z" class="st2" tag="st20" />
    <path d="M157.8, 214.8C155.8, 213.9 153.8, 213 151.8, 212.3C134.2, 203.6 110.9, 204.4 94.4, 215.9C66.2, 235.5 55.7, 282.3 86.8, 304.3C111.8, 322 152.4, 319.7 172.2, 295.2C192.3, 270.1 188.7, 229 157.8, 214.8z" class="st3" tag="st30" />
    <path d="M140.9, 241.9C140.7, 241.3 140.7, 240.5 140.9, 239.9C140.9, 239.9 140.9, 239.9 140.9, 239.9C140.9, 239.9 141.2, 239.1 141.3, 239C141.3, 239 141.3, 239 141.3, 239C141.5, 238.7 141.7, 238.5 141.9, 238.2C141.9, 238.2 141.9, 238.2 142, 238.1C142, 238.1 142, 238.1 142, 238.1C142.2, 238 142.5, 237.7 142.7, 237.5C142.7, 237.5 142.7, 237.5 142.7, 237.5C142.8, 237.5 142.8, 237.4 142.9, 237.4C143.3, 237.2 143.7, 237.1 144.1, 236.9C144.1, 236.9 144.2, 236.9 144.2, 236.9C144.8, 236.7 145.1, 236.8 145.7, 236.8C146.2, 236.8 146.6, 237 147, 237.2C147, 237.2 147, 237.2 147, 237.2C147.2, 237.3 147.3, 237.4 147.5, 237.5C147.5, 237.5 147.5, 237.5 147.5, 237.5C147.7, 237.6 147.9, 237.7 148.1, 237.9C148.5, 238.2 148.8, 238.5 149, 238.9C149.3, 239.3 149.4, 239.8 149.4, 240.2C149.5, 240.7 149.5, 241.2 149.3, 241.6C149.3, 241.7 149.2, 241.8 149.2, 241.8C149.2, 241.9 149.2, 241.9 149.2, 242C149.2, 242 149.2, 242 149.2, 242.1C148.9, 243 148.3, 243.9 147.5, 244.4C147.2, 244.6 146.9, 244.7 146.6, 244.8C146.6, 244.8 146.6, 244.8 146.6, 244.8C146.6, 244.8 146.6, 244.8 146.5, 244.8C146.4, 244.8 146.4, 244.9 146.3, 244.9C146, 245 145.4, 245 145.3, 245C145.3, 245 145.3, 245 145.2, 245C144.9, 245 144.5, 244.9 144.2, 244.9C144.2, 244.9 144.2, 244.9 144.1, 244.9C144, 244.8 143.7, 244.7 143.7, 244.7C143.7, 244.7 143.4, 244.6 143.3, 244.5C143.3, 244.5 143.3, 244.5 143.3, 244.5C143.3, 244.5 143.3, 244.5 143.2, 244.5C143.1, 244.4 142.9, 244.3 142.8, 244.2C142.8, 244.2 142.6, 244 142.4, 243.9C142.2, 243.8 142, 243.6 141.8, 243.5C141.6, 243.3 141.4, 243 141.2, 242.7C141.2, 242.7 141.2, 242.7 141.2, 242.7C141.2, 242.7 141.2, 242.7 141.2, 242.7C141.1, 242.6 141.1, 242.4 141, 242.3C141, 242.2 140.9, 242 140.9, 241.9C140.9, 241.9 140.9, 241.9 140.9, 241.9zM148.7, 253.2C148.2, 253.3 147.8, 253.5 147.5, 253.8C147.3, 253.9 147.2, 254.1 147, 254.2C146.9, 254.2 146.9, 254.3 146.8, 254.3C146.7, 254.3 146.7, 254.4 146.6, 254.4C146.3, 254.6 146, 254.8 145.7, 255.1C145.7, 255.1 145.7, 255.2 145.6, 255.2C145.4, 255.4 145.2, 255.7 145, 255.9C145, 255.9 145, 255.9 145, 255.9C144.8, 256.2 144.7, 256.6 144.6, 256.9C144.5, 257.2 144.5, 257.6 144.5, 257.9C144.5, 258 144.6, 258.4 144.6, 258.4C144.6, 258.5 144.6, 258.8 144.7, 258.9C144.7, 258.9 144.7, 258.9 144.7, 258.9C144.7, 258.9 145, 259.7 145.1, 259.8C145.1, 259.8 145.1, 259.8 145.1, 259.8C145.1, 259.8 145.1, 259.8 145.1, 259.8C145.1, 259.8 145.6, 260.5 145.7, 260.5C145.7, 260.5 145.7, 260.5 145.7, 260.5C145.7, 260.5 145.7, 260.5 145.7, 260.5C145.7, 260.5 145.7, 260.5 145.7, 260.5C145.8, 260.6 146.3, 261 146.4, 261.1C146.4, 261.1 146.5, 261.1 146.5, 261.2C146.7, 261.3 146.8, 261.3 147, 261.4C147.1, 261.5 147.3, 261.5 147.5, 261.6C147.6, 261.6 147.6, 261.6 147.7, 261.6C147.7, 261.6 147.8, 261.6 147.8, 261.6C148.1, 261.7 148.5, 261.7 148.8, 261.7C148.9, 261.7 148.9, 261.7 149, 261.7C149.1, 261.7 149.1, 261.7 149.2, 261.7C149.5, 261.7 149.9, 261.6 150.2, 261.6C150.2, 261.6 150.3, 261.6 150.3, 261.6C150.4, 261.6 150.4, 261.6 150.5, 261.6C150.8, 261.5 151.2, 261.3 151.5, 261.2C151.5, 261.2 151.6, 261.2 151.6, 261.1C151.9, 260.9 152.2, 260.7 152.4, 260.5C152.4, 260.5 152.5, 260.4 152.5, 260.4C152.5, 260.4 152.5, 260.4 152.5, 260.3C152.6, 260.2 152.7, 260.2 152.7, 260.1C152.7, 260.1 153.3, 259.4 153.3, 259.4C153.3, 259.4 153.7, 258.5 153.7, 258.5C153.7, 258.5 153.7, 258.2 153.8, 258C153.9, 257.7 153.9, 257.2 154, 256.9C154, 256.9 154, 256.9 154, 256.8C154, 256.8 154, 256.8 154, 256.8C154, 256.7 153.9, 255.9 153.9, 255.8C153.9, 255.8 153.9, 255.8 153.9, 255.7C153.9, 255.6 153.6, 254.9 153.5, 254.8C153.5, 254.8 153.5, 254.8 153.5, 254.8C153.4, 254.7 153.2, 254.4 153.2, 254.4C153.1, 254.3 153, 254.1 152.9, 254C152.6, 253.7 152.2, 253.4 151.8, 253.2C151.4, 252.9 150.9, 252.8 150.5, 252.8C149.7, 253 149.2, 253.1 148.7, 253.2zM151.9, 270.4C151.4, 270.4 151, 270.6 150.6, 270.8C150.4, 271 150.1, 271.2 149.9, 271.4C149.5, 271.8 149.1, 272.4 149, 273C149, 273.3 148.9, 273.6 148.9, 274C148.9, 274 148.9, 274.1 148.9, 274.1C148.8, 274.3 148.8, 274.5 148.8, 274.7C148.7, 275 148.7, 275.3 148.8, 275.7C148.8, 276.2 149, 276.6 149.2, 277C149.3, 277.1 149.4, 277.2 149.5, 277.4C149.8, 277.8 150.1, 278.1 150.5, 278.3C150.5, 278.3 151.4, 278.7 151.4, 278.7C151.4, 278.7 151.4, 278.7 151.4, 278.7C151.6, 278.8 152.1, 278.8 152.4, 278.8C152.5, 278.8 152.5, 278.8 152.6, 278.8C152.6, 278.8 152.7, 278.8 152.7, 278.8C152.7, 278.8 152.7, 278.8 152.7, 278.8C152.7, 278.8 152.7, 278.8 152.7, 278.8C152.7, 278.8 153.6, 278.7 153.7, 278.7C154.3, 278.6 154.9, 278.2 155.3, 277.8C155.7, 277.4 156.1, 276.8 156.2, 276.2C156.2, 275.9 156.3, 275.6 156.3, 275.2C156.3, 275.2 156.3, 275.2 156.3, 275.2C156.3, 275.1 156.3, 275 156.3, 274.9C156.3, 274.9 156.3, 274.9 156.3, 274.9C156.3, 274.9 156.3, 274.9 156.3, 274.9C156.3, 274.6 156.2, 274.2 156.2, 273.9C156.2, 273.9 156.2, 273.9 156.2, 273.8C156.2, 273.7 156.2, 273.7 156.2, 273.6C156.2, 273.5 156.2, 273.5 156.2, 273.4C156.1, 273.2 156.1, 273.1 156, 272.9C155.9, 272.7 155.9, 272.6 155.8, 272.4C155.8, 272.3 155.7, 272.2 155.6, 272.1C155.4, 271.7 155.1, 271.3 154.7, 271.1C154.4, 270.8 153.9, 270.6 153.5, 270.5C152.8, 270.4 152.3, 270.3 151.9, 270.4zM102.5, 235.9C102.5, 244.5 99.1, 259.7 109.2, 260.1C113.9, 260.3 114.6, 254.2 111.3, 252.1C109.6, 247.8 110.5, 242.6 110.9, 237.6C114.5, 236.9 115.5, 230.7 111.1, 229.1C110.8, 229 110.5, 228.9 110.1, 228.8C108.9, 226.6 106.1, 226.5 104.2, 227.6C98.8, 226.5 92.4, 224.9 92.5, 222.6C92.9, 217.1 84.2, 217.1 83.9, 222.6C83.3, 231.8 94.1, 234.1 102.5, 235.9zM77.5, 240.4C77.5, 240.7 77.6, 240.9 77.7, 241.2C78, 241.9 78.2, 242.4 78.7, 242.9C79.3, 243.5 80.2, 243.9 81.1, 243.9C81.7, 243.9 82.4, 243.7 82.9, 243.4C83, 243.3 83.2, 243.2 83.3, 243.1C83.3, 243.1 83.4, 243 83.4, 243C83.9, 242.8 84.4, 242.4 84.7, 241.9C84.9, 241.5 85.1, 241.2 85.2, 240.8C85.3, 240.6 85.3, 240.4 85.4, 240.2C85.5, 239.8 85.5, 239.3 85.6, 238.9C85.6, 238.7 85.6, 238.5 85.6, 238.3C85.6, 237.5 85.4, 236.7 85, 235.9C85, 235.9 85, 235.8 84.9, 235.8C84.8, 235.6 84.6, 235.3 84.4, 235.2C84.2, 235 83.9, 234.8 83.7, 234.6C83.7, 234.6 83.6, 234.6 83.6, 234.6C83.5, 234.5 83.2, 234.4 83.2, 234.4C83.2, 234.4 82.9, 234.3 82.8, 234.2C82.5, 234.1 82.2, 234.1 81.8, 234.1C81.8, 234.1 81.7, 234.1 81.7, 234.1C81.4, 234.1 81.1, 234.2 80.8, 234.2C80.7, 234.2 80.6, 234.2 80.5, 234.3C80.1, 234.5 79.6, 234.6 79.2, 234.9C78.9, 235.1 78.6, 235.3 78.4, 235.5C78.2, 235.7 77.9, 236 77.8, 236.3C77.7, 236.4 77.7, 236.4 77.7, 236.5C77.6, 236.6 77.6, 236.8 77.5, 236.9C77.4, 237 77.4, 237.2 77.3, 237.4C77.3, 237.5 77.3, 237.6 77.2, 237.6C77.2, 237.9 77.1, 238.3 77.1, 238.6C77.1, 238.9 77.2, 239.2 77.2, 239.4C77.4, 239.9 77.4, 240.2 77.5, 240.4zM179.4, 275.6C174.8, 280 168.4, 283.6 163.2, 286.5C157.4, 289.8 151.5, 292.6 145.2, 294.5C141.6, 296.4 137.7, 297.6 133.3, 297.6C124.2, 297.7 116, 299.3 106.9, 297.4C100.8, 296.1 95.4, 293.9 90.5, 291C83.6, 288 77.4, 283.2 72.2, 277.8C71.9, 278 71.9, 278.2 72, 278.9C72.5, 280 72.9, 281.2 73.3, 282.3C73.7, 283.1 74.1, 283.9 74.5, 284.8C75.1, 286.1 75.7, 287.3 76.3, 288.6C79.9, 294 84.7, 299.2 89.1, 302.1C94, 305.3 100.3, 306.7 105.8, 308.3C111.9, 310.1 118.2, 311.6 124.6, 312C135.6, 312.6 148, 310.9 156.8, 303.9C159.3, 301.9 161.8, 300.2 164.3, 298.4C167.8, 294.7 171.2, 291 174, 286.4C175.4, 284.1 176.7, 281.7 178.3, 279.4C178.5, 278.8 178.7, 278.3 179, 277.7C179.5, 276.9 179.5, 276.2 179.4, 275.6z" class="st0" tag="st01" />
    <path d="M54.3, 236.4C54.3, 236.4 54.3, 236.4 54.3, 236.4C54.3, 236.3 54.3, 236.3 54.3, 236.4C54.3, 236.3 54.3, 236.3 54.3, 236.4zM80.8, 236.9C78.1, 237 75.6, 236.1 73.1, 235.3C70.6, 234.5 68.1, 233.9 65.7, 233C65.2, 232.8 64.8, 232.7 64.3, 232.5C64, 231.5 63.5, 230.5 63.1, 229.5C62.9, 229.1 62.7, 228.7 62.5, 228.3C62.4, 228.1 62.3, 227.9 62.2, 227.7C62.1, 227.6 62.1, 227.4 62, 227.3C61.9, 227.1 61.9, 227.2 62, 227.2C61.8, 226.9 61.7, 226.4 61.6, 226.1C61.5, 225.6 61.3, 225.2 61.2, 224.7C61, 223.6 59.6, 222.9 58.6, 223.2C57.4, 223.6 56.9, 224.7 57.1, 225.8C57.4, 227.5 58.1, 229 58.9, 230.6C55.8, 229.6 52.8, 228.7 49.6, 228.2C48.1, 228 46.5, 228.6 46.1, 230.2C45.7, 231.6 46.6, 233.5 48.1, 233.7C50.4, 234.1 52.7, 234.7 54.9, 235.3C54.8, 235.4 54.8, 235.6 54.7, 235.7C54.6, 235.9 54.5, 236 54.4, 236.2C54.5, 236.1 54.5, 236.1 54.4, 236.3C54.4, 236.3 54.4, 236.3 54.4, 236.3C54.4, 236.3 54.4, 236.3 54.4, 236.3C54.4, 236.3 54.4, 236.3 54.4, 236.3C54.3, 236.4 54.3, 236.5 54.2, 236.5C53.9, 236.9 53.5, 237.3 53.2, 237.7C51.8, 239.4 50.3, 241 49.5, 243.1C49.1, 244.2 49.9, 245.5 51, 245.7C52.2, 246 53.1, 245.4 53.6, 244.4C53.6, 244.4 53.6, 244.4 53.6, 244.3C53.7, 244.2 53.7, 244.1 53.8, 244C53.9, 243.8 54, 243.6 54.1, 243.5C54.2, 243.3 54.4, 243.1 54.5, 242.9C54.6, 242.8 54.6, 242.7 54.7, 242.6C55.3, 241.8 56, 241.1 56.6, 240.3C57.5, 239.2 58.6, 238 59.2, 236.7C61.1, 237.4 63, 238 64.8, 238.6C67.4, 239.5 70.1, 240.2 72.7, 241C75.3, 241.8 78.1, 242.5 80.8, 242.5C84.5, 242.6 84.5, 236.8 80.8, 236.9z" class="st2" tag="st21" />
    <path d="M146.2, 246.3C145.6, 246.6 145, 246.8 144.4, 246.8C144.1, 246.8 143.8, 246.8 143.5, 246.7C143.3, 246.6 143, 246.5 142.8, 246.4C142.7, 246.4 142.7, 246.3 142.6, 246.3C141.9, 245.9 141.4, 245.2 141.2, 244.4C141.1, 244.1 141.1, 243.9 141.1, 243.6C141.1, 243.5 141, 243.4 141, 243.3C140.9, 242.7 140.9, 242.1 141, 241.5C141.1, 241.1 141.3, 240.7 141.5, 240.4C141.9, 239.9 142.2, 239.5 142.7, 239.2C143, 239 143.3, 238.9 143.7, 238.8C143.8, 238.7 144, 238.6 144.1, 238.5C144.3, 238.4 144.6, 238.2 144.9, 238.2C145.2, 238.1 145.5, 238.1 145.8, 238.1C146.1, 238.1 146.4, 238.1 146.7, 238.2C147.3, 238.4 147.8, 238.7 148.2, 239.2C148.8, 239.9 149.3, 240.8 149.2, 241.8C149.1, 243.3 148.3, 244.6 147, 245.4C146.8, 245.8 146.5, 246.1 146.2, 246.3zM149.1, 263.4C149.4, 263.4 149.6, 263.3 149.9, 263.3C150, 263.3 150.1, 263.3 150.1, 263.2C150.3, 263.1 150.6, 263 150.8, 262.9C151.3, 262.6 151.6, 262.3 151.9, 261.8C152, 261.7 152, 261.7 152, 261.6C152.1, 261.4 152.2, 261.1 152.3, 260.8C152.4, 260.5 152.4, 260.2 152.4, 259.9C152.4, 259.9 152.4, 259.9 152.4, 259.8C152.5, 259.7 152.5, 259.6 152.6, 259.4C152.7, 259.1 152.9, 258.8 153, 258.6C153, 258.5 153, 258.5 153, 258.4C153, 258.2 153.1, 257.9 153.1, 257.7C153.1, 257.7 153.1, 257.6 153.1, 257.6C153.1, 257.4 153.1, 257.1 153, 256.9C152.9, 256.7 152.8, 256.5 152.7, 256.3C152.7, 256.3 152.7, 256.3 152.7, 256.2C152.6, 256 152.5, 255.9 152.3, 255.7C152.1, 255.5 151.9, 255.4 151.8, 255.3C151.8, 255.3 151.7, 255.2 151.7, 255.2C151.1, 254.9 150.5, 254.8 149.8, 254.8C149.6, 254.8 149.4, 254.8 149.1, 254.8C148.8, 254.8 148.5, 254.9 148.3, 255C148, 255.1 147.8, 255.2 147.6, 255.4C147.3, 255.7 147.1, 256 147, 256.4C146.7, 256.6 146.4, 256.8 146.1, 257C145.9, 257.2 145.7, 257.5 145.5, 257.7C145.3, 258 145.2, 258.3 145.1, 258.5C145, 258.7 145, 258.9 144.9, 259.1C144.8, 259.4 144.8, 259.8 144.8, 260.1C144.8, 260.3 144.8, 260.6 144.9, 260.8C144.9, 260.9 144.9, 260.9 144.9, 261C145.2, 261.9 145.8, 262.5 146.7, 262.8C146.7, 262.8 146.8, 262.8 146.8, 262.8C147, 262.8 147.3, 262.9 147.5, 262.9C147.5, 262.9 147.5, 262.9 147.5, 262.9C147.5, 262.9 147.5, 262.9 147.6, 262.9C147.7, 262.9 147.8, 262.9 147.9, 263C148.2, 263 148.4, 263.1 148.7, 263.1C148.9, 263.4 149, 263.4 149.1, 263.4zM154.3, 274.8C154.3, 274.7 154.3, 274.6 154.3, 274.6C154.3, 274.3 154.2, 274.1 154.2, 273.8C154.2, 273.6 154.1, 273.5 154, 273.3C153.9, 273.1 153.9, 272.9 153.8, 272.8C153.4, 272.2 152.7, 271.7 151.9, 271.7C151.5, 271.7 151.2, 271.8 150.8, 271.8C150.7, 271.8 150.5, 271.9 150.4, 271.9C150.2, 272 149.9, 272.1 149.7, 272.2C149.7, 272.2 149.6, 272.3 149.6, 272.3C149.4, 272.4 149.3, 272.5 149.1, 272.7C149.1, 272.7 149.1, 272.7 149, 272.7C149, 272.7 149, 272.7 149, 272.7C148.9, 272.9 148.7, 273 148.6, 273.2C148.6, 273.2 148.6, 273.2 148.6, 273.3C148.5, 273.5 148.4, 273.7 148.4, 273.9C148.4, 273.9 148.4, 274 148.4, 274C148.4, 274.2 148.3, 274.4 148.3, 274.6C148.3, 274.6 148.3, 274.6 148.3, 274.7C148.3, 274.8 148.3, 275 148.3, 275.1C148.3, 275.3 148.3, 275.5 148.4, 275.6C148.5, 275.9 148.6, 276.1 148.7, 276.4C148.8, 276.6 149, 276.9 149.2, 277.1C149.3, 277.2 149.3, 277.3 149.4, 277.3C149.5, 277.4 149.6, 277.4 149.6, 277.5C149.8, 277.7 150, 277.9 150.3, 278C150.5, 278.1 150.8, 278.2 151, 278.3C151.1, 278.3 151.1, 278.4 151.2, 278.4C151.4, 278.4 151.6, 278.5 151.8, 278.5C151.8, 278.5 151.8, 278.5 151.9, 278.5C151.9, 278.5 151.9, 278.5 151.9, 278.5C151.9, 278.5 151.9, 278.5 151.9, 278.5C152, 278.5 152.4, 278.4 152.5, 278.4C152.9, 278.3 153.3, 278.1 153.6, 277.8C153.6, 277.8 153.6, 277.8 153.6, 277.8C153.6, 277.8 153.6, 277.8 153.6, 277.8C153.7, 277.7 153.9, 277.5 153.9, 277.4C153.9, 277.4 153.9, 277.4 153.9, 277.4C153.9, 277.4 153.9, 277.4 153.9, 277.4C154, 277.3 154.1, 277 154.1, 276.9C154.1, 276.9 154.1, 276.8 154.1, 276.8C154.1, 276.6 154.2, 276.4 154.2, 276.2C154.2, 276.2 154.2, 276.2 154.2, 276.1C154.5, 275.5 154.4, 275.1 154.3, 274.8z" class="st4" tag="st40" />
    <path d="M117.3, 269.7C117.3, 269.7 117.3, 269.7 117.3, 269.7C117.3, 269.6 117.3, 269.6 117.3, 269.7C117.4, 269.6 117.4, 269.6 117.3, 269.7C117.4, 269.6 117.4, 269.6 117.3, 269.7C117.4, 269.6 117.4, 269.6 117.3, 269.7C117.4, 269.6 117.4, 269.6 117.3, 269.7C117.4, 269.6 117.4, 269.6 117.3, 269.7C117.4, 269.6 117.4, 269.6 117.3, 269.7C117.4, 269.6 117.3, 269.6 117.3, 269.7C117.3, 269.7 117.3, 269.7 117.3, 269.7C117.3, 269.7 117.3, 269.7 117.3, 269.7C117.3, 269.7 117.3, 269.7 117.3, 269.7C117.3, 269.7 117.3, 269.7 117.3, 269.7zM117.5, 269.4C117.5, 269.4 117.5, 269.4 117.5, 269.4C117.5, 269.4 117.4, 269.5 117.4, 269.5C117.4, 269.5 117.5, 269.5 117.5, 269.4C117.5, 269.4 117.5, 269.4 117.5, 269.4zM129.3, 264.3C129.1, 263.1 128.7, 261.9 128.3, 260.7C128.4, 260.4 128.4, 260.1 128.5, 259.9C128.5, 259.7 128.5, 259.6 128.5, 259.4C130, 256.7 129.5, 253 128.9, 249.7C128.3, 246.3 127.9, 242.6 127.4, 239C127, 235.8 126.6, 232.7 126.5, 229.5C126.5, 228.3 126.4, 227 126.4, 225.8C126.2, 222.1 120.6, 222.1 120.7, 225.8C120.7, 226.2 120.7, 226.5 120.7, 226.9C120.4, 226.8 120.1, 226.7 119.8, 226.7C119.8, 226.6 119.8, 226.5 119.7, 226.4C118.9, 224.4 116.6, 223.5 114.9, 225.1C114.2, 225.8 113.5, 226.7 112.9, 227.8C112.6, 227.9 112.3, 228 112.1, 228.2C111.1, 227.9 109.9, 228.2 109.1, 229C109, 229 109, 229 108.9, 229C108.2, 228.4 107.1, 228.2 106.3, 228.4C104.7, 228.8 104.1, 230.4 104.3, 231.9C105.1, 237.2 105.3, 242.8 105.1, 248.2C104.9, 251.9 104.3, 256.8 106.5, 260.1C107.1, 261 107.8, 261.6 108.7, 262.1C108.7, 262.2 108.7, 262.2 108.7, 262.3C108.7, 262.4 108.7, 262.6 108.7, 262.7C108.7, 262.8 108.7, 262.9 108.7, 263C108.6, 263.5 108.5, 263.9 108.3, 264.4C108.3, 264.4 108.3, 264.5 108.2, 264.5C108.1, 264.6 108.1, 264.7 108, 264.8C108, 264.8 107.9, 264.9 107.9, 264.9C107.8, 265 107.7, 265.1 107.7, 265.2C107.7, 265.2 107.6, 265.3 107.6, 265.3C107.6, 265.3 107.5, 265.4 107.5, 265.4C107.4, 265.4 107.4, 265.5 107.3, 265.5C107.2, 265.6 107.1, 265.6 106.9, 265.7C106.9, 265.7 106.9, 265.7 106.9, 265.7C106.8, 265.7 106.7, 265.8 106.7, 265.8C106, 266 105.5, 266.8 105.7, 267.6C105.9, 268.3 106.7, 268.8 107.5, 268.6C109, 268.1 110.3, 267.1 110.9, 265.7C111.3, 264.9 111.5, 264 111.6, 263.1C112.2, 263.2 112.9, 263.4 113.5, 263.4C113.5, 263.7 113.5, 264 113.5, 264.4C113.5, 264.5 113.4, 264.6 113.4, 264.8C113.4, 264.8 113.4, 264.8 113.4, 264.8C113.3, 264.9 113.3, 264.9 113.2, 265C112.9, 265.2 112.8, 265.7 112.8, 266C112.8, 266.4 113, 266.8 113.2, 267C113.5, 267.3 113.8, 267.4 114.2, 267.4C114.3, 267.4 114.5, 267.4 114.6, 267.3C114.8, 267.2 115.1, 267.1 115.2, 266.9C115.6, 266.6 115.9, 266.1 116.1, 265.6C116.3, 265.2 116.3, 264.7 116.3, 264.3C116.3, 264.1 116.3, 263.8 116.3, 263.6C116.6, 263.6 116.9, 263.6 117.1, 263.6C117.2, 263.9 117.2, 264.1 117.3, 264.4C117.4, 264.8 117.5, 265.3 117.5, 265.7C117.5, 265.9 117.6, 266.2 117.6, 266.4C117.6, 266.4 117.6, 266.5 117.6, 266.5C117.6, 266.5 117.6, 266.5 117.6, 266.5C117.6, 266.6 117.6, 266.7 117.6, 266.8C117.6, 267.3 117.7, 267.7 117.7, 268.2C117.7, 268.4 117.7, 268.6 117.7, 268.8C117.7, 268.9 117.7, 269 117.6, 269.1C117.6, 269.2 117.6, 269.3 117.5, 269.3C117.5, 269.3 117.5, 269.3 117.5, 269.3C117.5, 269.3 117.5, 269.3 117.5, 269.4C117.5, 269.5 117.5, 269.5 117.5, 269.5C117.5, 269.5 117.5, 269.5 117.5, 269.5C117.5, 269.5 117.5, 269.5 117.6, 269.5C117.6, 269.5 117.6, 269.5 117.6, 269.5C117.6, 269.5 117.7, 269.5 117.5, 269.6L117.5, 269.6C117.5, 269.6 117.5, 269.6 117.5, 269.6C117.5, 269.6 117.5, 269.6 117.5, 269.6C117.5, 269.6 117.5, 269.6 117.5, 269.6C117.5, 269.6 117.5, 269.6 117.5, 269.6C117.5, 269.6 117.5, 269.6 117.5, 269.6C117.5, 269.6 117.5, 269.6 117.5, 269.6C117.5, 269.6 117.5, 269.6 117.5, 269.6C117.4, 269.6 117.3, 269.6 117.3, 269.7C116.6, 269.8 116.1, 270.8 116.3, 271.5C116.6, 272.3 117.3, 272.7 118.1, 272.5C120.5, 272 120.8, 269.3 120.7, 267.3C120.6, 266 120.3, 264.8 120.1, 263.6C120.5, 263.6 120.9, 263.5 121.4, 263.5C121.4, 263.5 121.4, 263.6 121.4, 263.6C121.4, 264.3 121.4, 265 121.5, 265.6C121.7, 267.3 122.2, 268.8 123.4, 270.1C123.9, 270.6 124.9, 270.7 125.4, 270.1C125.9, 269.5 126, 268.6 125.4, 268.1C125.3, 268 125.2, 267.9 125.1, 267.8C125.1, 267.8 125, 267.7 125, 267.7C125, 267.6 124.9, 267.6 124.9, 267.5C124.8, 267.4 124.7, 267.2 124.7, 267.1C124.7, 267 124.6, 266.8 124.7, 267.1C124.7, 267 124.6, 267 124.6, 266.9C124.5, 266.6 124.4, 266.3 124.4, 266C124.4, 266 124.4, 266 124.4, 265.9C124.4, 265.9 124.4, 265.8 124.4, 265.8C124.4, 265.6 124.4, 265.5 124.4, 265.3C124.4, 264.6 124.4, 263.9 124.3, 263.2C125, 263.1 125.6, 263 126.3, 262.9C126.5, 263.5 126.7, 264.2 126.8, 264.8C126.8, 265 126.9, 265.2 126.9, 265.5C126.9, 265.6 126.9, 265.7 126.9, 265.8C126.9, 265.9 126.9, 265.9 126.9, 265.9C126.9, 265.9 126.9, 265.9 126.9, 265.9C127, 266.3 127, 266.7 127, 267.2C127, 267.4 127, 267.6 127, 267.8C127, 267.8 127, 267.8 127, 267.9C127, 268 127, 268.1 127, 268.2C127, 268.4 126.9, 268.6 126.8, 268.7C126.8, 268.7 126.8, 268.7 126.8, 268.7C126.8, 268.8 126.7, 268.9 126.7, 269C126.3, 269.7 126.5, 270.6 127.2, 271C127.9, 271.4 128.8, 271.2 129.2, 270.5C129.9, 268.4 129.7, 266.3 129.3, 264.3z" class="st5" tag="st50" />
    <path d="M126.4, 226.8C124, 227 121.7, 227.5 119.4, 228.2C116.6, 229 113.9, 229.8 111.1, 230.3C108.9, 230.7 106.4, 230.9 104.3, 231.9C104.3, 231.9 104.3, 231.9 104.3, 231.9C104.6, 233.7 104.8, 235.5 104.9, 237.3C108.9, 236.2 112.9, 234.9 117.1, 234C118.9, 233.6 120.7, 233.2 122.5, 233C123.9, 232.8 125.4, 232.7 126.8, 232.2C126.7, 231.3 126.6, 230.4 126.6, 229.4C126.5, 228.6 126.4, 227.7 126.4, 226.8z" class="st4" tag="st41" />
    <path d="M160.6, 210.9C159.8, 209.3 159, 207.7 158, 206.3C156.8, 204.5 155.4, 203 153.7, 201.7C153.2, 201.3 152.4, 201.3 151.9, 201.4C151.3, 201.5 150.7, 201.7 150.3, 202.2C149.7, 202.9 149.3, 203.6 149, 204.5C146.3, 206.6 142.8, 208 139.7, 209.3C134.8, 211.3 129.8, 212.8 124.5, 213.6C114.9, 215.1 104.7, 214.7 96.4, 209.3C96.3, 208.8 96.2, 208.4 95.8, 207.9C95, 206.9 93.3, 206.3 92.1, 207.2C90.5, 208.3 88.9, 209.4 87.4, 210.6C85.4, 212.2 83.3, 213.8 81.9, 216C81.1, 217.4 80.7, 218.8 81.1, 220.4C81.2, 220.7 81.3, 221 81.5, 221.3C82.9, 224.8 85.9, 226.8 89.4, 228.2C90.8, 229.2 92.3, 230.1 93.8, 230.9C98.9, 233.5 103.9, 234.3 109.5, 233.7C115.3, 233.1 120.9, 231.7 126.4, 230C129.7, 229 133.1, 228 136.4, 226.9C138.5, 226.2 140.7, 225.6 142.8, 224.8C149, 222.6 155.1, 219.8 160.1, 215.4C160.8, 214.8 161, 213.9 160.9, 213.2C161, 212.3 160.9, 211.5 160.6, 210.9z" class="st5" tag="st51" />
    <path d="M152.1, 201.3C152, 201.3 152, 201.3 151.9, 201.3C151.3, 201.4 150.7, 201.6 150.3, 202.1C150.2, 202.2 150.2, 202.2 150.2, 202.3C148.6, 198.3 142, 200.1 143.4, 204.5C143.8, 205.7 143.9, 206.6 143.5, 207.5C142.2, 208.1 140.9, 208.6 139.7, 209.1C139.4, 209.2 139.2, 209.3 138.9, 209.4C138.1, 210.3 137.1, 211 136.1, 211.6C130.9, 214.8 124.2, 215.8 118.3, 216.2C116.4, 216.3 114.4, 216.4 112.5, 216.1C111.8, 215.8 111, 215.4 110.3, 215C108.2, 213.9 106, 213 104.2, 211.4C103.4, 210.7 102.7, 210 101.9, 209.5C101.8, 209.3 101.7, 209.2 101.5, 209C100.7, 208.1 99.7, 207.6 98.6, 207.3C97.3, 206.9 96.2, 207.3 95.4, 207.9C95.3, 207.9 95.2, 207.8 95.1, 207.8C95.2, 207.6 95.4, 207.5 95.5, 207.3C94.6, 206.5 93.2, 206.2 92.1, 206.9C90.5, 208 88.9, 209.1 87.4, 210.3C85.4, 211.9 83.3, 213.5 81.9, 215.7C81.1, 217.1 80.7, 218.5 81.1, 220.1C81.2, 220.4 81.3, 220.7 81.5, 221C82.8, 224.4 85.7, 226.4 89, 227.8C89, 227.7 89, 227.6 88.9, 227.5C88.1, 226 86.5, 224.8 85.9, 223.2C85.8, 222.8 85.7, 222.4 85.7, 222C85.9, 221.6 86.1, 221.2 86.3, 220.9C87.5, 219.4 89.8, 219.4 90.7, 217.5C91.1, 216.7 91.5, 215.8 92.2, 215.3C92.2, 215.3 92.4, 215.2 92.5, 215.2C92.6, 215.2 92.8, 215.1 92.8, 215.1C92.9, 215.1 93.1, 215.1 93.2, 215.1C93.2, 215.1 93.5, 215.2 93.6, 215.2C94.5, 215.4 95.3, 215.7 96.1, 216C97.7, 216.7 99.1, 217.8 100.7, 218.5C103.4, 219.8 106.1, 221.3 108.9, 222.6C109.9, 223 110.8, 223.3 111.8, 223.6C117.2, 225.6 123.7, 225.1 129.3, 224.3C132.2, 223.8 135.1, 223 137.8, 221.7C140.4, 220.5 142.6, 218.6 144.8, 216.9C148.8, 213.6 151.5, 209.5 150.8, 204.5C151.2, 203.4 151.7, 202.4 152.1, 201.3z" class="st4" tag="st42" />
    <path d="M157.8, 184.3C157.9, 182.8 157.8, 181.3 157.6, 179.7C155.6, 164.4 143.3, 149 128, 145.4C127.9, 145.4 127.8, 145.4 127.7, 145.3C123.7, 143.8 119.5, 143 115.2, 143.2C106.8, 143.6 99.8, 147.8 94.7, 153.9C93.5, 155.1 92.4, 156.3 91.4, 157.8C90.2, 159.4 89.3, 161.1 88.4, 162.8C84.9, 168.9 83.5, 175.9 83.9, 183C83.9, 189.6 85.6, 196.1 89.3, 201.5C91, 204.4 93, 206.8 95.3, 208.7C99.7, 216 106.8, 221.2 116.6, 221.8C131.5, 222.7 148.3, 213.3 154.7, 199.8C157.1, 194.7 158, 189.5 157.8, 184.3z" class="st3" tag="st31" />
    <path d="M117.3, 169.8C117.6, 170.1 117.9, 170.5 118, 171C118.2, 171.4 118.3, 171.9 118.3, 172.4C118.4, 173.2 118.3, 173.9 118.1, 174.7C118.1, 174.9 118, 175.1 117.9, 175.3C117.8, 175.7 117.6, 176.1 117.4, 176.4C117.3, 176.6 117.1, 176.8 117, 177C116.9, 177.2 116.7, 177.4 116.5, 177.6C116.4, 177.7 116.2, 177.9 116, 178C115.9, 178.1 115.7, 178.2 115.5, 178.3C115.4, 178.4 115.3, 178.4 115.2, 178.4C114.8, 178.6 114.5, 178.7 114.1, 178.9C113.1, 179.2 112.1, 179.2 111.1, 178.9C111.1, 178.9 111, 178.9 111, 178.9C110.7, 178.8 110.4, 178.7 110.1, 178.5C110, 178.5 110, 178.4 109.9, 178.4C109.6, 178.2 109.3, 178 109, 177.7C109, 177.7 109, 177.7 108.9, 177.6C108.7, 177.4 108.5, 177.1 108.3, 176.8C107.9, 176.2 107.6, 175.2 107.7, 174.4C107.8, 173.6 107.9, 172.7 108.4, 172C108.6, 171.7 108.9, 171.3 109.2, 171.1C109.4, 170.9 109.7, 170.7 110, 170.5C110, 170.5 110, 170.5 110.1, 170.5C110.1, 170.5 110.1, 170.5 110.2, 170.5C110.5, 170.4 110.8, 170.2 111.1, 170.1C111.2, 170.1 111.2, 170.1 111.3, 170.1C111.5, 170.1 111.7, 170 112, 170C112, 169.9 112.1, 169.9 112.1, 169.8C112.5, 169.4 113.1, 169 113.7, 168.9C114, 168.9 114.3, 168.8 114.7, 168.8C115.2, 168.8 115.7, 168.9 116.1, 169.1C116.5, 169.2 116.9, 169.5 117.3, 169.8zM138.5, 169.9C138, 169.8 137.5, 169.8 137.1, 170C136.6, 170.1 136.2, 170.3 135.9, 170.6C135.5, 170.9 135.2, 171.2 135, 171.6L135, 171.7C134.9, 171.8 134.8, 172 134.7, 172.2C134.4, 172.8 134.2, 173.4 134.2, 174C134.2, 174 134.2, 174.1 134.2, 174.1C134.2, 174.1 134.2, 174.2 134.2, 174.2C134.2, 174.5 134.2, 174.7 134.3, 175C134.3, 175.5 134.5, 175.9 134.7, 176.3C134.9, 176.7 135.2, 177.1 135.6, 177.3C135.9, 177.6 136.4, 177.8 136.8, 177.9C137.1, 177.9 137.4, 178 137.8, 178C138.2, 178 138.5, 177.9 138.8, 177.8C138.9, 177.8 138.9, 177.8 139, 177.8C139, 177.8 139, 177.8 139, 177.8C139, 177.8 139, 177.8 139, 177.8C139.1, 177.8 139.8, 177.5 139.9, 177.4C139.9, 177.4 139.9, 177.4 140, 177.4C140.2, 177.2 140.6, 177 140.8, 176.8C141, 176.6 141.2, 176.3 141.4, 176C141.4, 176 141.4, 175.9 141.4, 175.9C141.4, 175.9 141.4, 175.9 141.4, 175.9C141.5, 175.7 141.7, 175.2 141.8, 175C141.8, 175 141.8, 175 141.8, 175C141.8, 175 141.8, 174.9 141.8, 174.9C141.9, 174.6 141.9, 174.2 141.9, 173.9C141.9, 173.9 141.9, 173.8 141.9, 173.8C141.9, 173.9 141.9, 173 141.7, 172.7C141.6, 172.4 141.5, 172 141.3, 171.7C141.1, 171.4 140.9, 171.1 140.7, 170.9C140.7, 170.9 140.7, 170.9 140.7, 170.9C140.5, 170.7 140.2, 170.5 139.9, 170.3C139.5, 170.1 139, 169.9 138.5, 169.9zM94.8, 181.5C97.1, 179.5 99, 177.2 101.1, 175C102.9, 173.2 104.7, 171.3 106.3, 169.3C107.1, 168.3 108.1, 167 108.6, 165.7C111.4, 165.2 114.1, 164.5 116.8, 163.7C123.6, 161.7 130, 157.4 136.8, 155.8C142.2, 154.5 139.9, 146.2 134.5, 147.5C126.3, 149.4 119, 154.4 110.7, 156.4C106.6, 157.4 102.2, 158.1 98.1, 158.7C97.5, 158.8 95.8, 159.1 94.5, 159.1C93.1, 157.1 90.3, 156.2 88.2, 158.5C81.2, 166.1 93.8, 167.8 98.8, 167.2C100.9, 166.9 103, 166.6 105.1, 166.3C104.6, 167 104.1, 167.6 103.6, 168.2C102.1, 169.9 100.5, 171.6 98.9, 173.2C97, 175.2 95.2, 177.3 93.1, 179.1C91.8, 180.2 90.4, 181.3 89.1, 182.5C88.2, 183.3 87.3, 184.2 86.2, 184.7C85.8, 184.6 85.3, 184.6 84.9, 184.9C84.2, 185.3 83.9, 186 84.2, 186.8C84.5, 187.5 85.2, 188 86, 187.8C87.8, 187.3 89.3, 186.1 90.7, 184.9C92, 183.8 93.4, 182.7 94.8, 181.5zM136.4, 209.5C129.8, 212 122.4, 213.1 115.4, 212.1C107.3, 211 102, 206.7 95.6, 202C93.5, 200.5 91.4, 199.1 89.6, 197.5C89.7, 198.1 89.8, 198.6 90.1, 199.2C91.4, 201.8 92.8, 204.3 94.4, 206.5C94.7, 207.1 95.1, 207.7 95.4, 208.2C97.4, 210.8 99.9, 213.1 102.4, 215.1C107.7, 219.2 115.1, 220.4 121.7, 219.6C123, 219.4 124.3, 219.1 125.5, 218.7C129.9, 218.3 134.2, 216.2 138, 213.9C143.7, 210.5 146.6, 205 151.5, 200.9C146.7, 204 142, 207.4 136.4, 209.5z" class="st0" tag="st02" />
    <path d="M147.8, 192.4C144.7, 189.8 141.4, 187.5 138.2, 185.1C135.3, 182.9 132.5, 180.6 129.1, 179.2C128.6, 179 128.1, 179.1 127.8, 179.4C127.5, 179.2 127.1, 179.1 126.6, 179.2C125.5, 179.3 124.6, 180.1 123.9, 180.9C122.2, 182.7 121.2, 184.8 121.2, 187.3C121.2, 190.3 122.6, 193.1 125.6, 194.1C128.6, 195.1 131.9, 194.7 135, 194.8C139, 195 143.2, 196 147.1, 194.7C148.1, 194.5 148.6, 193.1 147.8, 192.4z" class="st6" tag="st60" />
    <path d="M116.6, 174.8C116.9, 175.5 117, 176.2 116.9, 177C116.8, 177.3 116.7, 177.6 116.6, 177.8C116.5, 178 116.3, 178.2 116.1, 178.4C115.9, 179 115.6, 179.5 115.2, 179.9C114.7, 180.3 114.3, 180.5 113.8, 180.8C113.4, 181 113, 181 112.5, 181C112.1, 181 111.6, 180.8 111.2, 180.5C111, 180.5 110.8, 180.4 110.7, 180.4C110.3, 180.2 110, 179.9 109.7, 179.5C108.9, 178.3 108.6, 176.7 109, 175.3C109.1, 174.9 109.3, 174.5 109.5, 174.1C109.9, 173.2 110.4, 172.3 111.1, 171.6C111.5, 171.2 112, 171 112.6, 171C113.1, 171 113.8, 171.2 114.1, 171.6C114.4, 171.9 114.6, 172.2 114.8, 172.6C115.3, 172.6 115.8, 172.9 116.1, 173.2C116.5, 173.6 116.8, 174.2 116.7, 174.7C116.6, 174.7 116.6, 174.8 116.6, 174.8zM140.4, 174C140.2, 173.6 139.6, 173.2 139.2, 173C139.1, 173 138.9, 173 138.7, 173C138.5, 172.8 138.3, 172.7 138, 172.6C137.7, 172.4 137.3, 172.3 137, 172.3C136.7, 172.3 136.4, 172.3 136.2, 172.5C135.9, 172.6 135.7, 172.7 135.5, 172.9C135.2, 173.2 135.1, 173.5 135, 173.8C134.8, 174.6 134.8, 175.6 135, 176.4C135, 176.4 135, 176.5 135.1, 176.5C135.2, 176.8 135.3, 177.2 135.5, 177.5C135.5, 177.5 135.5, 177.5 135.6, 177.6C135.6, 177.7 135.6, 177.7 135.6, 177.8C135.6, 178.3 135.8, 178.9 136.2, 179.3C136.6, 179.7 137.2, 179.9 137.7, 179.9C138.2, 179.9 138.8, 179.7 139.2, 179.3C139.2, 179.3 139.3, 179.2 139.3, 179.2C139.4, 179.2 139.5, 179.2 139.5, 179.1C139.8, 179 140, 178.9 140.2, 178.7C140.5, 178.4 140.6, 178.1 140.7, 177.7C140.8, 177.5 140.9, 177.3 141, 177C141.1, 175.9 140.8, 174.9 140.4, 174zM124.6, 201.2C124.2, 201.2 123.9, 201.5 123.9, 201.9C124, 202.6 123.8, 203.3 123.4, 204C123.2, 204.3 123, 204.6 122.7, 204.8C122.6, 204.9 122.4, 205 122.3, 205.1C122.3, 205.1 122.2, 205.1 122.1, 205.2C122.1, 205.2 121.9, 205.2 121.9, 205.2C121.8, 205.2 121.8, 205.2 121.7, 205.2C121.7, 205.2 121.6, 205.2 121.6, 205.2C121.5, 205.2 121.5, 205.2 121.4, 205.2C121.4, 205.2 121.3, 205.2 121.3, 205.2C121.3, 205.2 121.3, 205.2 121.3, 205.2C121.2, 205.2 121.2, 205.1 121.1, 205.1C121.1, 205.1 121.1, 205.1 121.1, 205.1C121.1, 205.1 121.1, 205.1 121.1, 205.1C121, 205 120.9, 204.9 120.8, 204.7C120.8, 204.7 120.8, 204.7 120.8, 204.7C120.8, 204.7 120.8, 204.7 120.8, 204.6C120.8, 204.5 120.7, 204.5 120.7, 204.4C120.6, 204.3 120.5, 204.1 120.4, 204C120.2, 203.7 120.1, 203.4 119.9, 203C119.6, 202.3 119.3, 201.6 118.9, 201C118.7, 200.7 118.3, 200.5 117.9, 200.7C117.6, 200.9 117.4, 201.4 117.6, 201.7C118.5, 203 118.8, 204.6 119.9, 205.8C120.4, 206.4 121.2, 206.8 122, 206.7C123.1, 206.6 123.9, 206 124.5, 205.1C125.1, 204.2 125.5, 203.1 125.4, 202C125.3, 201.5 125, 201.2 124.6, 201.2z" class="st4" tag="st43" />
    <path d="M147.9, 158.1C146.8, 156.7 145.3, 155.6 143.4, 155.5C143.3, 155.5 143.2, 155.5 143, 155.5C141.7, 155.4 140.4, 155.1 139.1, 155C135.7, 154.8 132.2, 154.9 128.8, 155.2C122.9, 155.8 117.1, 156.9 111.4, 158.2C105.7, 159.5 100.1, 161.2 94.8, 163.8C92, 165.2 89.2, 166.7 86.7, 168.5C86.2, 168.8 85.7, 169.2 85.2, 169.6C85.1, 170 85, 170.4 84.9, 170.8C84.8, 171.8 84.6, 172.8 84.4, 173.8C84.4, 173.9 84.3, 174 84.3, 174.1C84.3, 174.1 84.3, 174.2 84.3, 174.2C84.3, 174.4 84.3, 174.6 84.3, 174.8C84.3, 174.8 84.3, 174.9 84.3, 174.9C84.3, 175.2 84.3, 175.5 84.3, 175.7C84.3, 176 84.2, 176.3 84, 176.6C83.6, 176.4 83.1, 176.3 82.7, 176.2C82.1, 175.9 81.1, 175.5 80.7, 175.1C79.6, 174 78.9, 171.8 79.2, 170.4C80, 168.7 81.7, 167 83.3, 165.8C83.5, 165.6 83.8, 165.4 84, 165.3C84, 165.3 84, 165.2 84, 165.2C84.1, 161 83.1, 157 82.2, 152.9C81.3, 149 80.9, 145 79.9, 141.2C78.8, 137.3 77.1, 133.6 75.6, 129.8C74.2, 126.4 73, 122.9 71.1, 119.7C70.9, 119.3 70.8, 119 70.8, 118.6C69.7, 117.3 69, 115.8 69.6, 113.9C70.5, 110.8 73.3, 108.3 75.8, 106.4C85.3, 99.1 97.3, 98.6 108.8, 98.6C114.9, 98.6 121.1, 98.2 127.1, 99.4C129.5, 99.9 136.5, 102.5 134.8, 106C134.8, 106.2 134.8, 106.4 134.8, 106.5C134.8, 107.1 134.9, 107.8 134.9, 108.4C135, 109.7 135.2, 110.9 135.3, 112.2C135.3, 112.3 135.3, 112.5 135.3, 112.6C135.3, 112.4 135.4, 113.7 135.5, 113.8C135.7, 115 135.8, 116.3 135.9, 117.5C136.1, 120 136.3, 122.4 136.6, 124.9C137.1, 129.9 138.7, 134.5 140, 139.3C141.1, 143.2 143, 147 143.3, 151.1C144.5, 151.3 145.6, 151.7 146.5, 152.2C148, 153.2 148.4, 154.6 148.2, 156.1C148.5, 156.7 148.5, 157.5 147.9, 158.1z" class="st7" tag="st70" />
    <path d="M144.3, 193.2C141.7, 192.4 139.3, 190.7 136.6, 189.9C133.5, 189 130.4, 188.2 127.3, 187.2C126.4, 186.9 125.4, 187.2 124.6, 187.8C124.5, 187.8 124.5, 187.8 124.4, 187.7C124.3, 187.9 124.3, 188.1 124.2, 188.2C124, 188.7 123.8, 189.2 123.8, 189.7C123.8, 190 124, 190.6 123.8, 190.4C123.9, 190.5 124, 190.6 124.1, 190.7C124.3, 191 124.5, 191.2 124.6, 191.5C128.1, 191.9 131.7, 192.5 135.3, 192.9C138.7, 193.3 142.1, 193.5 145.5, 193.7C145.2, 193.6 144.8, 193.4 144.3, 193.2z" class="st4" tag="st44" />
    <path d="M133.8, 139.5C133.5, 135.2 132.2, 130.8 131.3, 126.6C130.3, 122.1 129.1, 117.5 129, 112.9C128.9, 111.3 129, 109.6 128.2, 108.1C127.9, 107.5 127.5, 106.9 126.9, 106.5C126.2, 106 125.1, 106.1 124.5, 105.5C124.2, 105.2 123.8, 105.1 123.5, 105.1C121.6, 104.1 118.8, 104.1 117.3, 105.6C115.2, 107.8 117.4, 111.9 118.1, 114.2C119.3, 118.4 120.4, 122.7 121.4, 127C122.4, 131.3 123.4, 135.6 124.5, 139.9C125.2, 142.5 125.7, 145.5 129.2, 144.9C129.5, 144.8 129.8, 144.8 130.2, 144.7C130.4, 144.7 130.7, 144.6 130.9, 144.4C132.6, 143.6 133.9, 141.9 133.8, 139.5z" class="st3" tag="st32" />
    <path d="M81.8, 140.9C80.9, 137.5 80, 134.2 78.8, 130.9C78.2, 129.2 77.5, 127.6 76.7, 126C76, 124.6 75.2, 123.2 74.6, 121.7C73.9, 119.9 72.6, 118 72.3, 116.1C72.3, 116.1 72.3, 116.1 72.3, 116C72.3, 116 72.3, 116 72.3, 116C72.3, 116 72.2, 115.9 72.2, 115.9C72.2, 115.9 72.2, 115.8 72.2, 115.8C72, 115.6 71.9, 115.3 71.9, 115C71.9, 114.7 71.9, 114.5 71.9, 114.2C71.9, 114 72, 113.7 72.1, 113.5C72.2, 113.1 72.3, 112.8 72.5, 112.4C72.8, 111.8 73.3, 111.1 73.9, 110.7C73.9, 110.7 74, 110.6 74, 110.6C74.9, 109.4 76.1, 108.4 77.3, 107.4C78.3, 106.6 79.3, 105.7 80.4, 105.1C81.7, 104.4 83.2, 104 84.6, 104.2C86.8, 103.9 88.7, 105.6 88.8, 108C88.8, 108.4 88.8, 108.7 88.9, 109.1C89.1, 109.8 89.2, 110.5 89.4, 111.2C89.9, 113.1 90.5, 115 91.1, 116.8C92.2, 120.1 93.5, 123.3 94.6, 126.6C95.7, 129.8 96.6, 133.1 97.7, 136.3C98.8, 139.5 100.2, 142.5 101.8, 145.4C102.6, 146.8 103.3, 148.2 103.9, 149.7C104.4, 151 105.1, 152.6 105, 153.9C105, 153.9 105, 153.9 105, 153.9C105.4, 154.4 104.9, 154.9 104.4, 154.9C104.1, 155.3 103.5, 155.6 103, 155.5C102.8, 155.5 102.6, 155.6 102.5, 155.6C101.9, 155.8 101.4, 156 100.9, 156.2C99.7, 156.7 98.4, 157.2 97.2, 157.7C95.8, 158.3 94.4, 158.7 93, 159.4C91.5, 160.1 90.4, 161.4 88.9, 162C88.2, 162.3 87.4, 162.2 86.9, 161.5C86.7, 161.2 86.7, 160.7 86.8, 160.3C86.8, 160.2 86.7, 160.1 86.7, 159.9C86.6, 158 86.4, 156 86.3, 154.1C85.9, 152.7 85.5, 151.3 85, 149.9C83.8, 147 82.7, 144 81.8, 140.9zM137.3, 152.8C133.3, 152.7 128.9, 152.8 124.9, 153.6C122.6, 154 120.4, 154.6 118.1, 155C114.6, 155.6 111.1, 155.9 107.8, 157C104.6, 158 101.6, 159.4 98.4, 160.6C95.4, 161.7 92.1, 162.3 89.4, 164C89.3, 164.1 89.2, 164.1 89.1, 164.2C88.9, 164.2 88.7, 164.2 88.5, 164.2C87.2, 164.6 86.3, 165.6 85.4, 166.5C85.3, 166.6 85.1, 166.8 85, 167C85, 167 85, 167 84.9, 167.1L84.9, 167.1C84.9, 167.1 84.9, 167.1 84.9, 167.1C84.6, 167.3 84.3, 167.4 84.1, 167.6C83.5, 168 82.9, 168.5 82.4, 169C81.9, 169.5 81.4, 170.1 81.2, 170.7C80.9, 171.7 81.3, 172.8 82, 173.6C82.6, 174.2 83.4, 174.6 84.2, 174.7C84.2, 174.7 84.2, 174.7 84.2, 174.7C84.2, 174.5 84.2, 174.3 84.2, 174.1C84.2, 174.1 84.2, 174 84.2, 174C84.2, 173.9 84.3, 173.8 84.3, 173.7C84.5, 172.7 84.7, 171.7 84.8, 170.7C84.9, 170.3 85, 169.9 85.1, 169.5C85.6, 169.1 86.1, 168.7 86.6, 168.4C89.2, 166.6 91.9, 165.1 94.7, 163.7C100, 161.1 105.6, 159.4 111.3, 158.1C117, 156.8 122.9, 155.6 128.7, 155.1C132.1, 154.8 135.6, 154.7 139, 154.9C140.3, 155 141.6, 155.3 142.9, 155.4C143, 155.4 143.1, 155.4 143.3, 155.4C145.2, 155.4 146.7, 156.6 147.8, 158C147.9, 157.8 148, 157.7 148.1, 157.5C147.5, 153.3 140.7, 153 137.3, 152.8z" class="st4" tag="st45" />
    <path d="M112.2, 154.5C111.2, 156.7 109.6, 158.6 108, 160.4C106.3, 162.4 104.8, 164.4 103.1, 166.4C99.5, 170.5 95.6, 174.5 91.5, 178.2C89.6, 179.9 87.5, 181.6 85.3, 182.9C84.2, 183.5 83, 184.1 81.7, 184.5C81.5, 184.6 80.4, 184.7 79.7, 184.8C79.7, 184.8 79.7, 184.8 79.7, 184.8C80, 184.2 80.5, 183.6 80.9, 183.1C81.7, 182.1 82.6, 181.1 83.6, 180.2C84.9, 178.9 82.9, 176.8 81.6, 178.2C79.9, 180 77.6, 182 76.8, 184.4C76.4, 185.5 76.5, 186.6 77.5, 187.3C78.7, 188.2 80.7, 187.8 82, 187.4C86.5, 186.2 90.4, 183.2 93.7, 180.1C97.6, 176.5 101.4, 172.7 104.9, 168.7C106.7, 166.6 108.4, 164.4 110.2, 162.3C111.8, 160.3 113.6, 158.3 114.6, 156C115.5, 154.3 113, 152.8 112.2, 154.5z" class="st7" tag="st71" />
    <polygon points="245.4,216.5 245.4,240.4 239.4,241.9 240.9,216.5  " class="st2" tag="st22" />
    <g tag="Element2">
      <polygon points="239.4,123.9 261.8,150.7 251.4,150.7 267.8,176.1 254.4,176.1 270.8,198.5 258.9,200 273.8,223.9     208.1,222.4 223,200 214,200 227.5,174.6 220,174.6 233.5,150.7 226,150.7   " class="st8" tag="st80" />
    </g>
    <path d="M244.4, 193.9C241.5, 193.9 241.5, 189.4 244.4, 189.4C247.3, 189.4 247.3, 193.9 244.4, 193.9zM251.9, 163.1C251.6, 162.8 251.3, 162.6 250.9, 162.5C250.7, 162.5 250.5, 162.4 250.3, 162.4C250, 162.4 249.7, 162.5 249.4, 162.6C249.1, 162.7 248.9, 162.8 248.7, 163.1C248.5, 163.3 248.3, 163.5 248.2, 163.8C248.1, 164.1 248, 164.4 248, 164.7L248, 165C248, 165.4 248.1, 165.8 248.3, 166.1L248.7, 166.6C249, 166.9 249.3, 167.1 249.7, 167.2C249.9, 167.2 250.1, 167.3 250.3, 167.3C250.6, 167.3 250.9, 167.2 251.2, 167.1C251.5, 167 251.7, 166.9 251.9, 166.6C252.1, 166.4 252.3, 166.2 252.4, 165.9C252.5, 165.6 252.6, 165.3 252.6, 165L252.6, 164.7C252.6, 164.3 252.5, 163.9 252.3, 163.6L251.9, 163.1zM229.9, 184.7C226, 184.7 226.1, 190.7 229.9, 190.7C233.8, 190.7 233.7, 184.7 229.9, 184.7zM269.1, 212.9C269.1, 212.6 269, 212.3 269, 212.1C269, 212.1 269, 212.1 269, 212C269, 212 269, 212 269, 212L268.7, 211.3C268.7, 211.3 268.7, 211.3 268.7, 211.3C268.7, 211.3 268.7, 211.3 268.7, 211.3C268.7, 211.3 268.7, 211.3 268.7, 211.3C268.6, 211.1 268.4, 210.9 268.2, 210.7C268.2, 210.7 268.2, 210.7 268.2, 210.7C268.2, 210.7 268.2, 210.7 268.2, 210.7C268.2, 210.7 268.2, 210.7 268.2, 210.7C268.2, 210.7 267.6, 210.3 267.6, 210.2C267.6, 210.2 267.6, 210.2 267.6, 210.2C267.6, 210.2 267.6, 210.2 267.6, 210.2C267.4, 210.1 267.1, 210 266.9, 209.9C266.9, 209.9 266.9, 209.9 266.8, 209.9C266.5, 209.9 266.3, 209.8 266, 209.8C266, 209.8 266, 209.8 266, 209.8C266, 209.8 266, 209.8 266, 209.8C266, 209.8 266, 209.8 266, 209.8C266, 209.8 266, 209.8 266, 209.8C266, 209.8 266, 209.8 265.9, 209.8C265.4, 209.8 264.9, 209.9 264.4, 210.2C264.2, 210.4 264, 210.5 263.8, 210.7C263.4, 211.1 263.2, 211.5 263, 212C263, 212.3 262.9, 212.5 262.9, 212.8C262.9, 213.2 263, 213.6 263.2, 214C263.3, 214.4 263.5, 214.7 263.8, 215C263.9, 215.1 263.9, 215.1 264, 215.2C264, 215.2 264.1, 215.3 264.1, 215.3C264.5, 215.7 264.9, 215.9 265.4, 216.1C265.7, 216.1 265.9, 216.2 266.2, 216.2C266.6, 216.2 267, 216.1 267.4, 215.9C267.8, 215.8 268.1, 215.6 268.4, 215.3C268.7, 215 268.9, 214.7 269, 214.3C269.2, 213.9 269.3, 213.6 269.3, 213.1C269.1, 213 269.1, 212.9 269.1, 212.9C269.1, 212.9 269.1, 212.9 269.1, 212.9z" class="st6" tag="st61" />
    <path d="M251.3, 188.3C248.4, 188.3 248.4, 183.8 251.3, 183.8C254.2, 183.8 254.2, 188.3 251.3, 188.3zM233.8, 215C233.6, 214.8 233.4, 214.6 233.1, 214.5C232.8, 214.4 232.5, 214.3 232.2, 214.3L231.9, 214.3C231.5, 214.3 231.1, 214.4 230.8, 214.6L230.3, 215C230, 215.3 229.8, 215.6 229.7, 216C229.7, 216.2 229.6, 216.4 229.6, 216.6C229.6, 216.9 229.7, 217.2 229.8, 217.5C229.9, 217.8 230, 218 230.3, 218.2C230.5, 218.4 230.7, 218.6 231, 218.7C231.3, 218.8 231.6, 218.9 231.9, 218.9L232.2, 218.9C232.6, 218.9 233, 218.8 233.3, 218.6L233.8, 218.2C234.1, 217.9 234.3, 217.6 234.4, 217.2C234.4, 217 234.5, 216.8 234.5, 216.6C234.5, 216.3 234.4, 216 234.3, 215.7C234.2, 215.5 234, 215.2 233.8, 215zM238.8, 161C234.9, 161 235, 167 238.8, 167C242.6, 167 242.6, 161 238.8, 161z" class="st7" tag="st72" />
    <path d="M229.2, 172.5C226.3, 172.5 226.3, 168 229.2, 168C232.1, 168 232.1, 172.5 229.2, 172.5zM253.9, 201.8C250, 201.8 250.1, 207.8 253.9, 207.8C257.8, 207.8 257.8, 201.8 253.9, 201.8zM257.1, 143.1C257, 142.6 256.7, 142.2 256.3, 141.8C256.1, 141.6 255.9, 141.5 255.7, 141.3C255.4, 141.1 255, 141 254.6, 140.9C254.2, 140.8 253.8, 140.8 253.4, 141C253.1, 141.1 252.8, 141.2 252.6, 141.4C252.4, 141.5 252.2, 141.5 252.1, 141.6C251.9, 141.8 251.7, 141.9 251.5, 142.1C251.1, 142.5 250.9, 142.9 250.7, 143.4C250.7, 143.7 250.6, 143.9 250.6, 144.2C250.6, 144.6 250.7, 145 250.9, 145.4C251, 145.8 251.2, 146.1 251.5, 146.4C251.8, 146.7 252.1, 146.9 252.5, 147C252.9, 147.2 253.2, 147.3 253.7, 147.3C253.7, 147.3 253.8, 147.3 253.8, 147.3C253.9, 147.3 254.1, 147.3 254.2, 147.2C254.3, 147.2 254.5, 147.2 254.6, 147.1C254.6, 147.1 254.6, 147.1 254.7, 147.1C254.7, 147.1 254.8, 147.1 254.8, 147.1C255.1, 147 255.3, 146.9 255.6, 146.8C255.6, 146.8 255.7, 146.8 255.7, 146.8C255.7, 146.8 255.7, 146.8 255.7, 146.8C255.9, 146.6 256.1, 146.5 256.3, 146.3C256.3, 146.3 256.3, 146.3 256.3, 146.3C256.3, 146.3 256.4, 146.3 256.4, 146.2C256.4, 146.2 256.4, 146.2 256.4, 146.2C256.4, 146.2 256.4, 146.2 256.4, 146.2C256.6, 146 256.7, 145.8 256.9, 145.6C257.2, 145.1 257.3, 144.6 257.3, 144.1C257.2, 143.7 257.2, 143.4 257.1, 143.1z" class="st1" tag="st11" />
    <path d="M242.5, 119.9C242.4, 119.5 242.2, 119.2 242.1, 118.8C243.3, 117.6 244.6, 116.5 245.8, 115.3C246.2, 114.9 245.9, 114.2 245.4, 114.1C244.3, 113.9 243.2, 114.1 242.2, 114.3C241.6, 114.4 241, 114.5 240.3, 114.6C240.2, 114.4 240.1, 114.2 240, 114C239.8, 113.5 239.6, 113 239.4, 112.5C239.1, 111.8 238.8, 110.9 238.1, 110.4C237.6, 110.1 237, 110.3 236.9, 110.8C236.7, 112 236.5, 113.2 236.2, 114.4C236.2, 114.6 236.1, 114.8 236, 115.1C235.6, 115.1 235.2, 115.2 234.9, 115.2C233.6, 115.4 232.4, 115.6 231.1, 115.7C230.4, 115.7 230.1, 116.9 230.8, 117.1C232.2, 117.6 233.5, 118.4 234.7, 119.2C234.6, 119.9 234.7, 120.6 234.7, 121.2C234.7, 122.8 234.2, 124.5 234.5, 126.1C234.6, 126.7 235.4, 127 235.8, 126.5C236.4, 125.8 236.9, 124.9 237.4, 124.1C237.9, 123.5 238.5, 122.9 239, 122.3C239.5, 123.1 240.4, 123.5 241.3, 124C241.4, 124.1 241.5, 124.1 241.5, 124.2C242.1, 124.7 243.1, 125.7 243.8, 124.9C244.4, 124.2 243.9, 123.1 243.4, 122.3C243.3, 122.1 243.3, 122 243.2, 121.8C243.2, 121.3 242.9, 120.6 242.5, 119.9z" class="st7" tag="st73" />
    <path d="M114.9, 70C109.1, 70 109.1, 61 114.9, 61C120.7, 61 120.7, 70 114.9, 70zM134.7, 42.5C123.8, 42.5 123.7, 59.5 134.7, 59.5C145.6, 59.5 145.7, 42.5 134.7, 42.5zM120.2, 3C113.8, 3 113.8, 13 120.2, 13C126.7, 13 126.7, 3 120.2, 3zM68.2, 71.2C67.9, 71 67.7, 70.8 67.4, 70.6C66.8, 70.2 66.1, 70.1 65.4, 70.1L64.7, 70.1C64.1, 70.1 63.6, 70.2 63.2, 70.4C62.7, 70.6 62.3, 70.8 61.9, 71.2C61.5, 71.6 61.2, 72 61.1, 72.5C60.8, 73 60.7, 73.5 60.8, 74C60.8, 74.4 60.9, 74.7 60.9, 75.1C61.1, 75.8 61.4, 76.4 61.9, 76.9C62.2, 77.1 62.4, 77.3 62.7, 77.5C63.3, 77.9 64, 78 64.7, 78L65.4, 78C66, 78 66.5, 77.9 66.9, 77.7C67.4, 77.5 67.8, 77.3 68.2, 76.9C68.6, 76.5 68.9, 76.1 69, 75.6C69.3, 75.1 69.4, 74.6 69.3, 74.1C69.3, 73.7 69.2, 73.4 69.2, 73C69, 72.3 68.7, 71.7 68.2, 71.2zM145, 76.3C144.8, 76.1 144.5, 75.9 144.2, 75.8C143.9, 75.6 143.6, 75.6 143.2, 75.6C143, 75.6 142.8, 75.7 142.5, 75.7C142.1, 75.8 141.7, 76 141.4, 76.3C141.3, 76.5 141.1, 76.6 141, 76.8C140.8, 77.2 140.7, 77.6 140.7, 78.1L140.7, 78.8C140.7, 79.1 140.8, 79.5 140.9, 79.8C141, 80.1 141.2, 80.4 141.4, 80.6C141.6, 80.8 141.9, 81 142.2, 81.1C142.5, 81.3 142.8, 81.3 143.2, 81.3C143.4, 81.3 143.6, 81.2 143.9, 81.2C144.3, 81.1 144.7, 80.9 145, 80.6L145.4, 80.1C145.6, 79.7 145.7, 79.3 145.7, 78.8L145.7, 78C145.7, 77.7 145.6, 77.3 145.5, 77C145.5, 76.8 145.3, 76.5 145, 76.3zM40.8, 142.9C40.4, 142.5 39.9, 142.2 39.4, 142C38.9, 141.7 38.3, 141.6 37.7, 141.6C37.3, 141.7 36.9, 141.7 36.5, 141.8C35.7, 142 35.1, 142.4 34.5, 143L33.8, 143.9C33.4, 144.6 33.2, 145.4 33.2, 146.2L33.2, 146.9C33.2, 147.5 33.3, 148.1 33.6, 148.6C33.8, 149.2 34.1, 149.6 34.5, 150C34.9, 150.4 35.4, 150.7 35.9, 150.9C36.4, 151.2 37, 151.3 37.6, 151.3C38, 151.2 38.4, 151.2 38.8, 151.1C39.6, 150.9 40.2, 150.5 40.8, 149.9C41, 149.6 41.3, 149.3 41.5, 149C41.9, 148.3 42.1, 147.5 42.1, 146.7L42.1, 146C42.1, 145.4 42, 144.8 41.7, 144.3C41.5, 143.8 41.2, 143.3 40.8, 142.9zM66.7, 149.3C65.9, 148.5 65, 147.9 64, 147.5C63, 147 61.9, 146.7 60.7, 146.8C59.9, 146.9 59.2, 147 58.4, 147.1C57, 147.5 55.7, 148.2 54.6, 149.3C54.2, 149.9 53.7, 150.4 53.3, 151C52.5, 152.3 52.1, 153.8 52.1, 155.3L52.1, 157.3C52.1, 158.5 52.3, 159.6 52.8, 160.6C53.1, 161.7 53.7, 162.6 54.6, 163.3C55.4, 164.1 56.3, 164.7 57.3, 165.1C58.3, 165.6 59.4, 165.9 60.6, 165.8C61.4, 165.7 62.1, 165.6 62.9, 165.5C64.3, 165.1 65.6, 164.4 66.7, 163.3C67.1, 162.7 67.6, 162.2 68, 161.6C68.8, 160.3 69.2, 158.8 69.2, 157.3L69.2, 155.3C69.2, 154.1 69, 153 68.5, 152C68.1, 151 67.6, 150.1 66.7, 149.3zM215.3, 77.3C215.3, 77.3 215.2, 77.2 215.2, 77.2C215, 77 214.9, 76.8 214.7, 76.6C213.9, 75.8 213, 75.2 212, 74.8C211, 74.3 209.9, 74 208.7, 74.1C207.9, 74.2 207.2, 74.3 206.4, 74.4C205, 74.8 203.7, 75.5 202.6, 76.6C202.2, 77.2 201.7, 77.7 201.3, 78.3C200.5, 79.6 200.1, 81.1 200.1, 82.6C200.1, 82.7 200.1, 82.7 200.1, 82.8C200.2, 83.6 200.2, 84.4 200.4, 85.2C200.5, 85.4 200.7, 85.9 200.8, 86.1C200.9, 86.4 201.2, 87.1 201.3, 87.3C201.7, 88 202.2, 88.6 202.7, 89.1C203.8, 90.2 205.2, 91 206.6, 91.4C207.4, 91.6 208.2, 91.7 209, 91.7C209.1, 91.7 209.1, 91.7 209.2, 91.7C210.4, 91.7 211.5, 91.5 212.5, 91C213.6, 90.7 214.5, 90.1 215.2, 89.2C216, 88.4 216.6, 87.5 217, 86.5C217.5, 85.5 217.8, 84.4 217.7, 83.2C217.6, 82.4 217.5, 81.7 217.4, 80.9C217.1, 79.6 216.4, 78.4 215.3, 77.3zM258.8, 80.8C258.5, 80.6 258.2, 80.3 257.9, 80.1C257.2, 79.7 256.4, 79.5 255.6, 79.5L254.9, 79.5C254.3, 79.5 253.7, 79.6 253.2, 79.9C252.6, 80.1 252.2, 80.4 251.8, 80.8C251.4, 81.2 251.1, 81.7 250.9, 82.2C250.6, 82.7 250.5, 83.3 250.5, 83.9C250.6, 84.3 250.6, 84.7 250.7, 85.1C250.9, 85.9 251.3, 86.5 251.9, 87.1L252.8, 87.8C253.5, 88.2 254.3, 88.4 255.1, 88.4L255.8, 88.4C256.4, 88.4 257, 88.3 257.5, 88C258.1, 87.8 258.5, 87.5 258.9, 87.1C259.3, 86.7 259.6, 86.2 259.8, 85.7C260.1, 85.2 260.2, 84.6 260.2, 84C260.1, 83.6 260.1, 83.2 260, 82.8C259.7, 82 259.3, 81.4 258.8, 80.8zM251.3, 54C251.6, 54.2 251.9, 54.3 252.3, 54.3L253, 54.3C253.3, 54.3 253.5, 54.3 253.8, 54.1C254, 54 254.3, 53.9 254.4, 53.7C254.6, 53.5 254.7, 53.3 254.8, 53.1C254.9, 52.9 255, 52.6 255, 52.3C255, 52.1 255, 51.9 254.9, 51.8C254.8, 51.5 254.6, 51.2 254.4, 50.9C254.3, 50.8 254.1, 50.7 254, 50.6C253.7, 50.4 253.4, 50.3 253, 50.3L252.3, 50.3C252, 50.3 251.8, 50.3 251.5, 50.5C251.3, 50.6 251, 50.7 250.9, 50.9C250.7, 51.1 250.6, 51.3 250.5, 51.5C250.4, 51.7 250.3, 52 250.3, 52.3C250.3, 52.5 250.3, 52.7 250.4, 52.8C250.5, 53.1 250.7, 53.4 250.9, 53.7C251, 53.8 251.1, 53.9 251.3, 54zM281.1, 135.5C281, 135.1 280.8, 134.7 280.5, 134.4C280.3, 134.3 280.2, 134.1 280, 134C279.6, 133.8 279.2, 133.7 278.7, 133.7L278, 133.7C277.7, 133.7 277.3, 133.8 277, 133.9C276.7, 134 276.4, 134.2 276.2, 134.4C276, 134.6 275.8, 134.9 275.7, 135.2C275.5, 135.5 275.5, 135.8 275.5, 136.2C275.5, 136.4 275.6, 136.6 275.6, 136.9C275.7, 137.3 275.9, 137.7 276.2, 138C276.4, 138.1 276.5, 138.3 276.7, 138.4C277.1, 138.6 277.5, 138.7 278, 138.7L278.7, 138.7C279, 138.7 279.4, 138.6 279.7, 138.5C280, 138.4 280.3, 138.2 280.5, 138C280.7, 137.8 280.9, 137.5 281, 137.2C281.2, 136.9 281.2, 136.6 281.2, 136.2C281.2, 135.9 281.1, 135.7 281.1, 135.5zM178.3, 125.1C172.5, 125.1 172.5, 134.1 178.3, 134.1C184.1, 134.1 184.1, 125.1 178.3, 125.1zM182.3, 98.7C179.1, 98.7 179.1, 103.7 182.3, 103.7C185.5, 103.7 185.5, 98.7 182.3, 98.7zM164.9, 127.8C164.7, 127.6 164.4, 127.4 164.1, 127.3C163.8, 127.1 163.5, 127.1 163.1, 127.1C163, 127.1 162.9, 127.1 162.8, 127.1C162.6, 127.1 162.3, 127.1 162.1, 127.1C161.8, 127.1 161.5, 127.2 161.2, 127.4C161, 127.5 160.9, 127.7 160.7, 127.8C160.4, 128.1 160.2, 128.5 160.1, 128.9C160.1, 129.1 160, 129.3 160, 129.6C160, 130.1 160.1, 130.5 160.3, 130.9C160.5, 131.1 160.6, 131.3 160.8, 131.6C160.8, 131.6 160.9, 131.7 160.9, 131.7C161.1, 131.9 161.3, 132.1 161.5, 132.2C161.5, 132.2 161.6, 132.2 161.6, 132.3C161.7, 132.3 162.1, 132.5 162.2, 132.6C162.2, 132.6 162.2, 132.6 162.2, 132.6C162.2, 132.6 162.2, 132.6 162.2, 132.6C162.2, 132.6 162.2, 132.6 162.2, 132.6C162.2, 132.6 162.8, 132.7 162.9, 132.7C162.9, 132.7 162.9, 132.7 162.9, 132.7C163.4, 132.7 163.8, 132.6 164.2, 132.3C164.2, 132.3 164.2, 132.3 164.2, 132.3C164.2, 132.3 164.2, 132.3 164.2, 132.3C164.3, 132.2 164.4, 132.2 164.5, 132.1C164.6, 132 164.7, 132 164.8, 131.9C164.8, 131.9 164.8, 131.9 164.8, 131.9C165, 131.8 165.3, 131.2 165.2, 131.4C165.2, 131.4 165.2, 131.4 165.2, 131.4C165.3, 131.2 165.4, 131 165.5, 130.8C165.5, 130.8 165.5, 130.7 165.5, 130.7C165.5, 130.7 165.5, 130.7 165.5, 130.7C165.5, 130.5 165.6, 130.2 165.6, 130C165.6, 130 165.6, 129.9 165.6, 129.9C165.6, 129.6 165.5, 129.2 165.4, 128.9C165.3, 128.3 165.1, 128 164.9, 127.8z" class="st1" tag="st12" />
  </g>
</svg>