<?xml version='1.0' encoding='UTF-8'?>
<svg viewBox="0 0 16 16" xmlns="http://www.w3.org/2000/svg" id="Layer_1" tag="Element3">
  <defs tag="Element2">
    <style tag="Element1">.cls-1{fill:#e04330;}</style>
  </defs>
  <path d="M13.88, 10.74A3.48 3.48 0 0 0 12.32, 9.39A16.16 16.16 0 0 1 9.79, 7.66A14.91 14.91 0 0 0 12.51, 3.66C13.2, 2.01 10.51, 1.29 9.83, 2.92A11 11 0 0 1 8.19, 5C8.03, 5.21 7.87, 5.43 7.7, 5.64A13.84 13.84 0 0 0 4.12, 3C2.51, 2.23 1.12, 4.63 2.71, 5.41A12.76 12.76 0 0 1 6, 7.9L5.85, 8.09A20.76 20.76 0 0 0 3, 11.88C2.21, 13.49 4.61, 14.88 5.4, 13.29A16.31 16.31 0 0 1 7.92, 9.72A14.68 14.68 0 0 0 9.92, 11.28C10.26, 11.48 11.29, 11.8 11.44, 12.15C12.17, 13.8 14.57, 12.38 13.88, 10.74z" class="cls-1" tag="cls-10" />
</svg>