<?xml version='1.0' encoding='UTF-8'?>
<svg x="0px" y="0px" viewBox="0 0 16 16" version="1.1" xmlns="http://www.w3.org/2000/svg" xmlns:xlink="http://www.w3.org/1999/xlink" xml:space="preserve" id="Layer_1" style="enable-background:new 0 0 16 16" tag="Element2">
  <style type="text/css" tag="Element1">
	.st0{fill:#E04330;}
</style>
  <path d="M11.9, 9.8C11.7, 9.4 11.3, 9.1 10.9, 8.9C10.3, 8.6 9.7, 8.2 9.2, 7.7C9.9, 7 10.6, 6.1 11, 5.1C11.5, 4 9.7, 3.5 9.2, 4.6C8.9, 5.1 8.5, 5.6 8.1, 6C8, 6.1 7.9, 6.3 7.8, 6.4C7.1, 5.7 6.3, 5.1 5.4, 4.7C4.3, 4.2 3.4, 5.8 4.5, 6.3C5.3, 6.7 6.1, 7.3 6.7, 8L6.6, 8.1C5.9, 8.9 5.2, 9.7 4.7, 10.6C4.2, 11.7 5.8, 12.6 6.3, 11.5C6.8, 10.6 7.3, 9.8 8, 9.1C8.4, 9.5 8.9, 9.8 9.3, 10.1C9.5, 10.2 10.2, 10.4 10.3, 10.7C10.8, 11.9 12.4, 10.9 11.9, 9.8z" class="st0" tag="st00" />
</svg>