<?xml version='1.0' encoding='UTF-8'?>
<svg x="0px" y="0px" viewBox="0 0 16 16" version="1.1" xmlns="http://www.w3.org/2000/svg" xmlns:xlink="http://www.w3.org/1999/xlink" xml:space="preserve" id="Layer_1" style="enable-background:new 0 0 16 16" tag="Element2">
  <style type="text/css" tag="Element1">
	.st0{fill:#E04330;}
</style>
  <path d="M10.2, 6.3C9.7, 7 9.2, 7.6 8.8, 8.2C8.5, 8.4 8.4, 8.7 8.2, 9C8.1, 8.9 8, 8.8 8, 8.7C7.7, 8.4 7.5, 8 7.2, 7.7C6.8, 7.3 6.2, 6.7 6, 6.2C5.5, 5 3.7, 5.5 4.1, 6.7C4.4, 7.4 4.9, 8.1 5.5, 8.7C5.9, 9.2 6.3, 9.7 6.7, 10.3C6.9, 10.7 7.3, 11.1 7.7, 11.4C8.4, 11.8 9, 11.3 9.5, 10.7C10.3, 9.6 11.1, 8.4 11.9, 7.3C12.5, 6.2 10.9, 5.2 10.2, 6.3z" class="st0" tag="st00" />
</svg>