<?xml version='1.0' encoding='UTF-8'?>
<svg viewBox="0 0 16 16" xmlns="http://www.w3.org/2000/svg" id="Layer_1" tag="Element3">
  <defs tag="Element2">
    <style tag="Element1">.cls-1{fill:#e04330;}</style>
  </defs>
  <path d="M11.23, 5.12C10.54, 6.12 9.8, 7.06 9.09, 8.02C8.8, 8.4 8.54, 8.86 8.25, 9.3C8.15, 9.16 8.05, 9.01 7.94, 8.87C7.55, 8.35 7.12, 7.87 6.71, 7.33C6.18, 6.66 5.14, 5.82 4.88, 5C4.31, 3.21 1.5, 4 2.08, 5.78A9.6 9.6 0 0 0 4.15, 8.78C4.78, 9.55 5.41, 10.34 6, 11.15A5.23 5.23 0 0 0 7.44, 12.81C8.53, 13.41 9.44, 12.62 10.1, 11.74C11.31, 10.04 12.54, 8.34 13.74, 6.62C14.82, 5.06 12.3, 3.59 11.23, 5.12z" class="cls-1" tag="cls-10" />
</svg>