<?xml version='1.0' encoding='UTF-8'?>
<svg viewBox="0 0 16 16" xmlns="http://www.w3.org/2000/svg" id="Layer_1" tag="Element3">
  <defs tag="Element2">
    <style tag="Element1">.cls-1{fill:#e04330;}</style>
  </defs>
  <path d="M14.88, 9.21L15.04, 9.21A0.88 0.88 0 0 0 15.46, 9.1C15.46, 9.1 15.8, 9.19 15.97, 8.76C16.14, 8.33 15.51, 7.51 15, 7.51A2.56 2.56 0 0 0 13.59, 8L13.39, 8.15L13.14, 8.32L12.92, 8.46L13.08, 8.73L13.08, 8.73L13, 8.64L13, 8.64L12.89, 8.54L12.89, 8.54C12.22, 8.11 11.57, 7.65 10.89, 7.19L10.25, 6.73L11.37, 6.07C11.75, 5.85 12.11, 5.62 12.47, 5.39A5.76 5.76 0 0 0 13.1, 5.76A5.54 5.54 0 0 1 13.73, 6.14A0.87 0.87 0 0 0 14.44, 6.24A0.83 0.83 0 0 0 14.96, 5.85A0.77 0.77 0 0 0 15, 5.2A0.92 0.92 0 0 0 14.63, 4.73C14.46, 4.61 14.27, 4.5 14.09, 4.39L14.4, 4.29A0.8 0.8 0 0 0 14.98, 3.29A0.85 0.85 0 0 0 13.93, 2.71A5.11 5.11 0 0 0 13.31, 2.93A1 1 0 0 0 13.31, 2.63L13.31, 2.5A0.82 0.82 0 0 0 13, 1.87A1 1 0 0 0 12.51, 1.65A0.87 0.87 0 0 0 11.51, 2.28L11.51, 2.47A3 3 0 0 0 11.41, 3.14L11.41, 3.14A1 1 0 0 0 11.35, 3.47A1.27 1.27 0 0 1 11.27, 3.7L11.27, 3.7A0.81 0.81 0 0 0 11.12, 4.16L11.12, 4.16L10.64, 4.46L9.64, 5.02L9, 5.48C9, 4.99 9, 4.48 9, 4.03C9, 3.8 9, 3.58 9, 3.36L9, 3.36A7.57 7.57 0 0 0 9.53, 2.76A5 5 0 0 1 9.96, 2.27A0.83 0.83 0 0 0 10.21, 1.69A0.82 0.82 0 0 0 9.94, 1.09A0.93 0.93 0 0 0 9.28, 0.82A1.08 1.08 0 0 0 8.87, 0.93A2.22 2.22 0 0 0 8.75, 0.54A0.89 0.89 0 0 0 8, 0A0.93 0.93 0 0 0 7.15, 0.3A0.71 0.71 0 0 0 7.06, 1.04A1.4 1.4 0 0 1 7.15, 1.33L7.15, 1.33A1 1 0 0 0 6.51, 1.26A0.91 0.91 0 0 0 5.98, 1.66A0.77 0.77 0 0 0 5.91, 2.3A0.8 0.8 0 0 0 6.33, 2.8L6.89, 3L7.12, 3.08L7.12, 3.08C7.12, 3.36 7.12, 3.64 7.12, 3.92L7.12, 4.41L7.12, 4.83L6.02, 4.27L5.59, 4.06C5.59, 3.98 5.59, 3.9 5.59, 3.84A3.47 3.47 0 0 0 5.59, 3.28A5.56 5.56 0 0 0 5.51, 2.58A1.71 1.71 0 0 0 5.38, 2.09A0.87 0.87 0 0 0 5, 1.63A0.93 0.93 0 0 0 4.31, 1.55A0.86 0.86 0 0 0 3.93, 2A0.79 0.79 0 0 0 3.86, 2.67A1.43 1.43 0 0 1 4, 3A1.94 1.94 0 0 1 4, 3.24L4, 3.24L3.5, 3.05A4.34 4.34 0 0 1 2.89, 2.75A0.85 0.85 0 0 0 1.81, 2.19A0.8 0.8 0 0 0 1.21, 3.19A2.36 2.36 0 0 0 2.58, 4.49L2.33, 4.64L2, 4.83A0.86 0.86 0 0 0 1.6, 5.38A0.75 0.75 0 0 0 1.71, 5.98A0.9 0.9 0 0 0 2.9, 6.26L3.24, 6.05L3.81, 5.71L4.03, 5.6L4.15, 5.54L4.36, 5.48L4.45, 5.48L4.63, 5.48C5.41, 5.86 6.18, 6.26 6.9, 6.67A29.14 29.14 0 0 0 3.9, 8.54A0.81 0.81 0 0 0 3.68, 8.54L3.52, 8.54L3.45, 8.85L3.45, 8.53C3.27, 8.53 3.08, 8.45 2.83, 8.39A9.92 9.92 0 0 0 1.6, 8.14A0.87 0.87 0 0 0 0.94, 8.38A0.89 0.89 0 0 0 0.68, 8.98A0.86 0.86 0 0 0 0.95, 9.57A1 1 0 0 0 1.48, 9.8L1.64, 9.8L1.76, 9.8A7.52 7.52 0 0 0 0.32, 10.8A0.72 0.72 0 0 0 0.12, 11.7A1 1 0 0 0 1.12, 12.21L1.3, 12.21A0.85 0.85 0 0 0 2, 11.56C2.34, 11.34 2.71, 11.14 3.08, 10.95L3.08, 10.95A7.75 7.75 0 0 1 2.76, 12.19A0.71 0.71 0 0 0 2.82, 12.82A0.85 0.85 0 0 0 3.37, 13.24A0.89 0.89 0 0 0 4.42, 12.69A7.68 7.68 0 0 0 4.77, 11.34A6.92 6.92 0 0 1 5.08, 10.11A0.75 0.75 0 0 0 5.08, 9.69C5.71, 9.26 6.41, 8.79 7.15, 8.37A2.81 2.81 0 0 1 7.15, 8.66C7.15, 9.92 7.15, 11.22 7.15, 12.66C7.03, 12.74 6.9, 12.81 6.77, 12.88L6.57, 12.99A4.54 4.54 0 0 0 5.63, 13.68A0.84 0.84 0 0 0 5.39, 14.3A0.74 0.74 0 0 0 5.65, 14.86A0.91 0.91 0 0 0 6.88, 14.86L7.09, 14.68L7.15, 14.68L7.15, 14.73A1.11 1.11 0 0 0 7.6, 15.97A1 1 0 0 0 8.03, 16.08A0.88 0.88 0 0 0 8.5, 15.95A0.78 0.78 0 0 0 8.88, 15L8.88, 14.79L8.88, 14.31L9.38, 14.53L9.81, 14.71A1 1 0 0 0 10.45, 14.78A0.86 0.86 0 0 0 10.98, 14.39A0.88 0.88 0 0 0 11.04, 13.68A0.75 0.75 0 0 0 10.64, 13.24L10.17, 13.04A9.41 9.41 0 0 1 9, 12.38L8.91, 12.33L8.91, 12.11C8.86, 11 8.91, 9.87 8.91, 8.78L9, 8L9, 7.92L9.93, 8.58C10.56, 9.03 11.21, 9.5 11.87, 9.92A2.62 2.62 0 0 1 11.87, 10.29L11.87, 10.41L11.81, 10.73L11.81, 10.88A9.87 9.87 0 0 0 11.6, 12.09A0.75 0.75 0 0 0 11.83, 12.69A0.86 0.86 0 0 0 12.48, 12.96A0.88 0.88 0 0 0 13.34, 12.12C13.34, 12.12 13.34, 12.04 13.34, 11.97L13.4, 11.68L13.53, 11.05A1.16 1.16 0 0 1 13.53, 10.87L13.84, 11.02A0.91 0.91 0 0 0 15, 10.61A0.74 0.74 0 0 0 14.63, 9.61L14.46, 9.53L14.46, 9.53A4.28 4.28 0 0 1 14.88, 9.21zM12.13, 10.34z" class="cls-1" tag="cls-10" />
</svg>