<?xml version='1.0' encoding='UTF-8'?>
<svg viewBox="0 0 16 16" xmlns="http://www.w3.org/2000/svg" id="Layer_1" tag="Element3">
  <defs tag="Element2">
    <style tag="Element1">.cls-1{fill:#e04330;}</style>
  </defs>
  <path d="M11.24, 5.64A2.68 2.68 0 0 0 10.24, 4.74L9.4, 4.38A3.74 3.74 0 0 0 8.4, 4.26L8.08, 4.26L7.14, 4.39A3.55 3.55 0 0 0 5.59, 5.3L5, 6A3.61 3.61 0 0 0 4.51, 7.78C4.51, 8.14 4.58, 8.51 4.66, 8.86L4.66, 8.93C4.77, 9.21 4.89, 9.49 5.01, 9.77L5.01, 9.77A3.71 3.71 0 0 0 6.31, 11.08A3.64 3.64 0 0 0 10.74, 10.47A5.39 5.39 0 0 0 11.44, 9.54A2.66 2.66 0 0 0 11.85, 8.23A2.6 2.6 0 0 0 11.79, 6.82A2.78 2.78 0 0 0 11.24, 5.64z" class="cls-1" tag="cls-10" />
</svg>