<?xml version='1.0' encoding='UTF-8'?>
<svg x="0px" y="0px" viewBox="0 0 16 16" version="1.1" xmlns="http://www.w3.org/2000/svg" xmlns:xlink="http://www.w3.org/1999/xlink" xml:space="preserve" id="Layer_1" style="enable-background:new 0 0 16 16" tag="Element2">
  <style type="text/css" tag="Element1">
	.st0{fill:#E04330;}
</style>
  <path d="M11.7, 4.7C10.5, 3.3 8.4, 3.1 7, 4.2C7, 4.2 6.9, 4.3 6.9, 4.3C6.6, 4.5 6.5, 4.8 6.6, 5.1C5.7, 6.1 5.6, 7.6 6.3, 8.7C5.9, 9 5.5, 9.4 5.1, 9.7C4.6, 10.1 4.1, 10.6 3.6, 11.2C3.3, 11.6 3.5, 12.2 3.9, 12.4C3.9, 12.4 3.9, 12.4 4, 12.4C4.5, 12.6 5, 12.5 5.4, 12.1C5.8, 11.7 6.2, 11.4 6.6, 11C7, 10.6 7.3, 10.3 7.7, 10L7.8, 9.9C9.1, 10.3 10.5, 10.1 11.5, 9.2C12.9, 8 12.7, 6.1 11.7, 4.7zM10.1, 7.9C9.5, 8.4 8.6, 8.4 8.1, 7.9C7.6, 7.3 7.7, 6.4 8.4, 6C8.6, 5.9 8.7, 5.7 8.7, 5.4C10, 4.9 11.2, 7 10.1, 7.9z" class="st0" tag="st00" />
</svg>