<?xml version='1.0' encoding='UTF-8'?>
<svg viewBox="0 0 16 16" xmlns="http://www.w3.org/2000/svg" id="Layer_1" tag="Element3">
  <defs tag="Element2">
    <style tag="Element1">.cls-1{fill:#e04330;}</style>
  </defs>
  <path d="M12.87, 3.66A4.42 4.42 0 0 0 6.49, 3.11A1 1 0 0 0 6.1, 4.11A4.25 4.25 0 0 0 5.66, 8.96C5.14, 9.36 4.66, 9.8 4.18, 10.24A17.3 17.3 0 0 0 2.18, 12.18A1.18 1.18 0 0 0 2.65, 13.86A1.4 1.4 0 0 0 4.45, 13.42A15.31 15.31 0 0 1 6, 12A10.52 10.52 0 0 1 7.53, 10.7L7.67, 10.59A5.1 5.1 0 0 0 12.6, 9.68C14.52, 8 14.32, 5.48 12.87, 3.66zM10.77, 7.9A2.08 2.08 0 0 1 8.05, 7.9A1.9 1.9 0 0 1 8.5, 5.27A1 1 0 0 0 8.92, 4.5C10.62, 3.89 12.29, 6.71 10.77, 7.9z" class="cls-1" tag="cls-10" />
</svg>