<?xml version='1.0' encoding='UTF-8'?>
<svg viewBox="0 0 16 8" xmlns="http://www.w3.org/2000/svg" id="Layer_1" tag="Element3">
  <defs tag="Element2">
    <style tag="Element1">.cls-1{fill:#e04330;}</style>
  </defs>
  <path d="M10.51, 1A20.36 20.36 0 0 0 8.67, 3.3C8.52, 3.51 8.4, 3.74 8.27, 3.96A18 18 0 0 1 5.82, 1.29C4.75, -0.21 2.24, 1.13 3.23, 2.72L3.23, 2.72A1.24 1.24 0 0 0 3.37, 2.9A32 32 0 0 0 7.37, 7.07A1.61 1.61 0 0 0 9.49, 7.07C10.82, 6.07 11.49, 4.21 12.63, 2.95C13.77, 1.69 11.74, -0.43 10.51, 1z" class="cls-1" tag="cls-10" />
</svg>