<?xml version='1.0' encoding='UTF-8'?>
<svg viewBox="0 0 16 8" xmlns="http://www.w3.org/2000/svg" id="Layer_1" tag="Element3">
  <defs tag="Element2">
    <style tag="Element1">.cls-1{fill:#e04330;}</style>
  </defs>
  <path d="M12, 4.66C12.81, 4.88 12.44, 4.87 12.08, 4.49C11.72, 4.11 11.62, 3.97 11.4, 3.71C10.81, 3.04 10.3, 2.33 9.74, 1.64A1.7 1.7 0 0 0 7.36, 1.38C6.36, 2.44 5.36, 3.55 4.36, 4.65C3.78, 5.27 3, 5.94 3, 6.77C3, 8.41 6, 8.41 6, 6.77C6, 7.35 6.19, 6.77 6.42, 6.49C6.65, 6.21 6.84, 6.03 7.05, 5.79L8.25, 4.43C8.53, 4.78 8.81, 5.13 9.11, 5.43A4.41 4.41 0 0 0 11.11, 7.07A1.3 1.3 0 1 0 12, 4.66z" class="cls-1" tag="cls-10" />
</svg>