<?xml version='1.0' encoding='UTF-8'?>
<svg x="0px" y="0px" viewBox="0 0 16 8" version="1.1" xmlns="http://www.w3.org/2000/svg" xmlns:xlink="http://www.w3.org/1999/xlink" xml:space="preserve" id="Layer_1" style="enable-background:new 0 0 16 8" tag="Element2">
  <style type="text/css" tag="Element1">
	.st0{fill:#E04330;}
</style>
  <path d="M9.8, 1.9C9.3, 2.4 8.9, 2.9 8.5, 3.5C8.4, 3.7 8.3, 3.8 8.2, 4C7.5, 3.4 7, 2.8 6.5, 2.1C5.7, 1 3.9, 2 4.6, 3.1L4.6, 3.1C4.6, 3.1 4.7, 3.2 4.7, 3.2C5.5, 4.3 6.5, 5.2 7.5, 6.1C8, 6.5 8.6, 6.5 9, 6.2C9.9, 5.5 10.4, 4.2 11.2, 3.3C12, 2.4 10.6, 0.9 9.8, 1.9z" class="st0" tag="st00" />
</svg>