<?xml version='1.0' encoding='UTF-8'?>
<svg x="0px" y="0px" viewBox="0 0 16 8" version="1.1" xmlns="http://www.w3.org/2000/svg" xmlns:xlink="http://www.w3.org/1999/xlink" xml:space="preserve" id="Layer_1" style="enable-background:new 0 0 16 8" tag="Element2">
  <style type="text/css" tag="Element1">
	.st0{fill:#E04330;}
</style>
  <path d="M10.8, 4.6C11.4, 4.8 11.1, 4.7 10.9, 4.5C10.6, 4.2 10.6, 4.1 10.4, 4C10, 3.5 9.6, 3 9.2, 2.5C8.8, 2 8.1, 1.9 7.6, 2.3C6.9, 3.1 6.2, 3.8 5.5, 4.6C5.1, 5 4.5, 5.5 4.5, 6.1C4.5, 7.2 6.6, 7.2 6.6, 6.1C6.6, 6.5 6.7, 6.1 6.9, 5.9C7.1, 5.7 7.2, 5.6 7.3, 5.4L8.1, 4.5C8.3, 4.7 8.5, 5 8.7, 5.2C9, 5.7 9.5, 6.1 10.1, 6.3C10.5, 6.5 11.1, 6.4 11.3, 5.9C11.5, 5.4 11.4, 4.9 10.9, 4.7C11, 4.7 10.9, 4.6 10.8, 4.6z" class="st0" tag="st00" />
</svg>