<?xml version='1.0' encoding='UTF-8'?>
<svg x="0px" y="0px" viewBox="0 0 49 49" version="1.1" xmlns="http://www.w3.org/2000/svg" xmlns:xlink="http://www.w3.org/1999/xlink" xml:space="preserve" id="Layer_1" style="enable-background:new 0 0 49 49" tag="Element3">
  <style type="text/css" tag="Element1">
	.st0{fill:#1E1004;}
	.st1{fill:#FFFFFF;}
	.st2{fill:#B2E2EA;}
	.st3{fill:#F98115;}
</style>
  <path d="M47.5, 25.6C47.5, 24.7 47.5, 23.7 47.4, 22.7C46.1, 13.2 38.5, 3.6 29, 1.4C28.9, 1.4 28.9, 1.4 28.8, 1.4C26.3, 0.4 23.7, -0.1 21, 0C15.8, 0.2 11.4, 2.9 8.2, 6.7C7.5, 7.4 6.8, 8.2 6.1, 9.1C5.4, 10.1 4.8, 11.1 4.2, 12.2C2, 16 1.2, 20.4 1.4, 24.8C1.4, 28.9 2.5, 33 4.8, 36.3C5.9, 38.1 7.1, 39.6 8.6, 40.8C11.3, 45.3 15.7, 48.6 21.9, 49C31.2, 49.6 41.6, 43.7 45.6, 35.3C47.1, 32.1 47.7, 28.9 47.5, 25.6z" class="st0" tag="st00" />
  <g tag="Element2">
    <path d="M46.1, 25.6C46.1, 24.7 46.1, 23.8 46, 22.9C44.8, 13.9 37.7, 4.9 28.7, 2.8C28.7, 2.8 28.6, 2.8 28.6, 2.8C26.3, 1.9 23.8, 1.4 21.3, 1.6C16.4, 1.8 12.3, 4.3 9.3, 7.9C8.6, 8.6 8, 9.3 7.3, 10.2C6.6, 11 6, 12 5.5, 13C3.5, 16.6 2.7, 20.7 2.9, 24.8C2.9, 28.6 3.9, 32.5 6.1, 35.6C7.1, 37.3 8.3, 38.7 9.6, 39.8C12.2, 44.1 16.3, 47.1 22, 47.5C30.7, 48 40.5, 42.5 44.3, 34.6C45.7, 31.7 46.3, 28.6 46.1, 25.6z" class="st1" tag="st10" />
    <path d="M22.4, 17.1C22.6, 17.3 22.7, 17.5 22.8, 17.8C23, 18 23, 18.3 23, 18.6C23, 19.1 23, 19.5 22.9, 19.9C22.9, 20 22.8, 20.2 22.8, 20.3C22.7, 20.5 22.6, 20.7 22.5, 21C22.4, 21.1 22.3, 21.2 22.2, 21.4C22.1, 21.5 22, 21.6 21.9, 21.7C21.8, 21.8 21.7, 21.8 21.6, 21.9C21.5, 22 21.4, 22 21.3, 22.1C21.3, 22.1 21.2, 22.2 21.1, 22.2C20.9, 22.3 20.7, 22.4 20.4, 22.5C19.8, 22.7 19.2, 22.7 18.6, 22.5C18.6, 22.5 18.6, 22.5 18.5, 22.5C18.3, 22.4 18.1, 22.4 18, 22.3C18, 22.3 17.9, 22.3 17.9, 22.2C17.7, 22.1 17.5, 22 17.4, 21.8C17.4, 21.8 17.4, 21.8 17.4, 21.8C17.3, 21.7 17.1, 21.5 17.1, 21.3C16.9, 20.9 16.7, 20.4 16.7, 19.9C16.7, 19.4 16.8, 18.9 17.1, 18.5C17.2, 18.3 17.4, 18.1 17.6, 17.9C17.7, 17.8 17.9, 17.6 18.1, 17.5C18.1, 17.5 18.1, 17.5 18.1, 17.5C18.1, 17.5 18.1, 17.5 18.1, 17.5C18.3, 17.4 18.5, 17.3 18.6, 17.3C18.6, 17.3 18.7, 17.3 18.7, 17.3C18.8, 17.3 19, 17.3 19.1, 17.2C19.1, 17.2 19.1, 17.1 19.2, 17.1C19.5, 16.8 19.8, 16.7 20.1, 16.6C20.3, 16.6 20.5, 16.6 20.7, 16.5C21, 16.5 21.3, 16.5 21.5, 16.7C22, 16.8 22.2, 16.9 22.4, 17.1zM34.9, 17.2C34.6, 17.1 34.3, 17.2 34.1, 17.2C33.8, 17.3 33.6, 17.4 33.4, 17.6C33.2, 17.7 33, 17.9 32.9, 18.2L32.9, 18.2C32.8, 18.3 32.8, 18.4 32.7, 18.5C32.5, 18.8 32.4, 19.2 32.4, 19.6C32.4, 19.6 32.4, 19.6 32.4, 19.7C32.4, 19.7 32.4, 19.8 32.4, 19.8C32.4, 20 32.4, 20.1 32.4, 20.3C32.4, 20.6 32.5, 20.8 32.6, 21.1C32.7, 21.3 32.9, 21.5 33.1, 21.7C33.3, 21.9 33.5, 22 33.8, 22.1C34, 22.1 34.2, 22.1 34.4, 22.2C34.6, 22.2 34.8, 22.2 35, 22.1C35, 22.1 35.1, 22.1 35.1, 22.1C35.1, 22.1 35.1, 22.1 35.1, 22.1C35.1, 22.1 35.1, 22.1 35.1, 22.1C35.1, 22.1 35.6, 21.9 35.6, 21.9C35.6, 21.9 35.6, 21.9 35.6, 21.9C35.7, 21.8 35.9, 21.7 36.1, 21.5C36.2, 21.4 36.3, 21.2 36.5, 21C36.5, 21 36.5, 21 36.5, 21C36.5, 21 36.5, 21 36.5, 21C36.5, 20.9 36.7, 20.6 36.7, 20.5C36.7, 20.5 36.7, 20.5 36.7, 20.5C36.7, 20.5 36.7, 20.5 36.7, 20.4C36.7, 20.2 36.8, 20 36.8, 19.8C36.8, 19.8 36.8, 19.8 36.8, 19.7C36.8, 19.8 36.8, 19.3 36.7, 19.1C36.6, 18.9 36.6, 18.7 36.5, 18.5C36.4, 18.3 36.3, 18.2 36.1, 18C36.1, 18 36.1, 18 36.1, 18C36, 17.9 35.8, 17.8 35.6, 17.6C35.4, 17.2 35.2, 17.2 34.9, 17.2zM33.6, 40.3C29.7, 41.7 25.4, 42.4 21.3, 41.8C16.6, 41.1 13.5, 38.6 9.7, 35.9C8.5, 35 7.2, 34.2 6.2, 33.2C6.2, 33.5 6.3, 33.9 6.5, 34.2C7.3, 35.7 8.1, 37.2 9, 38.5C9.2, 38.9 9.4, 39.2 9.6, 39.5C10.8, 41 12.2, 42.4 13.7, 43.6C16.8, 46 21.1, 46.7 25, 46.2C25.8, 46.1 26.5, 45.9 27.2, 45.7C29.8, 45.5 32.3, 44.2 34.5, 42.9C37.8, 40.9 39.5, 37.7 42.4, 35.3C39.7, 37.1 36.9, 39.1 33.6, 40.3z" class="st2" tag="st20" />
    <path d="M40.3, 30.3C38.5, 28.8 36.6, 27.4 34.7, 26C33, 24.7 31.4, 23.3 29.4, 22.6C29.1, 22.5 28.8, 22.6 28.7, 22.7C28.5, 22.6 28.3, 22.6 28, 22.6C27.4, 22.7 26.8, 23.2 26.4, 23.6C25.4, 24.7 24.8, 25.9 24.8, 27.4C24.8, 29.2 25.6, 30.8 27.4, 31.4C29.2, 32 31.1, 31.7 32.9, 31.8C35.2, 31.9 37.7, 32.5 40, 31.8C40.5, 31.5 40.8, 30.7 40.3, 30.3z" class="st3" tag="st30" />
    <path d="M22, 20C22.2, 20.4 22.3, 20.8 22.2, 21.3C22.2, 21.5 22.1, 21.6 22, 21.8C21.9, 21.9 21.8, 22 21.7, 22.2C21.6, 22.5 21.4, 22.8 21.2, 23.1C20.9, 23.3 20.7, 23.5 20.4, 23.6C20.2, 23.7 19.9, 23.7 19.7, 23.7C19.4, 23.7 19.1, 23.6 18.9, 23.4C18.8, 23.4 18.7, 23.4 18.6, 23.3C18.3, 23.2 18.2, 23 18, 22.8C17.5, 22.1 17.4, 21.2 17.6, 20.4C17.7, 20.2 17.8, 19.9 17.9, 19.7C18.1, 19.2 18.4, 18.6 18.8, 18.2C19, 18 19.4, 17.9 19.7, 17.8C20, 17.8 20.4, 17.9 20.6, 18.2C20.8, 18.4 20.9, 18.6 21, 18.8C21.3, 18.8 21.6, 19 21.8, 19.1C21.9, 19.3 22.1, 19.6 22, 20C22, 20 22, 20 22, 20zM35.9, 19.5C35.8, 19.2 35.4, 19 35.2, 18.9C35.1, 18.9 35, 18.9 34.9, 18.9C34.8, 18.8 34.6, 18.7 34.5, 18.7C34.3, 18.6 34.1, 18.5 33.9, 18.5C33.7, 18.5 33.6, 18.5 33.4, 18.6C33.2, 18.6 33.1, 18.7 33, 18.9C32.8, 19.1 32.7, 19.2 32.7, 19.4C32.6, 19.9 32.6, 20.4 32.7, 20.9C32.7, 20.9 32.7, 21 32.7, 21C32.7, 21.2 32.8, 21.4 32.9, 21.6C32.9, 21.6 32.9, 21.6 32.9, 21.6C32.9, 21.6 32.9, 21.7 32.9, 21.7C32.9, 22 33, 22.3 33.3, 22.6C33.5, 22.8 33.9, 23 34.2, 23C34.5, 23 34.8, 22.9 35.1, 22.6C35.1, 22.6 35.1, 22.5 35.2, 22.5C35.2, 22.5 35.3, 22.5 35.3, 22.5C35.5, 22.5 35.6, 22.4 35.7, 22.2C35.9, 22 35.9, 21.8 36, 21.6C36.1, 21.5 36.1, 21.3 36.2, 21.2C36.4, 20.7 36.2, 20.1 35.9, 19.5zM26.7, 35.4C26.5, 35.4 26.3, 35.6 26.3, 35.8C26.3, 36.2 26.2, 36.6 26, 37C25.9, 37.2 25.8, 37.4 25.6, 37.5C25.5, 37.5 25.4, 37.6 25.4, 37.6C25.4, 37.6 25.4, 37.6 25.3, 37.6C25.3, 37.6 25.2, 37.6 25.2, 37.6C25.2, 37.6 25.1, 37.6 25.1, 37.6C25.1, 37.6 25.1, 37.6 25, 37.6C25, 37.6 24.9, 37.6 24.9, 37.6C24.9, 37.6 24.9, 37.6 24.9, 37.6C24.9, 37.6 24.9, 37.6 24.9, 37.6C24.9, 37.6 24.8, 37.6 24.8, 37.5C24.8, 37.5 24.8, 37.5 24.8, 37.5C24.8, 37.5 24.8, 37.5 24.8, 37.5C24.7, 37.4 24.7, 37.4 24.6, 37.3C24.6, 37.3 24.6, 37.3 24.6, 37.3C24.6, 37.3 24.6, 37.3 24.6, 37.3C24.6, 37.3 24.5, 37.2 24.5, 37.2C24.4, 37.1 24.4, 37 24.3, 36.9C24.2, 36.7 24.1, 36.5 24, 36.3C23.8, 35.9 23.7, 35.5 23.4, 35.1C23.2, 35 23, 35 22.8, 35.1C22.6, 35.2 22.5, 35.5 22.6, 35.7C23.1, 36.5 23.3, 37.4 23.9, 38.1C24.2, 38.4 24.7, 38.7 25.1, 38.6C25.7, 38.5 26.2, 38.2 26.6, 37.7C27, 37.2 27.2, 36.5 27.1, 35.9C27.1, 35.6 27, 35.4 26.7, 35.4z" class="st0" tag="st01" />
    <path d="M38.2, 30.8C36.7, 30.4 35.3, 29.3 33.7, 28.9C31.9, 28.4 30.1, 27.9 28.3, 27.3C27.8, 27.1 27.2, 27.3 26.7, 27.7C26.7, 27.7 26.6, 27.7 26.6, 27.7C26.6, 27.8 26.5, 27.9 26.5, 28C26.4, 28.3 26.3, 28.6 26.2, 28.9C26.2, 29.1 26.3, 29.4 26.2, 29.3C26.3, 29.4 26.3, 29.4 26.4, 29.5C26.5, 29.7 26.6, 29.8 26.7, 30C28.8, 30.2 30.8, 30.6 32.9, 30.8C34.9, 31 36.9, 31.1 38.9, 31.3C38.8, 31 38.5, 30.9 38.2, 30.8z" class="st0" tag="st02" />
  </g>
</svg>