<?xml version='1.0' encoding='UTF-8'?>
<svg x="0px" y="0px" viewBox="0 0 48 48" version="1.1" xmlns="http://www.w3.org/2000/svg" xmlns:xlink="http://www.w3.org/1999/xlink" xml:space="preserve" id="Layer_1" style="enable-background:new 0 0 48 48">
  <style type="text/css">
	.st0{opacity:0.25;fill:#1E1004;}
	.st1{fill:#FEFEFE;}
	.st2{fill:#B2E2EA;}
	.st3{fill:#F98115;}
	.st4{fill:#1E1004;}
</style>
  <g>
    <path d="M46.6, 25.1C46.6, 24.2 46.6, 23.3 46.5, 22.3C45.3, 12.9 37.8, 3.5 28.4, 1.3C28.3, 1.3 28.3, 1.3 28.2, 1.3C25.8, 0.4 23.2, -0.1 20.5, 0C15.4, 0.3 11.1, 2.8 8, 6.6C7.3, 7.3 6.6, 8 6, 8.9C5.3, 9.9 4.7, 10.9 4.2, 11.9C2.1, 15.6 1.2, 19.9 1.5, 24.2C1.5, 28.2 2.5, 32.2 4.8, 35.5C5.8, 37.3 7.1, 38.7 8.5, 39.9C11.2, 44.4 15.5, 47.6 21.5, 47.9C30.6, 48.5 40.8, 42.7 44.8, 34.5C46.1, 31.5 46.7, 28.3 46.6, 25.1z" class="st0" />
    <path d="M45, 25C45, 24.2 45, 23.3 44.9, 22.4C43.7, 13.7 36.8, 5 28.1, 3C28.1, 3 28, 3 28, 3C25.7, 2.1 23.3, 1.7 20.9, 1.8C16.1, 1.9 12, 4.3 9.2, 7.8C8.5, 8.5 7.9, 9.2 7.3, 10C6.6, 10.9 6.1, 11.8 5.6, 12.8C3.6, 16.3 2.8, 20.3 3.1, 24.2C3.1, 27.9 4.1, 31.6 6.2, 34.7C7.2, 36.3 8.3, 37.7 9.6, 38.8C12.1, 42.9 16.1, 45.9 21.7, 46.2C30.1, 46.7 39.7, 41.4 43.3, 33.7C44.6, 30.9 45.1, 28 45, 25z" class="st1" />
    <path d="M22, 16.8C22.2, 17 22.3, 17.2 22.4, 17.5C22.5, 17.7 22.6, 18 22.6, 18.3C22.6, 18.7 22.6, 19.2 22.5, 19.6C22.5, 19.7 22.4, 19.8 22.4, 20C22.3, 20.2 22.2, 20.4 22.1, 20.6C22, 20.7 21.9, 20.8 21.8, 20.9C21.7, 21 21.6, 21.1 21.5, 21.2C21.4, 21.3 21.3, 21.3 21.2, 21.4C21.1, 21.5 21, 21.5 20.9, 21.6C20.9, 21.6 20.8, 21.7 20.8, 21.7C20.6, 21.8 20.4, 21.9 20.2, 22C19.7, 22.1 19, 22.2 18.5, 22C18.5, 22 18.5, 22 18.4, 22C18.2, 21.9 18, 21.9 17.9, 21.8C17.9, 21.8 17.8, 21.8 17.8, 21.8C17.6, 21.7 17.5, 21.6 17.3, 21.4C17.3, 21.4 17.3, 21.4 17.3, 21.4C17.2, 21.3 17.1, 21.1 17, 21C16.8, 20.6 16.6, 20.1 16.6, 19.7C16.6, 19.2 16.7, 18.8 17, 18.4C17.1, 18.2 17.3, 18 17.4, 17.9C17.5, 17.8 17.7, 17.7 17.8, 17.6C17.8, 17.6 17.8, 17.6 17.8, 17.6C17.8, 17.6 17.8, 17.6 17.8, 17.6C18, 17.5 18.2, 17.4 18.3, 17.4C18.3, 17.4 18.4, 17.4 18.4, 17.4C18.5, 17.4 18.6, 17.4 18.8, 17.3C18.8, 17.3 18.8, 17.2 18.9, 17.2C19.2, 16.9 19.5, 16.8 19.8, 16.7C20, 16.7 20.2, 16.7 20.3, 16.6C20.6, 16.6 20.8, 16.6 21.1, 16.8C21.6, 16.5 21.8, 16.6 22, 16.8zM34.1, 16.9C33.8, 16.8 33.6, 16.9 33.3, 16.9C33, 17 32.8, 17.1 32.6, 17.3C32.4, 17.4 32.2, 17.6 32.1, 17.9L32.1, 17.9C32, 18 32, 18.1 31.9, 18.2C31.7, 18.5 31.6, 18.9 31.6, 19.2C31.6, 19.2 31.6, 19.2 31.6, 19.2C31.6, 19.2 31.6, 19.3 31.6, 19.3C31.6, 19.4 31.6, 19.6 31.6, 19.7C31.6, 20 31.7, 20.2 31.8, 20.5C31.9, 20.7 32.1, 20.9 32.3, 21.1C32.5, 21.3 32.7, 21.4 33, 21.5C33.2, 21.5 33.4, 21.5 33.5, 21.6C33.7, 21.6 33.9, 21.6 34.1, 21.5C34.1, 21.5 34.2, 21.5 34.2, 21.5C34.2, 21.5 34.2, 21.5 34.2, 21.5C34.2, 21.5 34.2, 21.5 34.2, 21.5C34.2, 21.5 34.7, 21.3 34.7, 21.3C34.7, 21.3 34.7, 21.3 34.7, 21.3C34.8, 21.2 35, 21.1 35.1, 21C35.2, 20.9 35.3, 20.7 35.4, 20.6C35.4, 20.6 35.4, 20.6 35.4, 20.6C35.4, 20.6 35.4, 20.6 35.4, 20.6C35.4, 20.5 35.6, 20.2 35.6, 20.1C35.6, 20.1 35.6, 20.1 35.6, 20.1C35.6, 20.1 35.6, 20.1 35.6, 20C35.6, 19.8 35.7, 19.6 35.7, 19.4C35.7, 19.4 35.7, 19.4 35.7, 19.3C35.7, 19.4 35.7, 18.9 35.6, 18.7C35.5, 18.5 35.5, 18.3 35.4, 18.2C35.3, 18 35.2, 17.9 35, 17.7C35, 17.7 35, 17.7 35, 17.7C34.9, 17.6 34.7, 17.5 34.6, 17.4C34.6, 17 34.3, 16.9 34.1, 16.9zM32.8, 39.3C29, 40.7 24.9, 41.3 20.9, 40.8C16.3, 40.2 13.3, 37.7 9.7, 35.1C8.5, 34.2 7.3, 33.4 6.3, 32.5C6.3, 32.8 6.4, 33.1 6.6, 33.5C7.4, 35 8.1, 36.4 9.1, 37.6C9.3, 37.9 9.5, 38.3 9.7, 38.6C10.8, 40.1 12.2, 41.4 13.7, 42.5C16.7, 44.8 20.9, 45.5 24.6, 45C25.3, 44.9 26.1, 44.7 26.8, 44.5C29.3, 44.3 31.8, 43.1 33.9, 41.8C37.1, 39.8 38.8, 36.8 41.6, 34.4C38.7, 36.2 36, 38.1 32.8, 39.3z" class="st2" />
    <path d="M39.3, 29.6C37.6, 28.1 35.7, 26.8 33.8, 25.5C32.1, 24.3 30.6, 22.9 28.6, 22.2C28.3, 22.1 28, 22.2 27.9, 22.3C27.7, 22.2 27.5, 22.2 27.2, 22.2C26.6, 22.3 26.1, 22.7 25.7, 23.2C24.7, 24.2 24.2, 25.4 24.2, 26.8C24.2, 28.5 25, 30.1 26.7, 30.6C28.4, 31.2 30.3, 30.9 32, 31C34.3, 31.1 36.7, 31.7 38.9, 31C39.5, 30.8 39.8, 30 39.3, 29.6z" class="st3" />
    <path d="M21.6, 19.7C21.8, 20.1 21.9, 20.5 21.8, 20.9C21.8, 21.1 21.7, 21.2 21.6, 21.4C21.5, 21.5 21.4, 21.6 21.3, 21.7C21.2, 22 21, 22.3 20.8, 22.5C20.5, 22.7 20.3, 22.9 20, 23C19.8, 23.1 19.5, 23.1 19.3, 23.1C19, 23.1 18.8, 23 18.5, 22.8C18.4, 22.8 18.3, 22.8 18.2, 22.7C18, 22.6 17.8, 22.4 17.6, 22.2C17.1, 21.5 17, 20.6 17.2, 19.8C17.3, 19.6 17.4, 19.3 17.5, 19.1C17.7, 18.6 18, 18.1 18.4, 17.7C18.6, 17.5 18.9, 17.4 19.3, 17.3C19.6, 17.3 20, 17.4 20.2, 17.7C20.3, 17.9 20.5, 18.1 20.6, 18.3C20.9, 18.3 21.2, 18.4 21.4, 18.6C21.5, 18.9 21.6, 19.3 21.6, 19.7C21.6, 19.6 21.6, 19.6 21.6, 19.7zM35.1, 19.2C35, 18.9 34.7, 18.7 34.4, 18.7C34.3, 18.7 34.2, 18.7 34.1, 18.7C34, 18.6 33.8, 18.5 33.7, 18.5C33.5, 18.4 33.3, 18.3 33.1, 18.3C32.9, 18.3 32.8, 18.3 32.6, 18.4C32.5, 18.4 32.3, 18.5 32.2, 18.6C32.1, 18.7 32, 18.9 31.9, 19.1C31.8, 19.6 31.8, 20.1 31.9, 20.6C31.9, 20.6 31.9, 20.7 31.9, 20.7C31.9, 20.9 32, 21.1 32.1, 21.3C32.1, 21.3 32.1, 21.3 32.1, 21.3C32.1, 21.3 32.1, 21.4 32.1, 21.4C32.1, 21.7 32.2, 22 32.4, 22.2C32.6, 22.4 32.9, 22.6 33.2, 22.5C33.5, 22.5 33.8, 22.4 34, 22.2C34, 22.2 34, 22.1 34.1, 22.1C34.1, 22.1 34.2, 22.1 34.2, 22.1C34.3, 22.1 34.5, 22 34.6, 21.9C34.8, 21.7 34.8, 21.5 34.9, 21.3C35, 21.2 35, 21.1 35.1, 20.9C35.5, 20.3 35.3, 19.7 35.1, 19.2zM26.2, 34.6C26, 34.6 25.8, 34.8 25.8, 35C25.8, 35.4 25.7, 35.8 25.5, 36.2C25.4, 36.4 25.3, 36.5 25.1, 36.7C25.1, 36.7 24.9, 36.8 24.9, 36.8C24.9, 36.8 24.9, 36.8 24.8, 36.8C24.8, 36.8 24.7, 36.8 24.7, 36.8C24.7, 36.8 24.6, 36.8 24.6, 36.8C24.6, 36.8 24.6, 36.8 24.5, 36.8C24.5, 36.8 24.4, 36.8 24.4, 36.8C24.4, 36.8 24.4, 36.8 24.4, 36.8C24.4, 36.8 24.4, 36.8 24.4, 36.8C24.4, 36.8 24.3, 36.8 24.3, 36.7C24.3, 36.7 24.3, 36.7 24.3, 36.7C24.3, 36.7 24.3, 36.7 24.3, 36.7C24.2, 36.6 24.2, 36.6 24.1, 36.5C24.1, 36.5 24.1, 36.5 24.1, 36.5C24.1, 36.5 24.1, 36.5 24.1, 36.5C24.1, 36.5 24, 36.4 24, 36.4C23.9, 36.3 23.9, 36.2 23.9, 36.1C23.8, 35.9 23.7, 35.7 23.6, 35.5C23.4, 35.1 23.3, 34.7 23, 34.4C22.9, 34.2 22.6, 34.1 22.4, 34.3C22.2, 34.4 22.1, 34.7 22.3, 34.9C22.8, 35.6 23, 36.6 23.6, 37.2C23.9, 37.5 24.3, 37.8 24.8, 37.7C25.4, 37.6 25.9, 37.3 26.2, 36.8C26.5, 36.3 26.7, 35.6 26.7, 35C26.5, 34.8 26.4, 34.6 26.2, 34.6z" class="st4" />
    <path d="M37.3, 30.1C35.8, 29.7 34.5, 28.7 32.9, 28.2C31.1, 27.7 29.4, 27.2 27.6, 26.7C27.1, 26.5 26.5, 26.7 26.1, 27.1C26.1, 27.1 26, 27.1 26, 27.1C26, 27.2 25.9, 27.3 25.9, 27.4C25.8, 27.7 25.7, 28 25.6, 28.2C25.6, 28.4 25.7, 28.7 25.6, 28.6C25.7, 28.7 25.7, 28.7 25.7, 28.8C25.8, 28.9 25.9, 29.1 26, 29.3C28, 29.5 30, 29.8 32, 30.1C33.9, 30.3 35.9, 30.4 37.8, 30.5C37.8, 30.3 37.6, 30.2 37.3, 30.1z" class="st0" />
  </g>
</svg>